<svg width="25" height="25" viewBox="0 0 25 25" fill="none" xmlns="http://www.w3.org/2000/svg">
<path d="M3.23237 5.26837C2.93947 4.97547 2.93947 4.5006 3.23237 4.20771C3.52526 3.91481 4.00013 3.91481 4.29303 4.20771L12.0127 11.9274L19.7324 4.20771C20.0253 3.91481 20.5001 3.91481 20.793 4.20771C21.0859 4.5006 21.0859 4.97547 20.793 5.26837L13.0734 12.988L20.793 20.7077C21.0859 21.0006 21.0859 21.4755 20.793 21.7684C20.5001 22.0613 20.0253 22.0613 19.7324 21.7684L12.0127 14.0487L4.29303 21.7684C4.00013 22.0613 3.52526 22.0613 3.23237 21.7684C2.93947 21.4755 2.93947 21.0006 3.23237 20.7077L10.952 12.988L3.23237 5.26837Z" fill="black"/>
</svg>
