<svg width="18" height="19" viewBox="0 0 18 19" fill="none" xmlns="http://www.w3.org/2000/svg">
<path d="M16.5463 9.54516C16.5461 8.10306 16.1326 6.69123 15.355 5.4768C14.5773 4.26237 13.4679 3.2962 12.1582 2.69267C10.8484 2.08914 9.39321 1.87352 7.96475 2.07135C6.53629 2.26917 5.19443 2.87215 4.09801 3.80891C3.0016 4.74566 2.19655 5.97696 1.77817 7.35703C1.3598 8.7371 1.34561 10.2082 1.73731 11.596C2.129 12.9839 2.91016 14.2305 3.98831 15.1882C5.06646 16.1459 6.39646 16.7747 7.82084 17V11.7265H5.90501V9.54516H7.82084V7.8826C7.82084 5.9913 8.9476 4.94661 10.671 4.94661C11.237 4.95446 11.8016 5.00364 12.3604 5.09376V6.9511H11.4087C11.2465 6.92956 11.0815 6.9448 10.926 6.99567C10.7705 7.04655 10.6284 7.13177 10.5103 7.24501C10.3923 7.35826 10.3012 7.49662 10.2438 7.64986C10.1865 7.80309 10.1643 7.96727 10.1791 8.13022V9.54516H12.2722L11.9374 11.7265H10.1791V17C11.9542 16.7192 13.5709 15.814 14.7382 14.4474C15.9054 13.0808 16.5466 11.3424 16.5463 9.54516Z" fill="#E37119"/>
</svg>
