<svg width="18" height="18" viewBox="0 0 18 18" fill="none" xmlns="http://www.w3.org/2000/svg">
<path d="M16.5463 9.04516C16.5461 7.60306 16.1326 6.19123 15.355 4.9768C14.5773 3.76237 13.4679 2.7962 12.1582 2.19267C10.8484 1.58914 9.39321 1.37352 7.96475 1.57135C6.53629 1.76917 5.19443 2.37215 4.09801 3.30891C3.0016 4.24566 2.19655 5.47696 1.77817 6.85703C1.3598 8.2371 1.34561 9.70815 1.73731 11.096C2.129 12.4839 2.91016 13.7305 3.98831 14.6882C5.06646 15.6459 6.39646 16.2747 7.82084 16.5V11.2265H5.90501V9.04516H7.82084V7.3826C7.82084 5.4913 8.9476 4.44661 10.671 4.44661C11.237 4.45446 11.8016 4.50364 12.3604 4.59376V6.4511H11.4087C11.2465 6.42956 11.0815 6.4448 10.926 6.49567C10.7705 6.54655 10.6284 6.63177 10.5103 6.74501C10.3923 6.85826 10.3012 6.99662 10.2438 7.14986C10.1865 7.30309 10.1643 7.46727 10.1791 7.63022V9.04516H12.2722L11.9374 11.2265H10.1791V16.5C11.9542 16.2192 13.5709 15.314 14.7382 13.9474C15.9054 12.5808 16.5466 10.8424 16.5463 9.04516Z" fill="#F3F3F3"/>
</svg>
