<svg width="20" height="20" viewBox="0 0 20 20" fill="none" xmlns="http://www.w3.org/2000/svg">
<path d="M18.3849 10.0502C18.3846 8.44787 17.9253 6.87917 17.0612 5.5298C16.1971 4.18043 14.9644 3.10691 13.5092 2.43632C12.0539 1.76573 10.437 1.52615 8.84983 1.74596C7.26266 1.96577 5.77169 2.63575 4.55345 3.67658C3.33521 4.71742 2.44072 6.08553 1.97585 7.61894C1.51099 9.15235 1.49524 10.7869 1.93045 12.3289C2.36566 13.871 3.23362 15.2561 4.43157 16.3203C5.62951 17.3844 7.10728 18.083 8.68993 18.3334V12.4739H6.56123V10.0502H8.68993V8.20292C8.68993 6.10147 9.94189 4.94069 11.8568 4.94069C12.4856 4.94942 13.113 5.00406 13.7339 5.1042V7.16791H12.6764C12.4962 7.14398 12.3129 7.1609 12.1401 7.21744C11.9673 7.27397 11.8095 7.36865 11.6783 7.49448C11.5471 7.62031 11.4458 7.77405 11.3821 7.94431C11.3184 8.11457 11.2938 8.29699 11.3102 8.47804V10.0502H13.6359L13.2639 12.4739H11.3102V18.3334C13.2826 18.0213 15.0789 17.0156 16.3758 15.4971C17.6728 13.9786 18.3852 12.0471 18.3849 10.0502Z" fill="#252D38"/>
</svg>
