<svg width="18" height="19" viewBox="0 0 18 19" fill="none" xmlns="http://www.w3.org/2000/svg">
<path d="M8.99827 3.34987C10.9981 3.34987 11.2381 3.35736 12.0285 3.39336C12.5041 3.39897 12.9753 3.48641 13.4213 3.65183C13.747 3.77204 14.0415 3.96372 14.2832 4.21278C14.5323 4.45454 14.724 4.74907 14.8442 5.07469C15.0096 5.52071 15.0971 5.99188 15.1027 6.46755C15.1387 7.25947 15.1477 7.49945 15.1477 9.49925C15.1477 11.499 15.1402 11.739 15.1042 12.5294C15.0986 13.0051 15.0111 13.4763 14.8457 13.9223C14.7209 14.2456 14.5298 14.5392 14.2847 14.7842C14.0397 15.0293 13.7461 15.2203 13.4228 15.3452C12.9768 15.5106 12.5056 15.598 12.03 15.6036C11.2396 15.6396 11.0021 15.6471 8.99977 15.6471C6.99747 15.6471 6.76 15.6396 5.96958 15.6036C5.4939 15.598 5.02274 15.5106 4.57672 15.3452C4.25109 15.225 3.95656 15.0333 3.7148 14.7842C3.46574 14.5425 3.27406 14.2479 3.15386 13.9223C2.98843 13.4763 2.901 13.0051 2.89538 12.5294C2.85789 11.739 2.84889 11.5015 2.84889 9.49925C2.84889 7.49695 2.85639 7.25947 2.89238 6.46905C2.898 5.99338 2.98543 5.52221 3.15086 5.07619C3.2715 4.75043 3.4637 4.45589 3.7133 4.21428C3.95506 3.96522 4.24959 3.77354 4.57522 3.65333C5.02124 3.48791 5.4924 3.40047 5.96808 3.39486C6.7585 3.35886 6.99847 3.34987 8.99827 3.34987ZM8.99827 2C6.96148 2 6.706 2.0085 5.90658 2.045C5.28426 2.05818 4.66864 2.1765 4.08576 2.39496C3.5857 2.58316 3.13259 2.87796 2.7579 3.25887C2.37644 3.63342 2.08113 4.08654 1.89248 4.58674C1.67403 5.16961 1.5557 5.78523 1.54252 6.40756C1.50752 7.20698 1.49902 7.46245 1.49902 9.49925C1.49902 11.536 1.50752 11.7915 1.54402 12.5909C1.5572 13.2133 1.67553 13.8289 1.89398 14.4118C2.08263 14.912 2.37794 15.3651 2.7594 15.7396C3.13394 16.1211 3.58706 16.4164 4.08726 16.605C4.67014 16.8235 5.28576 16.9418 5.90808 16.955C6.708 16.9915 6.96298 17 8.99977 17C11.0366 17 11.292 16.9915 12.0915 16.955C12.7138 16.9418 13.3294 16.8235 13.9123 16.605C14.4103 16.412 14.8625 16.1173 15.2402 15.7396C15.6178 15.362 15.9125 14.9097 16.1056 14.4118C16.324 13.8289 16.4423 13.2133 16.4555 12.5909C16.492 11.791 16.5005 11.536 16.5005 9.49925C16.5005 7.46245 16.492 7.20698 16.4555 6.40756C16.4423 5.78523 16.324 5.16961 16.1056 4.58674C15.9169 4.08654 15.6216 3.63342 15.2402 3.25887C14.8656 2.87742 14.4125 2.5821 13.9123 2.39346C13.3294 2.175 12.7138 2.05668 12.0915 2.0435C11.2905 2.0085 11.0351 2 8.99827 2Z" fill="#E37119"/>
<path d="M8.99827 5.64964C8.23688 5.64964 7.4926 5.87541 6.85953 6.29841C6.22647 6.72141 5.73305 7.32264 5.44168 8.02607C5.15032 8.72949 5.07408 9.50352 5.22262 10.2503C5.37116 10.997 5.7378 11.683 6.27618 12.2213C6.81455 12.7597 7.50049 13.1264 8.24724 13.2749C8.99399 13.4234 9.76802 13.3472 10.4714 13.0558C11.1749 12.7645 11.7761 12.271 12.1991 11.638C12.6221 11.0049 12.8479 10.2606 12.8479 9.49925C12.8479 8.47827 12.4423 7.4991 11.7204 6.77716C10.9984 6.05522 10.0192 5.64964 8.99827 5.64964ZM8.99827 11.999C8.50386 11.999 8.02056 11.8524 7.60948 11.5777C7.1984 11.303 6.878 10.9126 6.6888 10.4559C6.4996 9.99909 6.45009 9.49648 6.54655 9.01157C6.643 8.52667 6.88108 8.08126 7.23067 7.73166C7.58027 7.38206 8.02568 7.14399 8.51059 7.04753C8.99549 6.95108 9.49811 7.00058 9.95488 7.18978C10.4116 7.37898 10.8021 7.69938 11.0767 8.11046C11.3514 8.52155 11.498 9.00485 11.498 9.49925C11.498 10.1622 11.2346 10.798 10.7659 11.2668C10.2971 11.7356 9.66124 11.999 8.99827 11.999Z" fill="#E37119"/>
<path d="M13.0014 6.39606C13.4984 6.39606 13.9013 5.99316 13.9013 5.49615C13.9013 4.99914 13.4984 4.59624 13.0014 4.59624C12.5044 4.59624 12.1015 4.99914 12.1015 5.49615C12.1015 5.99316 12.5044 6.39606 13.0014 6.39606Z" fill="#E37119"/>
</svg>
