<svg width="20" height="20" viewBox="0 0 20 20" fill="none" xmlns="http://www.w3.org/2000/svg">
<path d="M9.99852 3.16654C12.2205 3.16654 12.4872 3.17487 13.3654 3.21487C13.8939 3.2211 14.4174 3.31825 14.913 3.50206C15.2748 3.63562 15.6021 3.8486 15.8707 4.12533C16.1474 4.39395 16.3604 4.72121 16.494 5.08301C16.6778 5.57859 16.7749 6.1021 16.7812 6.63063C16.8212 7.51055 16.8312 7.77719 16.8312 9.99919C16.8312 12.2212 16.8228 12.4878 16.7828 13.3661C16.7766 13.8946 16.6795 14.4181 16.4956 14.9137C16.3569 15.2729 16.1446 15.5991 15.8724 15.8714C15.6001 16.1436 15.2739 16.3559 14.9147 16.4946C14.4191 16.6785 13.8956 16.7756 13.3671 16.7818C12.4888 16.8218 12.225 16.8302 10.0002 16.8302C7.7754 16.8302 7.51154 16.8218 6.6333 16.7818C6.10477 16.7756 5.58125 16.6785 5.08567 16.4946C4.72387 16.3611 4.39662 16.1481 4.12799 15.8714C3.85126 15.6028 3.63828 15.2755 3.50472 14.9137C3.32091 14.4181 3.22376 13.8946 3.21753 13.3661C3.17586 12.4878 3.16587 12.224 3.16587 9.99919C3.16587 7.77441 3.1742 7.51055 3.21419 6.6323C3.22043 6.10377 3.31758 5.58026 3.50139 5.08468C3.63543 4.72272 3.84899 4.39545 4.12633 4.127C4.39495 3.85027 4.7222 3.63728 5.08401 3.50373C5.57959 3.31992 6.1031 3.22277 6.63163 3.21653C7.50988 3.17654 7.77652 3.16654 9.99852 3.16654ZM9.99852 1.66669C7.73541 1.66669 7.45155 1.67613 6.5633 1.71668C5.87183 1.73133 5.18781 1.8628 4.54017 2.10553C3.98454 2.31465 3.48109 2.6422 3.06476 3.06544C2.64092 3.48159 2.3128 3.98506 2.10319 4.54084C1.86046 5.18848 1.72899 5.8725 1.71434 6.56398C1.67546 7.45222 1.66602 7.73608 1.66602 9.99919C1.66602 12.2623 1.67546 12.5462 1.71601 13.4344C1.73066 14.1259 1.86213 14.8099 2.10486 15.4575C2.31446 16.0133 2.64259 16.5168 3.06643 16.9329C3.48259 17.3568 3.98606 17.6849 4.54184 17.8945C5.18948 18.1372 5.8735 18.2687 6.56497 18.2834C7.45377 18.3239 7.73708 18.3334 10.0002 18.3334C12.2633 18.3334 12.5471 18.3239 13.4354 18.2834C14.1269 18.2687 14.8109 18.1372 15.4585 17.8945C16.0118 17.68 16.5143 17.3526 16.9339 16.9329C17.3535 16.5133 17.681 16.0108 17.8955 15.4575C18.1382 14.8099 18.2697 14.1259 18.2844 13.4344C18.3249 12.5456 18.3343 12.2623 18.3343 9.99919C18.3343 7.73608 18.3249 7.45222 18.2844 6.56398C18.2697 5.8725 18.1382 5.18848 17.8955 4.54084C17.6859 3.98506 17.3578 3.48159 16.9339 3.06544C16.5178 2.6416 16.0143 2.31347 15.4585 2.10387C14.8109 1.86114 14.1269 1.72967 13.4354 1.71502C12.5455 1.67613 12.2616 1.66669 9.99852 1.66669Z" fill="#252D38"/>
<path d="M9.99851 5.72184C9.15253 5.72184 8.32554 5.9727 7.62214 6.4427C6.91873 6.9127 6.37049 7.58073 6.04675 8.36232C5.72301 9.1439 5.6383 10.0039 5.80334 10.8337C5.96839 11.6634 6.37576 12.4255 6.97396 13.0237C7.57216 13.6219 8.33431 14.0293 9.16404 14.1944C9.99376 14.3594 10.8538 14.2747 11.6354 13.9509C12.417 13.6272 13.085 13.079 13.555 12.3756C14.025 11.6721 14.2759 10.8452 14.2759 9.99919C14.2759 8.86476 13.8252 7.7768 13.023 6.97464C12.2209 6.17249 11.1329 5.72184 9.99851 5.72184ZM9.99851 12.7767C9.44917 12.7767 8.91217 12.6138 8.45541 12.3086C7.99865 12.0034 7.64265 11.5696 7.43243 11.0621C7.22221 10.5546 7.1672 9.99611 7.27437 9.45732C7.38154 8.91854 7.64608 8.42364 8.03452 8.0352C8.42296 7.64676 8.91786 7.38223 9.45664 7.27506C9.99542 7.16789 10.5539 7.22289 11.0614 7.43311C11.5689 7.64333 12.0027 7.99933 12.3079 8.45609C12.6131 8.91285 12.776 9.44985 12.776 9.99919C12.776 10.7358 12.4834 11.4423 11.9625 11.9632C11.4416 12.4841 10.7351 12.7767 9.99851 12.7767Z" fill="#252D38"/>
<path d="M14.4464 6.5512C14.9986 6.5512 15.4463 6.10353 15.4463 5.5513C15.4463 4.99907 14.9986 4.5514 14.4464 4.5514C13.8942 4.5514 13.4465 4.99907 13.4465 5.5513C13.4465 6.10353 13.8942 6.5512 14.4464 6.5512Z" fill="#252D38"/>
</svg>
