<svg width="18" height="18" viewBox="0 0 18 18" fill="none" xmlns="http://www.w3.org/2000/svg">
<path d="M8.99827 2.84987C10.9981 2.84987 11.2381 2.85736 12.0285 2.89336C12.5041 2.89897 12.9753 2.98641 13.4213 3.15183C13.747 3.27204 14.0415 3.46372 14.2832 3.71278C14.5323 3.95454 14.724 4.24907 14.8442 4.57469C15.0096 5.02071 15.0971 5.49188 15.1027 5.96755C15.1387 6.75947 15.1477 6.99945 15.1477 8.99925C15.1477 10.999 15.1402 11.239 15.1042 12.0294C15.0986 12.5051 15.0111 12.9763 14.8457 13.4223C14.7209 13.7456 14.5298 14.0392 14.2847 14.2842C14.0397 14.5293 13.7461 14.7203 13.4228 14.8452C12.9768 15.0106 12.5056 15.098 12.03 15.1036C11.2396 15.1396 11.0021 15.1471 8.99977 15.1471C6.99747 15.1471 6.76 15.1396 5.96958 15.1036C5.4939 15.098 5.02274 15.0106 4.57672 14.8452C4.25109 14.725 3.95656 14.5333 3.7148 14.2842C3.46574 14.0425 3.27406 13.7479 3.15386 13.4223C2.98843 12.9763 2.901 12.5051 2.89538 12.0294C2.85789 11.239 2.84889 11.0015 2.84889 8.99925C2.84889 6.99695 2.85639 6.75947 2.89238 5.96905C2.898 5.49338 2.98543 5.02221 3.15086 4.57619C3.2715 4.25043 3.4637 3.95589 3.7133 3.71428C3.95506 3.46522 4.24959 3.27354 4.57522 3.15333C5.02124 2.98791 5.4924 2.90047 5.96808 2.89486C6.7585 2.85886 6.99847 2.84987 8.99827 2.84987ZM8.99827 1.5C6.96148 1.5 6.706 1.5085 5.90658 1.545C5.28426 1.55818 4.66864 1.6765 4.08576 1.89496C3.5857 2.08316 3.13259 2.37796 2.7579 2.75887C2.37644 3.13342 2.08113 3.58654 1.89248 4.08674C1.67403 4.66961 1.5557 5.28523 1.54252 5.90756C1.50752 6.70698 1.49902 6.96245 1.49902 8.99925C1.49902 11.036 1.50752 11.2915 1.54402 12.0909C1.5572 12.7133 1.67553 13.3289 1.89398 13.9118C2.08263 14.412 2.37794 14.8651 2.7594 15.2396C3.13394 15.6211 3.58706 15.9164 4.08726 16.105C4.67014 16.3235 5.28576 16.4418 5.90808 16.455C6.708 16.4915 6.96298 16.5 8.99977 16.5C11.0366 16.5 11.292 16.4915 12.0915 16.455C12.7138 16.4418 13.3294 16.3235 13.9123 16.105C14.4103 15.912 14.8625 15.6173 15.2402 15.2396C15.6178 14.862 15.9125 14.4097 16.1056 13.9118C16.324 13.3289 16.4423 12.7133 16.4555 12.0909C16.492 11.291 16.5005 11.036 16.5005 8.99925C16.5005 6.96245 16.492 6.70698 16.4555 5.90756C16.4423 5.28523 16.324 4.66961 16.1056 4.08674C15.9169 3.58654 15.6216 3.13342 15.2402 2.75887C14.8656 2.37742 14.4125 2.0821 13.9123 1.89346C13.3294 1.675 12.7138 1.55668 12.0915 1.5435C11.2905 1.5085 11.0351 1.5 8.99827 1.5Z" fill="#F3F3F3"/>
<path d="M8.99827 5.14964C8.23688 5.14964 7.4926 5.37541 6.85953 5.79841C6.22647 6.22141 5.73305 6.82264 5.44168 7.52607C5.15032 8.22949 5.07408 9.00352 5.22262 9.75027C5.37116 10.497 5.7378 11.183 6.27618 11.7213C6.81455 12.2597 7.50049 12.6264 8.24724 12.7749C8.99399 12.9234 9.76802 12.8472 10.4714 12.5558C11.1749 12.2645 11.7761 11.771 12.1991 11.138C12.6221 10.5049 12.8479 9.76063 12.8479 8.99925C12.8479 7.97827 12.4423 6.9991 11.7204 6.27716C10.9984 5.55522 10.0192 5.14964 8.99827 5.14964ZM8.99827 11.499C8.50386 11.499 8.02056 11.3524 7.60948 11.0777C7.1984 10.803 6.878 10.4126 6.6888 9.95586C6.4996 9.49909 6.45009 8.99648 6.54655 8.51157C6.643 8.02667 6.88108 7.58126 7.23067 7.23166C7.58027 6.88206 8.02568 6.64399 8.51059 6.54753C8.99549 6.45108 9.49811 6.50058 9.95488 6.68978C10.4116 6.87898 10.8021 7.19938 11.0767 7.61046C11.3514 8.02155 11.498 8.50485 11.498 8.99925C11.498 9.66223 11.2346 10.298 10.7659 10.7668C10.2971 11.2356 9.66124 11.499 8.99827 11.499Z" fill="#F3F3F3"/>
<path d="M13.0014 5.89606C13.4984 5.89606 13.9013 5.49316 13.9013 4.99615C13.9013 4.49914 13.4984 4.09624 13.0014 4.09624C12.5044 4.09624 12.1015 4.49914 12.1015 4.99615C12.1015 5.49316 12.5044 5.89606 13.0014 5.89606Z" fill="#F3F3F3"/>
</svg>
