<svg width="18" height="19" viewBox="0 0 18 19" fill="none" xmlns="http://www.w3.org/2000/svg">
<path d="M1.5 3.0745C1.5 2.48123 1.99314 2 2.60148 2H15.3985C16.0068 2 16.5 2.48123 16.5 3.07451V15.9255C16.5 16.519 16.0068 17 15.3985 17L2.60148 17C1.99314 17 1.5 16.519 1.5 15.9255V3.0745ZM6.13442 14.5566V7.78321H3.88309V14.5566H6.13442ZM5.00874 6.85843C5.79383 6.85843 6.28248 6.33831 6.28248 5.68832C6.26785 5.02369 5.79383 4.518 5.02364 4.518C4.25352 4.518 3.75 5.02369 3.75 5.68832C3.75 6.33831 4.23855 6.85843 4.99407 6.85843H5.00874ZM9.61069 14.5566V10.774C9.61069 10.5716 9.62532 10.3694 9.68476 10.2247C9.84751 9.82019 10.218 9.40129 10.8399 9.40129C11.6545 9.40129 11.9804 10.0224 11.9804 10.933V14.5566H14.2315V10.6728C14.2315 8.59235 13.1209 7.62427 11.6397 7.62427C10.4454 7.62427 9.90994 8.28066 9.61075 8.74219V8.76552H9.59571C9.60066 8.7578 9.60567 8.75002 9.61075 8.74219V7.78321H7.35944C7.38898 8.41878 7.35944 14.5566 7.35944 14.5566H9.61069Z" fill="#E37119"/>
</svg>
