<svg width="20" height="20" viewBox="0 0 20 20" fill="none" xmlns="http://www.w3.org/2000/svg">
<path d="M1.66699 2.86058C1.66699 2.20139 2.21492 1.66669 2.89086 1.66669H17.1098C17.7857 1.66669 18.3337 2.20139 18.3337 2.86058V17.1395C18.3337 17.7989 17.7857 18.3334 17.1098 18.3334L2.89086 18.3334C2.21492 18.3334 1.66699 17.7989 1.66699 17.1395V2.86058ZM6.81635 15.6184V8.09248H4.31487V15.6184H6.81635ZM5.56559 7.06494C6.43791 7.06494 6.98086 6.48703 6.98086 5.76482C6.9646 5.02634 6.43791 4.46447 5.58214 4.46447C4.72646 4.46447 4.16699 5.02634 4.16699 5.76482C4.16699 6.48703 4.70982 7.06494 5.54929 7.06494H5.56559ZM10.6789 15.6184V11.4156C10.6789 11.1907 10.6951 10.966 10.7612 10.8052C10.942 10.3558 11.3536 9.89034 12.0446 9.89034C12.9498 9.89034 13.3119 10.5805 13.3119 11.5922V15.6184H15.8132V11.3031C15.8132 8.99152 14.5791 7.91588 12.9333 7.91588C11.6063 7.91588 11.0114 8.64519 10.6789 9.15801V9.18393H10.6622C10.6677 9.17536 10.6733 9.16672 10.6789 9.15801V8.09248H8.17748C8.2103 8.79866 8.17748 15.6184 8.17748 15.6184H10.6789Z" fill="#252D38"/>
</svg>
