<svg width="18" height="18" viewBox="0 0 18 18" fill="none" xmlns="http://www.w3.org/2000/svg">
<path d="M1.5 2.5745C1.5 1.98123 1.99314 1.5 2.60148 1.5H15.3985C16.0068 1.5 16.5 1.98123 16.5 2.57451V15.4255C16.5 16.019 16.0068 16.5 15.3985 16.5L2.60148 16.5C1.99314 16.5 1.5 16.019 1.5 15.4255V2.5745ZM6.13442 14.0566V7.28321H3.88309V14.0566H6.13442ZM5.00874 6.35843C5.79383 6.35843 6.28248 5.83831 6.28248 5.18832C6.26785 4.52369 5.79383 4.018 5.02364 4.018C4.25352 4.018 3.75 4.52369 3.75 5.18832C3.75 5.83831 4.23855 6.35843 4.99407 6.35843H5.00874ZM9.61069 14.0566V10.274C9.61069 10.0716 9.62532 9.86936 9.68476 9.72465C9.84751 9.32019 10.218 8.90129 10.8399 8.90129C11.6545 8.90129 11.9804 9.52242 11.9804 10.433V14.0566H14.2315V10.1728C14.2315 8.09235 13.1209 7.12427 11.6397 7.12427C10.4454 7.12427 9.90994 7.78066 9.61075 8.24219V8.26552H9.59571C9.60066 8.2578 9.60567 8.25002 9.61075 8.24219V7.28321H7.35944C7.38898 7.91878 7.35944 14.0566 7.35944 14.0566H9.61069Z" fill="#F3F3F3"/>
</svg>
