<svg width="20" height="20" viewBox="0 0 20 20" fill="none" xmlns="http://www.w3.org/2000/svg">
<path d="M18.9301 9.48015C18.9301 13.7955 14.932 17.2938 10.0002 17.2938C9.0885 17.2938 8.20872 17.1743 7.38021 16.9521C6.72849 17.2824 5.23135 17.9171 2.7131 18.3294C2.49095 18.3658 2.3209 18.1334 2.40865 17.9261C2.80392 16.9923 3.16047 15.7491 3.26906 14.6149C1.89974 13.2417 1.07031 11.4457 1.07031 9.48015C1.07031 5.16479 5.06836 1.6665 10.0002 1.6665C14.932 1.6665 18.9301 5.16479 18.9301 9.48015ZM6.65149 9.48015C6.65149 8.86367 6.15173 8.36392 5.53525 8.36392C4.91877 8.36392 4.41902 8.86367 4.41902 9.48015C4.41902 10.0966 4.91877 10.5964 5.53525 10.5964C6.15173 10.5964 6.65149 10.0966 6.65149 9.48015ZM11.1164 9.48015C11.1164 8.86367 10.6167 8.36392 10.0002 8.36392C9.38372 8.36392 8.88396 8.86367 8.88396 9.48015C8.88396 10.0966 9.38372 10.5964 10.0002 10.5964C10.6167 10.5964 11.1164 10.0966 11.1164 9.48015ZM14.4651 10.5964C15.0816 10.5964 15.5814 10.0966 15.5814 9.48015C15.5814 8.86367 15.0816 8.36392 14.4651 8.36392C13.8487 8.36392 13.3489 8.86367 13.3489 9.48015C13.3489 10.0966 13.8487 10.5964 14.4651 10.5964Z" fill="#F3F3F3"/>
</svg>
