<svg width="14" height="14" viewBox="0 0 14 14" fill="none" xmlns="http://www.w3.org/2000/svg">
<path d="M11.6906 9.12256L10.041 8.93421C9.64482 8.88875 9.25514 9.02514 8.97587 9.30441L7.78087 10.4994C5.9429 9.56419 4.43616 8.06394 3.50094 6.21948L4.70243 5.01798C4.9817 4.73871 5.11809 4.34904 5.07263 3.95287L4.88428 2.31623C4.80635 1.66028 4.25431 1.16669 3.59186 1.16669H2.4683C1.73441 1.16669 1.12392 1.77718 1.16938 2.51107C1.51359 8.05745 5.9494 12.4868 11.4893 12.831C12.2232 12.8764 12.8337 12.2659 12.8337 11.532V10.4085C12.8402 9.75253 12.3466 9.20049 11.6906 9.12256Z" fill="#353232" fill-opacity="0.75"/>
</svg>
