<svg width="109" height="53" viewBox="0 0 109 53" fill="none" xmlns="http://www.w3.org/2000/svg">
<rect width="109" height="53" fill="#F78D40"/>
<path d="M17.463 15.272C17.5143 15.2767 17.582 15.2813 17.666 15.286C17.75 15.286 17.8643 15.286 18.009 15.286C18.6017 15.286 19.0427 15.1367 19.332 14.838C19.626 14.5347 19.773 14.1123 19.773 13.571C19.773 13.0203 19.6307 12.598 19.346 12.304C19.0613 12.01 18.6203 11.863 18.023 11.863C17.7617 11.863 17.575 11.87 17.463 11.884V15.272ZM20.697 13.571C20.697 13.991 20.6317 14.3573 20.501 14.67C20.3703 14.978 20.1837 15.237 19.941 15.447C19.703 15.6523 19.4137 15.8063 19.073 15.909C18.737 16.007 18.3637 16.056 17.953 16.056C17.757 16.056 17.5353 16.0467 17.288 16.028C17.0407 16.014 16.805 15.9813 16.581 15.93V11.219C16.805 11.1677 17.043 11.135 17.295 11.121C17.547 11.107 17.771 11.1 17.967 11.1C18.373 11.1 18.744 11.149 19.08 11.247C19.416 11.3403 19.703 11.4897 19.941 11.695C20.1837 11.8957 20.3703 12.1523 20.501 12.465C20.6317 12.773 20.697 13.1417 20.697 13.571ZM21.8001 16V11.149H24.9151V11.898H22.6821V13.095H24.6701V13.83H22.6821V15.251H25.0831V16H21.8001ZM27.4277 16C27.0777 15.244 26.7393 14.453 26.4127 13.627C26.0907 12.801 25.7897 11.975 25.5097 11.149H26.4827C26.5947 11.4757 26.709 11.8093 26.8257 12.15C26.9423 12.4907 27.059 12.8267 27.1757 13.158C27.2923 13.4847 27.409 13.802 27.5257 14.11C27.6423 14.418 27.7567 14.7003 27.8687 14.957C27.976 14.7003 28.088 14.4203 28.2047 14.117C28.3213 13.809 28.438 13.4893 28.5547 13.158C28.676 12.8267 28.795 12.4907 28.9117 12.15C29.0283 11.8093 29.1403 11.4757 29.2477 11.149H30.1927C29.908 11.975 29.6047 12.801 29.2827 13.627C28.9607 14.453 28.6247 15.244 28.2747 16H27.4277ZM30.96 16V11.149H34.075V11.898H31.842V13.095H33.83V13.83H31.842V15.251H34.243V16H30.96ZM38.2675 15.237V16H35.2015V11.149H36.0835V15.237H38.2675ZM39.5215 13.571C39.5215 13.837 39.5542 14.0797 39.6195 14.299C39.6849 14.5137 39.7782 14.698 39.8995 14.852C40.0255 15.0013 40.1772 15.118 40.3545 15.202C40.5319 15.286 40.7325 15.328 40.9565 15.328C41.1759 15.328 41.3742 15.286 41.5515 15.202C41.7289 15.118 41.8782 15.0013 41.9995 14.852C42.1255 14.698 42.2212 14.5137 42.2865 14.299C42.3519 14.0797 42.3845 13.837 42.3845 13.571C42.3845 13.305 42.3519 13.0647 42.2865 12.85C42.2212 12.6307 42.1255 12.4463 41.9995 12.297C41.8782 12.143 41.7289 12.024 41.5515 11.94C41.3742 11.856 41.1759 11.814 40.9565 11.814C40.7325 11.814 40.5319 11.856 40.3545 11.94C40.1772 12.024 40.0255 12.143 39.8995 12.297C39.7782 12.451 39.6849 12.6353 39.6195 12.85C39.5542 13.0647 39.5215 13.305 39.5215 13.571ZM43.3085 13.571C43.3085 13.9863 43.2455 14.3527 43.1195 14.67C42.9982 14.9873 42.8302 15.2533 42.6155 15.468C42.4055 15.678 42.1582 15.8367 41.8735 15.944C41.5889 16.0513 41.2855 16.105 40.9635 16.105C40.6415 16.105 40.3359 16.0513 40.0465 15.944C39.7619 15.8367 39.5122 15.678 39.2975 15.468C39.0875 15.2533 38.9195 14.9873 38.7935 14.67C38.6675 14.3527 38.6045 13.9863 38.6045 13.571C38.6045 13.1557 38.6675 12.7917 38.7935 12.479C38.9195 12.1617 39.0899 11.8957 39.3045 11.681C39.5239 11.4663 39.7759 11.3053 40.0605 11.198C40.3452 11.0907 40.6462 11.037 40.9635 11.037C41.2809 11.037 41.5819 11.0907 41.8665 11.198C42.1512 11.3053 42.3985 11.4663 42.6085 11.681C42.8232 11.8957 42.9935 12.1617 43.1195 12.479C43.2455 12.7917 43.3085 13.1557 43.3085 13.571ZM45.7881 11.1C46.4928 11.1 47.0318 11.2283 47.4051 11.485C47.7831 11.7417 47.9721 12.143 47.9721 12.689C47.9721 12.9737 47.9208 13.2187 47.8181 13.424C47.7201 13.6247 47.5755 13.7903 47.3841 13.921C47.1928 14.047 46.9595 14.1403 46.6841 14.201C46.4088 14.2617 46.0938 14.292 45.7391 14.292H45.2981V16H44.4161V11.219C44.6215 11.1723 44.8478 11.142 45.0951 11.128C45.3471 11.1093 45.5781 11.1 45.7881 11.1ZM45.8511 11.863C45.6271 11.863 45.4428 11.87 45.2981 11.884V13.536H45.7251C46.1498 13.536 46.4765 13.4777 46.7051 13.361C46.9338 13.2397 47.0481 13.0133 47.0481 12.682C47.0481 12.5233 47.0178 12.3903 46.9571 12.283C46.8965 12.1757 46.8125 12.0917 46.7051 12.031C46.5978 11.9703 46.4695 11.9283 46.3201 11.905C46.1755 11.877 46.0191 11.863 45.8511 11.863ZM48.9174 16V11.149H52.0324V11.898H49.7994V13.095H51.7874V13.83H49.7994V15.251H52.2004V16H48.9174ZM54.041 15.272C54.0923 15.2767 54.16 15.2813 54.244 15.286C54.328 15.286 54.4423 15.286 54.587 15.286C55.1797 15.286 55.6207 15.1367 55.91 14.838C56.204 14.5347 56.351 14.1123 56.351 13.571C56.351 13.0203 56.2087 12.598 55.924 12.304C55.6393 12.01 55.1983 11.863 54.601 11.863C54.3397 11.863 54.153 11.87 54.041 11.884V15.272ZM57.275 13.571C57.275 13.991 57.2097 14.3573 57.079 14.67C56.9483 14.978 56.7617 15.237 56.519 15.447C56.281 15.6523 55.9917 15.8063 55.651 15.909C55.315 16.007 54.9417 16.056 54.531 16.056C54.335 16.056 54.1133 16.0467 53.866 16.028C53.6187 16.014 53.383 15.9813 53.159 15.93V11.219C53.383 11.1677 53.621 11.135 53.873 11.121C54.125 11.107 54.349 11.1 54.545 11.1C54.951 11.1 55.322 11.149 55.658 11.247C55.994 11.3403 56.281 11.4897 56.519 11.695C56.7617 11.8957 56.9483 12.1523 57.079 12.465C57.2097 12.773 57.275 13.1417 57.275 13.571ZM61.6149 16.056C61.3582 16.056 61.0992 16.0467 60.8379 16.028C60.5766 16.014 60.3479 15.9813 60.1519 15.93V11.219C60.2546 11.2003 60.3642 11.184 60.4809 11.17C60.5976 11.1513 60.7166 11.1373 60.8379 11.128C60.9592 11.1187 61.0782 11.1117 61.1949 11.107C61.3162 11.1023 61.4306 11.1 61.5379 11.1C61.8319 11.1 62.1049 11.1233 62.3569 11.17C62.6089 11.212 62.8259 11.2843 63.0079 11.387C63.1946 11.4897 63.3392 11.625 63.4419 11.793C63.5446 11.961 63.5959 12.1687 63.5959 12.416C63.5959 12.6447 63.5399 12.8407 63.4279 13.004C63.3206 13.1673 63.1689 13.298 62.9729 13.396C63.2669 13.494 63.4839 13.6387 63.6239 13.83C63.7639 14.0213 63.8339 14.264 63.8339 14.558C63.8339 15.0573 63.6519 15.433 63.2879 15.685C62.9239 15.9323 62.3662 16.056 61.6149 16.056ZM61.0199 13.816V15.293C61.1179 15.3023 61.2229 15.3093 61.3349 15.314C61.4469 15.3187 61.5496 15.321 61.6429 15.321C61.8249 15.321 61.9929 15.3093 62.1469 15.286C62.3056 15.2627 62.4409 15.223 62.5529 15.167C62.6696 15.1063 62.7606 15.027 62.8259 14.929C62.8959 14.831 62.9309 14.705 62.9309 14.551C62.9309 14.2757 62.8306 14.0843 62.6299 13.977C62.4292 13.8697 62.1516 13.816 61.7969 13.816H61.0199ZM61.0199 13.123H61.6429C61.9789 13.123 62.2426 13.0763 62.4339 12.983C62.6252 12.885 62.7209 12.7123 62.7209 12.465C62.7209 12.2317 62.6206 12.066 62.4199 11.968C62.2239 11.87 61.9672 11.821 61.6499 11.821C61.5146 11.821 61.3932 11.8233 61.2859 11.828C61.1832 11.8327 61.0946 11.8397 61.0199 11.849V13.123ZM66.3663 13.298C66.5763 12.948 66.7816 12.5933 66.9823 12.234C67.1829 11.8747 67.3649 11.513 67.5283 11.149H68.5083C68.2469 11.6437 67.9739 12.136 67.6893 12.626C67.4093 13.1113 67.1083 13.6013 66.7863 14.096V16H65.9043V14.11C65.5823 13.6107 65.2789 13.116 64.9943 12.626C64.7096 12.136 64.4366 11.6437 64.1753 11.149H65.2113C65.3746 11.513 65.5543 11.8747 65.7503 12.234C65.9463 12.5933 66.1516 12.948 66.3663 13.298Z" fill="#F0F0F0" fill-opacity="0.5"/>
<path d="M18.2506 27.97C18.3331 28.5756 19.049 28.9793 19.9257 28.9793C20.8478 28.9793 21.446 28.5874 21.446 28.0563C21.446 27.5663 21.0541 27.3272 20.002 27.1195L18.7849 26.8921C17.0706 26.5805 16.1877 25.6986 16.1877 24.358C16.1877 22.6432 17.7349 21.5398 19.8865 21.5398C22.2134 21.5398 23.5873 22.6118 23.6121 24.2718H21.4275C21.3821 23.629 20.757 23.2429 19.9071 23.2429C19.0572 23.2429 18.5332 23.5976 18.5332 24.1366C18.5332 24.6148 18.9458 24.8774 19.9195 25.0675L21.1242 25.2811C22.9623 25.6182 23.7874 26.408 23.7874 27.8054C23.7874 29.5693 22.2588 30.6824 19.8679 30.6824C17.477 30.6824 16.0289 29.6888 16 27.97H18.2506Z" fill="#F0F0F0"/>
<path d="M31.7585 30.5335V26.9764H28.0452V30.5335H25.6874V21.6986H28.0514V25.1636H31.7647V21.6986H34.1225V30.5335H31.7585Z" fill="#F0F0F0"/>
<path d="M35.8059 30.5335L38.927 21.6986H41.8151L44.9507 30.5335H42.434L41.846 28.5933H38.8094L35.8059 30.5335ZM39.2653 26.9764H41.386L40.3546 23.5722H40.303L39.2653 26.9764Z" fill="#F0F0F0"/>
<path d="M46.6319 30.5335V21.6986H50.6608C52.6577 21.6986 54.0109 22.9293 54.0109 24.8343C54.0109 26.7393 52.5875 27.9504 50.5184 27.9504H48.9981L46.6319 30.5335ZM48.9981 26.2611H50.0295C51.0342 26.2611 51.6262 25.7652 51.6262 24.8402C51.6262 23.9151 51.0342 23.4252 50.0419 23.4252H49.0105L48.9981 26.2611Z" fill="#F0F0F0"/>
<path d="M64.7813 26.118C64.7813 28.9343 63.0093 30.6864 60.1914 30.6864C57.3734 30.6864 55.5973 28.9343 55.5973 26.118C55.5973 23.3017 57.3755 21.5437 60.1914 21.5437C63.0072 21.5437 64.7813 23.3017 64.7813 26.118ZM58.0067 26.118C58.0067 27.7956 58.8649 28.8618 60.1914 28.8618C61.5178 28.8618 62.378 27.7956 62.378 26.118C62.378 24.4404 61.5137 23.3742 60.1914 23.3742C58.869 23.3742 58.0067 24.4423 58.0067 26.118Z" fill="#F0F0F0"/>
<path d="M69.1897 23.97L70.3676 28.3346H70.4192L72.2057 21.6986H74.7967L71.8302 30.5335H68.8535L65.8891 21.6986" fill="#F0F0F0"/>
<path d="M74.8792 30.5335L78.0045 21.6986H80.8925L84.0178 30.5335H81.5114L80.9235 28.5933H77.8828L74.8792 30.5335ZM78.3407 26.9764H80.4614L79.4299 23.5722H79.3784L78.3407 26.9764Z" fill="#F0F0F0"/>
<path d="M88.0714 28.7207H91.9187V30.5335H85.7053V21.6986" fill="#F0F0F0"/>
<path d="M16.0664 42.375L19.2515 33.3735H22.1994L25.3845 42.375H22.8224L22.218 40.3975H19.1236L16.0664 42.375ZM19.5898 38.7513H21.7518L20.6997 35.2824H20.6481L19.5898 38.7513Z" fill="#F0F0F0"/>
<path d="M38.8882 37.4656V38.571C38.8882 41.0286 37.2854 42.5318 34.5871 42.5318C31.664 42.5318 29.9043 40.8169 29.9043 37.8595C29.9043 34.9394 31.664 33.2167 34.5273 33.2167C36.8253 33.2167 38.5458 34.5082 38.7892 36.3524H36.4066C36.1693 35.5548 35.4597 35.0687 34.5335 35.0687C33.1678 35.0687 32.3612 36.0839 32.3612 37.838C32.3612 39.592 33.2545 40.7013 34.6304 40.7013C35.7217 40.7013 36.487 40.0898 36.5489 39.1844V39.0472H34.8161" fill="#F0F0F0"/>
<path d="M51.0201 42.375H44.5241V33.3735H51.0201V35.2216H46.9356V37.0129H50.7767V38.6964H46.9356V40.5308H51.0201V42.375Z" fill="#F0F0F0"/>
<path d="M56.821 42.375V33.3735H58.7436L62.7642 38.6082H62.8158V33.3735H65.1015V42.375H63.1974L59.1582 37.0835H59.1067V42.375H56.821Z" fill="#F0F0F0"/>
<path d="M70.4237 37.885C70.4237 34.9453 72.1999 33.2441 75.0137 33.2441C77.4046 33.2441 79.2178 34.7062 79.29 36.8267H76.9775C76.86 35.7704 76.0678 35.0629 75.0137 35.0629C73.7037 35.0629 72.8724 36.127 72.8724 37.8693C72.8724 39.6116 73.6975 40.7091 75.0281 40.7091C76.0822 40.7091 76.8496 40.0487 77.0002 38.9982H79.3107C79.1993 41.1325 77.4541 42.5377 75.0219 42.5377C72.1854 42.5318 70.4237 40.8209 70.4237 37.885Z" fill="#F0F0F0"/>
<path d="M86.5143 42.375V39.2824L83.2508 33.3735H85.8377L87.7211 37.1168H87.7686L89.6458 33.3735H92.1873L88.9238 39.2824V42.375H86.5143Z" fill="#F0F0F0"/>
</svg>
