<svg width="14" height="14" viewBox="0 0 14 14" fill="none" xmlns="http://www.w3.org/2000/svg">
<path fill-rule="evenodd" clip-rule="evenodd" d="M10.5002 4.08334C10.5002 6.01634 8.9332 7.58334 7.0002 7.58334C5.06721 7.58334 3.5002 6.01634 3.5002 4.08334C3.5002 2.15035 5.06721 0.583344 7.0002 0.583344C8.9332 0.583344 10.5002 2.15035 10.5002 4.08334ZM9.33354 4.08334C9.33354 5.37201 8.28887 6.41668 7.0002 6.41668C5.71154 6.41668 4.66687 5.37201 4.66687 4.08334C4.66687 2.79468 5.71154 1.75001 7.0002 1.75001C8.28887 1.75001 9.33354 2.79468 9.33354 4.08334Z" fill="#353232" fill-opacity="0.75"/>
<path fill-rule="evenodd" clip-rule="evenodd" d="M7.00025 8.16668C5.28809 8.16668 4.05361 8.52183 3.16808 9.05436C2.27901 9.589 1.77964 10.2798 1.50388 10.8839C1.27143 11.3931 1.37723 11.9121 1.68606 12.2818C1.98045 12.6343 2.43818 12.8333 2.9169 12.8333H11.0835C11.5623 12.8333 12.02 12.6343 12.3144 12.2819C12.6232 11.9121 12.729 11.3932 12.4966 10.8839C12.2208 10.2798 11.7215 9.58902 10.8324 9.05437C9.94689 8.52183 8.71241 8.16668 7.00025 8.16668ZM2.56521 11.3684C2.75663 10.949 3.10826 10.4517 3.76932 10.0542C4.43392 9.6545 5.4487 9.33334 7.00025 9.33334C8.5518 9.33334 9.56658 9.65451 10.2312 10.0542C10.8922 10.4517 11.2438 10.949 11.4352 11.3684C11.4578 11.4179 11.4569 11.4477 11.4546 11.4629C11.452 11.4802 11.4435 11.5046 11.419 11.5339C11.3664 11.5969 11.2492 11.6667 11.0835 11.6667H2.9169C2.75127 11.6667 2.63405 11.5969 2.58145 11.5339C2.55697 11.5046 2.54845 11.4802 2.54586 11.4629C2.54359 11.4477 2.5426 11.4179 2.56521 11.3684Z" fill="#353232" fill-opacity="0.75"/>
</svg>
