<svg width="18" height="18" viewBox="0 0 18 18" fill="none" xmlns="http://www.w3.org/2000/svg">
<path d="M14.2849 3.68104C12.8843 2.27334 11.0169 1.5 9.02833 1.5C4.93354 1.5 1.59784 4.83571 1.59428 8.93051C1.59428 10.242 1.9364 11.5178 2.58501 12.6475L1.53369 16.5L5.47524 15.4665C6.56219 16.0581 7.78457 16.3717 9.02833 16.3717H9.0319C13.1267 16.3717 16.4624 13.036 16.466 8.93763C16.4624 6.9526 15.689 5.08517 14.2849 3.68104ZM9.02833 15.1137C7.91643 15.1137 6.82948 14.8143 5.88151 14.2512L5.65699 14.1158L3.31915 14.7288L3.94281 12.448L3.79669 12.2128C3.1766 11.2292 2.85229 10.0923 2.85229 8.92694C2.85229 5.52708 5.62492 2.75445 9.0319 2.75445C10.6819 2.75445 12.2322 3.3995 13.4011 4.56486C14.5665 5.73379 15.2079 7.28403 15.2079 8.93407C15.2044 12.3446 12.4317 15.1137 9.02833 15.1137ZM12.4175 10.4879C12.2322 10.3952 11.3198 9.94619 11.1488 9.88204C10.9777 9.82145 10.853 9.78938 10.7318 9.9747C10.6071 10.16 10.2507 10.5805 10.1438 10.7017C10.0369 10.8264 9.92641 10.8407 9.74109 10.748C9.55577 10.6554 8.95706 10.4594 8.24786 9.82502C7.69548 9.33322 7.32484 8.72381 7.21437 8.53849C7.10745 8.35317 7.20367 8.25339 7.29633 8.16073C7.3783 8.07876 7.48165 7.94334 7.57431 7.83642C7.66697 7.72951 7.69904 7.65111 7.75962 7.52637C7.82021 7.40164 7.7917 7.29473 7.74537 7.20207C7.69904 7.10941 7.32841 6.19351 7.1716 5.82288C7.02192 5.45937 6.86868 5.50927 6.75464 5.5057C6.64772 5.49858 6.52299 5.49857 6.39826 5.49857C6.27353 5.49857 6.07395 5.5449 5.90289 5.73022C5.73183 5.91554 5.25428 6.36458 5.25428 7.28047C5.25428 8.19637 5.92071 9.07662 6.01337 9.20136C6.10603 9.32609 7.32128 11.2006 9.18514 12.0061C9.62705 12.1985 9.97274 12.3125 10.2436 12.3981C10.6891 12.5406 11.0918 12.5192 11.4125 12.4729C11.7689 12.4195 12.5102 12.0239 12.667 11.5891C12.8202 11.1543 12.8202 10.7837 12.7739 10.7053C12.7275 10.6269 12.6028 10.5805 12.4175 10.4879Z" fill="#F3F3F3"/>
</svg>
