<svg width="20" height="20" viewBox="0 0 20 20" fill="none" xmlns="http://www.w3.org/2000/svg">
<path d="M15.8721 4.09007C14.3159 2.52596 12.241 1.66669 10.0315 1.66669C5.48171 1.66669 1.77538 5.37303 1.77142 9.92281C1.77142 11.38 2.15155 12.7976 2.87223 14.0528L1.7041 18.3334L6.0836 17.185C7.29132 17.8423 8.64952 18.1908 10.0315 18.1908H10.0354C14.5852 18.1908 18.2915 14.4845 18.2955 9.93073C18.2915 7.72513 17.4323 5.65021 15.8721 4.09007ZM10.0315 16.793C8.79603 16.793 7.58831 16.4604 6.53501 15.8347L6.28554 15.6843L3.68794 16.3654L4.3809 13.8311L4.21855 13.5698C3.52955 12.4769 3.16921 11.2137 3.16921 9.91885C3.16921 6.14123 6.24991 3.06053 10.0354 3.06053C11.8688 3.06053 13.5913 3.77724 14.8901 5.07209C16.1849 6.37089 16.8977 8.09339 16.8977 9.92677C16.8937 13.7163 13.8131 16.793 10.0315 16.793ZM13.7972 11.6532C13.5913 11.5503 12.5776 11.0513 12.3875 10.9801C12.1975 10.9127 12.0589 10.8771 11.9242 11.083C11.7857 11.2889 11.3897 11.7562 11.2709 11.8908C11.1521 12.0294 11.0293 12.0452 10.8234 11.9423C10.6175 11.8393 9.95228 11.6215 9.16429 10.9167C8.55053 10.3703 8.13871 9.69314 8.01596 9.48723C7.89717 9.28132 8.00408 9.17045 8.10703 9.0675C8.19811 8.97642 8.31294 8.82595 8.4159 8.70716C8.51885 8.58836 8.55449 8.50125 8.6218 8.36266C8.68912 8.22406 8.65744 8.10527 8.60597 8.00232C8.55449 7.89936 8.14267 6.8817 7.96844 6.46989C7.80213 6.06599 7.63186 6.12143 7.50515 6.11747C7.38636 6.10955 7.24777 6.10955 7.10918 6.10955C6.97058 6.10955 6.74884 6.16103 6.55877 6.36693C6.3687 6.57284 5.83809 7.07177 5.83809 8.08943C5.83809 9.10709 6.57857 10.0852 6.68152 10.2237C6.78448 10.3623 8.13475 12.4452 10.2057 13.3401C10.6967 13.5539 11.0808 13.6806 11.3818 13.7757C11.8767 13.9341 12.3242 13.9103 12.6806 13.8588C13.0765 13.7994 13.9002 13.3599 14.0744 12.8768C14.2447 12.3937 14.2447 11.9819 14.1932 11.8948C14.1417 11.8077 14.0031 11.7562 13.7972 11.6532Z" fill="#252D38"/>
</svg>
