<svg width="18" height="19" viewBox="0 0 18 19" fill="none" xmlns="http://www.w3.org/2000/svg">
<path d="M14.2849 4.18104C12.8843 2.77334 11.0169 2 9.02833 2C4.93354 2 1.59784 5.33571 1.59428 9.43051C1.59428 10.742 1.9364 12.0178 2.58501 13.1475L1.53369 17L5.47524 15.9665C6.56219 16.5581 7.78457 16.8717 9.02833 16.8717H9.0319C13.1267 16.8717 16.4624 13.536 16.466 9.43763C16.4624 7.4526 15.689 5.58517 14.2849 4.18104ZM9.02833 15.6137C7.91643 15.6137 6.82948 15.3143 5.88151 14.7512L5.65699 14.6158L3.31915 15.2288L3.94281 12.948L3.79669 12.7128C3.1766 11.7292 2.85229 10.5923 2.85229 9.42694C2.85229 6.02708 5.62492 3.25445 9.0319 3.25445C10.6819 3.25445 12.2322 3.8995 13.4011 5.06486C14.5665 6.23379 15.2079 7.78403 15.2079 9.43407C15.2044 12.8446 12.4317 15.6137 9.02833 15.6137ZM12.4175 10.9879C12.2322 10.8952 11.3198 10.4462 11.1488 10.382C10.9777 10.3215 10.853 10.2894 10.7318 10.4747C10.6071 10.66 10.2507 11.0805 10.1438 11.2017C10.0369 11.3264 9.92641 11.3407 9.74109 11.248C9.55577 11.1554 8.95706 10.9594 8.24786 10.325C7.69548 9.83322 7.32484 9.22381 7.21437 9.03849C7.10745 8.85317 7.20367 8.75339 7.29633 8.66073C7.3783 8.57876 7.48165 8.44334 7.57431 8.33642C7.66697 8.22951 7.69904 8.15111 7.75962 8.02637C7.82021 7.90164 7.7917 7.79473 7.74537 7.70207C7.69904 7.60941 7.32841 6.69351 7.1716 6.32288C7.02192 5.95937 6.86868 6.00927 6.75464 6.0057C6.64772 5.99858 6.52299 5.99857 6.39826 5.99857C6.27353 5.99857 6.07395 6.0449 5.90289 6.23022C5.73183 6.41554 5.25428 6.86458 5.25428 7.78047C5.25428 8.69637 5.92071 9.57662 6.01337 9.70136C6.10603 9.82609 7.32128 11.7006 9.18514 12.5061C9.62705 12.6985 9.97274 12.8125 10.2436 12.8981C10.6891 13.0406 11.0918 13.0192 11.4125 12.9729C11.7689 12.9195 12.5102 12.5239 12.667 12.0891C12.8202 11.6543 12.8202 11.2837 12.7739 11.2053C12.7275 11.1269 12.6028 11.0805 12.4175 10.9879Z" fill="#E37119"/>
</svg>
