<svg width="150" height="45" viewBox="0 0 150 45" fill="none" xmlns="http://www.w3.org/2000/svg">
<path d="M149.923 23.5949C149.841 23.2935 149.705 23.047 149.35 23.0196C149.022 22.9922 148.831 23.2113 148.721 23.4853C148.558 23.8414 148.503 24.2524 148.394 24.6359C148.203 25.4304 148.011 26.2248 147.574 26.9097C147.028 27.7864 146.127 27.7864 145.526 26.9645C145.199 26.4988 145.035 25.9783 144.898 25.4304C144.57 24.1154 144.543 22.773 144.516 21.4306C144.461 18.9103 144.543 16.3625 144.68 13.8421C144.734 13.0202 144.407 12.4723 143.751 12.034C143.068 11.6231 142.358 11.3491 141.594 11.1299C140.611 10.856 139.928 11.1847 139.518 12.1162C138.371 14.8557 137.47 17.6501 136.924 20.554C136.842 20.9375 136.787 21.3211 136.705 21.6772C136.569 21.0197 136.487 20.3896 136.432 19.7321C136.268 17.7049 136.241 15.6502 136.214 13.6229C136.186 12.7463 135.777 12.0888 135.039 11.6231C134.684 11.4039 134.275 11.2669 133.865 11.1299C132.527 10.7738 131.981 11.0204 131.38 12.2532C130.779 13.486 130.369 14.8009 129.932 16.0885C129.632 16.9652 129.332 17.8692 129.031 18.7459C128.977 18.6089 128.977 18.4719 128.977 18.3623V12.5271C128.977 12.1162 128.895 11.7052 128.485 11.5683C127.638 11.2943 126.765 11.0204 125.836 11.0478C125.454 11.0478 125.263 11.2669 125.208 11.6505C125.181 11.8422 125.181 12.034 125.181 12.1984C125.153 15.4858 125.071 18.7733 125.099 22.0607C125.099 23.6497 124.607 25.0194 123.87 26.3892C123.679 26.7454 123.433 27.0741 123.105 27.3481C122.395 27.9508 121.521 27.759 121.084 26.9645C120.92 26.6358 120.811 26.307 120.729 25.9509C120.483 24.7181 120.429 23.4579 120.429 22.2251C120.401 19.102 120.538 15.9789 120.62 12.8833C120.62 12.4723 120.511 12.1436 120.156 11.9518C119.336 11.4861 118.462 11.2943 117.561 11.3217C116.988 11.3491 116.687 11.7052 116.687 12.2806V12.8285C116.578 12.6641 116.523 12.6093 116.469 12.5271C114.666 10.1711 111.58 9.97933 109.532 12.0888C108.768 12.8559 108.194 13.7873 107.757 14.7735C106.501 17.6775 106.282 20.7458 106.692 23.8688C106.883 25.1838 106.637 26.2522 105.763 27.2111C105.081 27.9508 104.125 27.8412 103.524 27.0467C103.196 26.6084 103.005 26.1153 102.869 25.5947C102.377 23.6771 102.432 21.732 102.677 19.8143C102.869 18.3076 103.224 16.8556 103.551 15.4036C103.661 14.8831 103.77 14.39 103.633 13.8695C103.415 12.938 102.677 12.4449 101.558 12.4723C100.793 12.4723 100.056 12.7463 99.2911 12.8559C98.5537 12.9654 97.8437 13.1024 97.079 13.2394C97.1609 12.7189 97.2429 12.2532 97.2156 11.7874C97.1609 10.9656 96.6148 10.3629 95.7955 10.2533C94.4846 10.0615 93.3922 10.6642 92.846 11.8696C92.2452 13.2394 92.4637 14.527 93.4742 15.4036C93.6653 15.568 93.6926 15.705 93.638 15.9515C92.7914 19.239 91.2894 22.2251 89.3777 25.0194C89.3504 25.0742 89.3231 25.1564 89.2138 25.1016V24.8825C89.2138 20.8553 89.2138 16.8282 89.3504 12.8285C89.3777 12.4175 89.2412 12.1162 88.8861 11.9518C88.1215 11.5683 87.3295 11.3765 86.4829 11.3765C85.7728 11.3765 85.4178 11.76 85.4178 12.4723C85.4178 12.5819 85.4451 12.6915 85.3632 12.8285C85.2266 12.6641 85.0901 12.4997 84.9536 12.3353C83.2057 10.3081 80.3382 10.1711 78.3992 12.0066C77.7438 12.6093 77.2522 13.3216 76.8426 14.116C75.2859 17.1569 74.9582 20.3896 75.3133 23.7045C75.4771 25.0742 75.0948 26.1974 74.2755 27.2111C73.5654 28.0877 72.4457 27.9234 71.9542 26.9097C71.8449 26.6632 71.7357 26.3892 71.6811 26.1153C71.3534 24.8277 71.3261 23.5401 71.2988 22.2251C71.2714 19.1294 71.408 16.0337 71.5172 12.9654C71.5445 12.4723 71.3534 12.1436 70.9437 11.9244C70.1791 11.5409 69.3598 11.3491 68.5132 11.3765C67.9397 11.3765 67.5846 11.76 67.5573 12.3353V12.9106C67.4208 12.7189 67.3389 12.6367 67.2842 12.5271C65.6184 10.4177 62.8328 10.1163 60.7846 11.8422C59.7195 12.7463 59.0094 13.9243 58.4906 15.1845C57.6986 17.1022 57.4528 19.1294 57.3708 21.1841C57.3162 23.047 56.6062 24.6085 55.5138 26.0605C55.1861 26.4988 54.8038 26.8549 54.2849 27.0741C53.766 27.2933 53.3837 27.1837 53.0559 26.7454C52.8102 26.4166 52.6463 26.0331 52.5371 25.6221C52.2093 24.4441 52.1274 23.2113 52.1274 21.9785C52.1274 18.1706 52.264 14.39 52.4278 10.582C52.4278 10.3081 52.5644 10.2807 52.7828 10.2807C54.2029 10.2807 55.5957 10.2533 57.0158 10.2259C57.7805 10.1985 57.917 10.0889 58.1628 9.37663C58.2174 9.21226 58.2721 9.02049 58.2994 8.82873C58.4632 7.92468 58.2994 7.70551 57.3982 7.65072C55.8961 7.56854 54.3941 7.45895 52.8921 7.40416C52.619 7.37677 52.5097 7.32198 52.5371 6.99323C52.619 5.62346 52.6463 4.22629 52.7009 2.82912C52.7282 2.25382 52.6463 2.11684 52.1274 1.89768C51.3354 1.54154 50.5161 1.34977 49.6968 1.21279C48.8229 1.07581 48.4679 1.34977 48.4133 2.19903C48.2768 3.70578 48.2768 5.23992 48.2221 6.74667C48.2221 7.13021 48.0856 7.185 47.7306 7.185C46.6109 7.13021 45.4912 7.10281 44.3988 7.04802C44.1803 7.04802 43.9618 7.07542 43.8526 7.26719C43.4156 7.95207 43.1972 8.71914 43.3064 9.54101C43.361 9.89715 43.5249 10.0341 43.9072 10.0341C45.1635 10.0615 46.3924 10.1163 47.6486 10.1437C47.949 10.1437 48.0037 10.2533 48.0037 10.5272C47.9764 13.4312 47.9763 16.3351 47.949 19.239C47.949 19.376 47.949 19.513 47.9217 19.6225C47.5667 21.3484 46.802 22.8826 45.655 24.225C45.4092 24.4989 45.1362 24.7455 44.8084 25.0742C44.9996 24.1428 44.9723 23.3209 44.7265 22.5265C44.2896 21.1841 43.3883 20.1978 42.2959 19.3486C41.1489 18.4719 40.0019 17.5953 38.8549 16.746C38.6638 16.609 38.6092 16.5542 38.8003 16.3351C39.2919 15.7872 39.6742 15.1297 40.0293 14.4722C40.3843 13.7873 40.712 13.075 40.712 12.2806C40.712 11.4313 40.2477 10.8834 39.4284 10.719C37.7626 10.3903 36.124 11.1847 35.1681 12.7463C34.2123 14.3352 34.2669 15.8968 35.3593 17.3213C35.5232 17.5131 35.5232 17.6501 35.4139 17.8692C34.4854 19.6499 33.5023 21.4032 32.4645 23.1292C31.891 24.088 31.3721 25.0468 30.5801 25.8413C30.3343 26.0879 30.0339 26.3892 29.6516 26.2796C29.242 26.1701 29.2147 25.7317 29.16 25.403C29.0235 24.6359 28.9962 23.8688 28.9962 23.1018C28.9689 20.0883 29.1327 17.0748 29.242 14.0887C29.2693 13.2668 28.9416 12.6367 28.2861 12.171C27.7946 11.8148 27.2484 11.5409 26.7022 11.2669C26.0467 10.9656 25.364 10.9656 24.6813 11.1847C24.1624 11.3491 23.6981 11.6505 23.2885 12.0066C22.3053 12.8833 21.6226 14.0065 21.0218 15.1571C20.1479 16.8556 19.6017 18.6637 18.9462 20.4444C18.8916 20.554 18.9189 20.7457 18.7824 20.7731V12.4723C18.7824 12.034 18.6185 11.76 18.2362 11.5957C17.5535 11.2943 16.8434 11.0478 16.106 10.993C15.3414 10.9382 15.1229 11.1299 15.1229 11.897C15.0956 15.4036 15.0683 18.9377 15.0683 22.4443C15.0683 23.8688 15.041 25.2934 15.0683 26.718C15.0683 27.5124 15.0956 28.2795 15.4506 29.0192C15.6418 29.4575 15.9695 29.8136 16.4611 29.9232C17.0073 30.0328 17.5534 30.0876 18.127 30.0054C18.8097 29.9232 18.9462 29.7589 19.0282 29.074C19.5744 25.2112 20.6667 21.4854 22.4146 17.9788C23.07 16.6638 23.8347 15.431 24.8724 14.3626C24.9544 14.2804 25.0636 14.1434 25.2001 14.1982C25.3367 14.253 25.2821 14.4174 25.2821 14.527C25.2548 15.5954 25.2001 16.6638 25.1455 17.7323C25.0636 20.28 24.8178 22.8278 25.0363 25.403C25.1182 26.444 25.2274 27.485 25.6644 28.4713C26.2652 29.841 27.4668 30.3342 28.8596 29.8136C29.4604 29.5945 29.952 29.2383 30.4436 28.8274C31.7271 27.7042 32.683 26.307 33.5569 24.8551C34.6766 22.9922 35.769 21.1293 36.8886 19.2664C36.9433 19.1568 36.9979 18.9103 37.2164 19.1294C38.1995 20.0883 39.3192 20.9375 40.1658 22.0333C40.8485 22.91 41.2309 23.8962 41.1489 25.0194C41.0124 26.8001 39.6196 27.5946 38.0357 26.7728C37.7626 26.6358 37.4895 26.444 37.2164 26.2522C36.9706 26.0879 36.7248 25.8961 36.479 25.7317C36.0147 25.4304 35.6597 25.4578 35.2501 25.8139C34.7858 26.1974 34.4581 26.6906 34.2396 27.2385C33.8846 28.1699 34.0211 28.5808 34.8951 29.074C35.687 29.5123 36.5336 29.7315 37.4075 29.8684C39.92 30.3068 42.2686 29.9232 44.3169 28.3069C45.5731 27.3207 46.5016 26.0331 47.239 24.6085C47.5121 24.1154 47.7579 23.5949 48.0037 23.0744C48.1129 23.1566 48.0856 23.2661 48.1129 23.3757C48.1675 24.0332 48.2767 24.6907 48.4406 25.3482C48.741 26.581 49.178 27.7316 50.0246 28.6904C51.1989 29.978 53.4656 30.7177 55.2953 28.9096C56.0873 28.1151 56.7154 27.2385 57.207 26.2248C57.3709 25.8687 57.5347 25.4852 57.7259 25.1016C57.8897 25.54 58.0263 25.9509 58.1628 26.3618C58.3267 26.7728 58.5179 27.1563 58.7363 27.5398C59.856 29.4027 61.6585 30.252 63.6794 29.8958C65.3179 29.5945 66.6015 28.663 67.5573 27.3207C67.8031 26.9919 68.0216 26.6358 68.2674 26.2522C68.677 28.3343 69.824 29.7315 71.9542 29.9506C74.1389 30.1424 75.3406 28.7452 76.2145 26.9371C76.2964 27.1015 76.351 27.2111 76.433 27.3207C77.4161 29.0466 78.8635 30.115 80.9117 30.0054C82.5503 29.9232 83.8612 29.1562 84.9536 27.9234C85.172 27.6768 85.3632 27.4302 85.5817 27.1563C85.609 27.1563 85.6363 27.1563 85.6909 27.1837C85.6909 27.622 85.6636 28.0877 85.6909 28.5261C85.7182 28.8274 85.609 29.0192 85.3905 29.2109C83.6973 30.7725 81.9495 32.2792 80.3655 33.9504C79.4097 34.964 78.5358 36.005 77.9896 37.32C77.2249 39.1829 77.5526 41.2923 78.8908 42.443C80.2836 43.6484 81.9222 44.0867 83.7246 43.7305C85.9367 43.2922 87.4387 41.8676 88.2853 39.7856C89.0227 37.9501 89.2685 36.005 89.3231 34.0325C89.3777 32.1971 89.3231 30.389 89.2685 28.5535C89.2685 28.2521 89.3504 28.0329 89.5416 27.8138C90.3062 26.9371 91.0163 26.0057 91.6717 25.0194C93.638 22.1703 95.222 19.102 96.369 15.8146C96.4236 15.6502 96.4509 15.4858 96.6967 15.4858C97.516 15.4858 98.3079 15.4584 99.1272 15.431C99.4549 15.431 99.5642 15.5406 99.4823 15.8968C99.3184 16.4995 99.2092 17.1022 99.0999 17.7323C98.6903 20.1157 98.4718 22.4991 98.9087 24.9099C99.1818 26.444 99.7553 27.8412 101.012 28.8822C101.94 29.6493 103.005 30.1424 104.234 29.9506C105.654 29.7315 106.583 28.8548 107.293 27.6768C107.402 27.5124 107.484 27.3481 107.593 27.1289C107.675 27.2933 107.757 27.4302 107.839 27.5398C108.959 29.4027 110.734 30.2794 112.782 29.9232C114.448 29.6219 115.731 28.6904 116.687 27.3207C116.933 26.9919 117.152 26.6358 117.397 26.2248C117.862 28.3069 119.009 29.7041 121.139 29.978C123.242 30.2246 124.307 28.8274 125.126 27.0467C125.181 27.7042 125.235 28.2521 125.29 28.8C125.317 29.1835 125.481 29.4301 125.836 29.5945C126.737 30.0054 127.666 30.0876 128.649 29.9506C129.496 29.841 129.659 29.6767 129.714 28.8274C129.796 27.3481 129.769 25.8413 129.932 24.3619C130.206 21.4854 131.025 18.8007 132.336 16.2255C132.39 16.0885 132.472 15.9789 132.581 15.8694C132.636 15.7872 132.718 15.7324 132.827 15.7598C132.909 15.7872 132.909 15.8968 132.937 15.9515C132.937 16.0337 132.937 16.1159 132.964 16.1981C133.018 18.4993 133.155 20.8005 133.401 23.1018C133.537 24.3346 133.674 25.5673 134.056 26.7454C134.575 28.3343 135.941 28.8548 137.415 28.4439C137.907 28.3069 138.043 28.0603 138.043 27.5672V26.9371C138.289 23.047 139.19 19.3212 140.802 15.7872C140.829 15.705 140.856 15.5954 141.02 15.568V16.1159C140.938 17.4035 140.938 18.6637 140.966 19.9513C140.993 21.8142 141.047 23.6497 141.43 25.4852C141.703 26.8275 142.194 28.0603 143.26 28.9918C144.871 30.4437 147.629 30.6903 149.022 27.9508C149.459 27.1015 149.705 26.1974 149.868 25.266C149.95 24.7455 150.087 24.1702 149.923 23.5949ZM66.9019 24.5537C66.6015 25.4578 66.1646 26.307 65.4545 26.9919C64.3894 27.9508 63.2424 27.7864 62.4778 26.581C61.9043 25.6769 61.7131 24.6359 61.5765 23.5949C61.4946 22.91 61.4673 22.2525 61.4673 21.5676C61.4946 19.7869 61.6312 18.0336 62.2047 16.3351C62.4231 15.705 62.6962 15.1297 63.1332 14.6366C64.2529 13.3216 66.0007 13.5134 66.8473 14.9927C67.3389 15.8694 67.5027 16.8008 67.5846 17.787C67.7212 20.0609 67.612 22.3347 66.9019 24.5537ZM84.4893 25.1016C84.2162 25.8413 83.8339 26.4988 83.233 27.0193C82.1953 27.9508 81.021 27.7864 80.2836 26.6084C79.7374 25.7317 79.5463 24.7455 79.4097 23.7319C79.3005 23.047 79.2731 22.3347 79.3005 21.6224C79.3278 19.8417 79.4916 18.061 80.1197 16.3625C80.3928 15.6228 80.7479 14.9653 81.3214 14.4174C82.5503 13.2942 84.1616 13.5955 84.8443 15.1297C85.1993 15.9515 85.3359 16.8008 85.3905 17.6775C85.5817 20.1978 85.4178 22.6908 84.4893 25.1016ZM85.2266 39.5938C84.9809 40.4157 84.6805 41.2376 83.8612 41.7307C83.0692 42.1964 82.2226 42.3608 81.4306 41.8129C80.6113 41.2649 80.4475 40.4431 80.5567 39.539C80.6386 38.772 80.9117 38.0323 81.2941 37.3748C82.4411 35.2379 84.1616 33.5668 85.9094 31.7861C85.8821 34.4709 85.964 37.0734 85.2266 39.5938ZM115.977 24.5263C115.677 25.4304 115.267 26.2796 114.557 26.9371C113.465 27.9508 112.263 27.7864 111.498 26.4988C110.925 25.54 110.761 24.4989 110.652 23.4031C110.57 22.636 110.543 21.869 110.57 21.1019C110.652 19.376 110.734 17.6501 111.362 16.0063C111.58 15.431 111.881 14.8831 112.318 14.4448C113.465 13.2668 115.131 13.5133 115.923 14.9653C116.442 15.9515 116.605 17.02 116.66 18.1158C116.769 20.3074 116.66 22.4443 115.977 24.5263Z" fill="#252D38"/>
<path d="M11.7812 3.10331C11.7812 2.61019 11.6173 2.22666 11.2077 1.9801C9.84219 1.13084 8.4494 0.774699 6.94737 1.67875C3.34251 3.81559 1.07581 6.99347 0.174596 11.048C-0.480834 13.9793 0.748096 16.6367 3.20596 17.979C3.56098 18.1708 3.94332 18.3352 4.35296 18.39C4.89915 18.4722 5.17225 18.1434 5.0084 17.6229C4.92647 17.3489 4.76261 17.1298 4.59875 16.8832C3.94332 15.8696 3.64291 14.719 3.56099 13.541C3.42444 10.9384 4.05256 8.52761 5.3088 6.28119C5.80037 5.37714 6.42849 4.55527 7.22047 3.89778C7.3024 3.84299 7.38433 3.73341 7.49357 3.7608C7.63011 3.81559 7.63011 3.95257 7.63011 4.06215C7.63011 4.33611 7.65743 4.58267 7.65743 4.85662C7.63012 12.1438 7.5755 19.431 7.54819 26.7182C7.54819 28.5811 7.35702 30.4166 6.75621 32.1973C6.67428 32.4438 6.59235 32.7178 6.56504 32.9644C6.48311 33.4027 6.67428 33.5945 7.11123 33.5397C7.35702 33.5123 7.5755 33.4301 7.79397 33.3205C8.94098 32.7452 9.78758 31.8685 10.4157 30.7727C11.3715 29.0742 11.6719 27.2113 11.7266 25.2936C11.8358 21.6774 11.7812 18.0612 11.7812 14.4724C11.7539 10.6645 11.7539 6.88388 11.7812 3.10331Z" fill="#252D38"/>
</svg>
