<svg width="32" height="32" viewBox="0 0 32 32" fill="none" xmlns="http://www.w3.org/2000/svg">
<rect width="32" height="32" fill="#252D38"/>
<path d="M24.5409 8.25439V23.7456H21.7117V14.2331C21.7117 14.0338 21.7153 13.8203 21.7224 13.5925C21.7366 13.3647 21.758 13.1334 21.7864 12.8985L17.3558 21.3007C17.1138 21.7634 16.7402 21.9947 16.2348 21.9947H15.7864C15.5373 21.9947 15.3167 21.9377 15.1245 21.8239C14.9323 21.7029 14.7793 21.5285 14.6654 21.3007L10.2134 12.8665C10.2348 13.1156 10.2526 13.3576 10.2668 13.5925C10.2811 13.8203 10.2882 14.0338 10.2882 14.2331V23.7456H7.45898V8.25439H9.89316C10.0284 8.25439 10.1494 8.25795 10.2561 8.26507C10.3629 8.27219 10.4554 8.29354 10.5337 8.32913C10.6191 8.3576 10.6939 8.40742 10.7579 8.4786C10.8291 8.54265 10.8967 8.63518 10.9608 8.75618L15.2953 17.0196C15.4305 17.2687 15.5551 17.5249 15.669 17.7883C15.79 18.0516 15.9039 18.3221 16.0106 18.5996C16.1174 18.3149 16.2277 18.0374 16.3416 17.7669C16.4626 17.4964 16.5907 17.2367 16.7259 16.9875L21.0284 8.75618C21.0925 8.63518 21.1601 8.54265 21.2313 8.4786C21.3024 8.40742 21.3772 8.3576 21.4555 8.32913C21.5409 8.29354 21.6334 8.27219 21.7331 8.26507C21.8398 8.25795 21.9644 8.25439 22.1067 8.25439H24.5409Z" fill="white"/>
</svg>
