<svg width="80" height="70" viewBox="0 0 80 70" fill="none" xmlns="http://www.w3.org/2000/svg">
<path d="M20.2419 69.3611C14.2619 69.3611 9.47784 67.2254 5.88981 62.9539C2.47265 58.5116 0.764068 52.7879 0.764068 45.7827C0.764068 36.2146 3.32694 27.5863 8.45269 19.8977C13.7493 12.0382 21.7796 5.46015 32.5437 0.163552L35.3629 4.26414C30.2371 7.33959 25.5385 11.6965 21.2671 17.3348C17.1665 22.8023 15.1162 28.3552 15.1162 33.9935C15.1162 35.5312 15.5433 36.8126 16.3976 37.8378C17.2519 38.6921 18.5333 39.1192 20.2419 39.1192C24.5134 39.1192 28.1014 40.6569 31.006 43.7324C34.0814 46.637 35.6191 50.225 35.6191 54.4965C35.6191 58.7679 34.0814 62.3559 31.006 65.2605C28.1014 67.9943 24.5134 69.3611 20.2419 69.3611ZM64.5796 69.3611C58.5996 69.3611 53.8155 67.2254 50.2275 62.9539C46.8104 58.5116 45.1018 52.7879 45.1018 45.7827C45.1018 36.2146 47.6646 27.5863 52.7904 19.8977C58.087 12.0382 66.1173 5.46015 76.8814 0.163552L79.7006 4.26414C74.5748 7.33959 69.8762 11.6965 65.6048 17.3348C61.5042 22.8023 59.4539 28.3552 59.4539 33.9935C59.4539 35.5312 59.881 36.8126 60.7353 37.8378C61.5896 38.6921 62.871 39.1192 64.5796 39.1192C68.8511 39.1192 72.4391 40.6569 75.3437 43.7324C78.4191 46.637 79.9569 50.225 79.9569 54.4965C79.9569 58.7679 78.4191 62.3559 75.3437 65.2605C72.4391 67.9943 68.8511 69.3611 64.5796 69.3611Z" fill="white" fill-opacity="0.25"/>
</svg>
