<svg width="509" height="207" viewBox="0 0 509 207" fill="none" xmlns="http://www.w3.org/2000/svg">
<path d="M391.582 30.6185C311.32 -9.80109 156.988 -2.96288 77.7683 32.4063C41.6897 48.5147 -24.8383 95.189 15.6443 139.255C22.7843 147.028 31.4634 153.342 40.443 158.806C139.267 218.936 277.101 212.812 383.162 176.834C398.98 171.468 414.545 165.098 428.865 156.44C439.576 149.965 449.93 141.939 458.271 132.573C482.686 105.154 476.308 77.5608 450.039 54.3155C419.583 27.3644 377.934 19.0124 338.636 14.4384C304.273 10.4388 269.952 9.67078 235.426 11.3031C170.674 14.3641 96.0524 19.2346 41.7451 56.0816C18.025 72.1759 -7.45904 106.567 12.8733 134.401C34.9059 164.563 86.8565 174.329 121.799 180.694C216.063 197.864 365.214 189.35 451.076 144.292C460.335 139.433 469.715 134.905 477.998 128.515C484.543 123.467 490.809 117.71 496.245 111.479C534.769 67.3264 448.806 39.565 418.489 34.7975C323.117 19.7996 181.961 -1.8439 94.1282 38.0533" stroke="white" stroke-opacity="0.25" stroke-width="5.20246" stroke-miterlimit="1.5" stroke-linecap="round" stroke-linejoin="round"/>
<path d="M62.3327 104.541C61.9891 104.556 61.7884 104.362 61.7307 103.959C61.7538 103.553 61.8072 103.146 61.891 102.737L61.0039 102.593C59.7807 102.402 59.1403 102.106 59.0825 101.703C59.0606 101.664 59.047 101.583 59.0418 101.462C59.0366 101.341 59.0921 101.217 59.2082 101.09C59.3234 100.944 59.4315 100.868 59.5326 100.864C59.6135 100.86 59.7154 100.876 59.8384 100.912C60.0018 100.945 60.2382 101.026 60.5474 101.155C60.8576 101.303 61.3866 101.362 62.1345 101.33L62.7813 97.9911C63.0488 96.1976 63.3253 94.6164 63.611 93.2474L64.5278 88.4088L63.6169 88.4174C63.3137 88.4304 63.1547 88.2651 63.14 87.9214C63.1192 87.4363 63.6546 87.1704 64.7461 87.1237C65.1121 85.2652 65.4188 83.2068 65.6664 80.9484C65.8981 78.792 66.2584 76.8021 66.7474 74.9789C66.3905 75.1562 66.066 75.3827 65.7741 75.6585C65.6077 76.0301 65.3527 76.2233 65.0091 76.238C64.8878 76.2432 64.7644 76.1978 64.6388 76.102C64.5334 76.0052 64.4764 75.8558 64.4677 75.6536C64.4487 75.209 64.7144 74.7926 65.2648 74.4045C65.8152 74.0164 66.4912 73.7242 67.2928 73.5279C67.4054 73.3206 67.5628 73.2126 67.7649 73.204C67.9064 73.1979 68.0615 73.2723 68.2301 73.427C70.1125 73.4072 71.6461 73.9896 72.8308 75.1741C74.0156 76.3587 74.6516 77.9717 74.739 80.0133C74.7857 81.1048 74.5385 82.1886 73.9973 83.2648C73.4755 84.3199 72.7648 85.2211 71.8653 85.9684C70.9658 86.7157 70.0137 87.1817 69.0091 87.3664C70.1234 87.3795 71.1905 87.7084 72.2104 88.3533C73.2294 88.9779 74.0637 89.7826 74.7134 90.7673C75.3622 91.7318 75.7078 92.7092 75.7502 93.6997C75.8713 96.5296 74.8821 98.7286 72.7824 100.297C70.6828 101.865 67.7026 102.732 63.8418 102.897L63.2038 102.894C63.1553 103.179 63.1354 103.423 63.144 103.625C63.0938 103.871 62.9912 104.077 62.8365 104.246C62.6825 104.435 62.5146 104.533 62.3327 104.541ZM66.0789 87.0362C67.4491 86.8763 68.6876 86.479 69.7944 85.8444C70.9206 85.1887 71.7864 84.3619 72.3917 83.3639C73.0172 82.3651 73.3048 81.2796 73.2546 80.1072C73.1785 78.3284 72.6653 76.9835 71.715 76.0724C70.7647 75.1613 69.5206 74.7184 67.9827 74.7438C67.5518 76.5038 67.1711 78.7273 66.8406 81.4145C66.4969 84.2643 66.243 86.1382 66.0789 87.0362ZM64.6021 101.497C66.7245 101.407 68.5214 101.046 69.993 100.416C71.4839 99.7651 72.6006 98.887 73.343 97.7819C74.0855 96.6769 74.4256 95.3967 74.3633 93.9413C74.3209 92.9509 73.9572 92.0248 73.2723 91.1631C72.6068 90.2803 71.7469 89.5881 70.6926 89.0865C69.6384 88.5849 68.5554 88.3579 67.4437 88.4055C66.7968 88.4331 66.2603 88.4359 65.8341 88.4136C65.1903 91.823 64.7074 94.4964 64.3853 96.434C64.1744 97.6581 64.0426 98.3623 63.9897 98.5468L63.6154 100.446C63.5317 100.855 63.4655 101.202 63.417 101.487C63.7826 101.512 64.1776 101.516 64.6021 101.497Z" fill="#F3F3F3"/>
<path d="M82.3037 83.8205C81.9802 83.8343 81.7136 83.7546 81.5037 83.5814C81.2929 83.3879 81.1823 83.1699 81.1719 82.9273C81.1546 82.523 81.3016 82.1725 81.6129 81.8757C81.9048 81.5999 82.2327 81.4542 82.5966 81.4387C82.7583 81.4317 82.9837 81.493 83.2727 81.6223C83.4 81.7586 83.4706 81.9885 83.4845 82.3119C83.526 83.2822 83.1324 83.785 82.3037 83.8205ZM79.7524 102.277C79.0652 102.306 78.6978 101.765 78.6502 100.653C78.6381 100.37 78.6778 100.115 78.7693 99.8885C78.8557 99.5406 78.9298 99.1425 78.9916 98.6944L79.3594 96.6435L79.8516 93.9494C80.0113 92.9503 80.2063 91.8282 80.4365 90.583C80.4717 90.46 80.5035 90.2562 80.5318 89.9714C80.6967 89.0936 80.7762 88.584 80.7701 88.4425L80.7571 88.1393C80.7502 87.9776 80.6652 87.6471 80.5021 87.1478C80.4917 86.9052 80.563 86.6794 80.7161 86.4704C80.8893 86.2605 81.0972 86.1503 81.3398 86.1399C81.5622 86.1304 81.7607 86.2738 81.9354 86.5701C82.11 86.8663 82.2052 87.1964 82.2207 87.5602C82.2381 87.9645 81.8666 90.1674 81.1064 94.169C80.3462 98.1706 79.9713 100.293 79.9817 100.535C79.9912 100.758 80.097 100.864 80.2991 100.856C80.4002 100.852 80.5765 100.712 80.828 100.438C81.0602 100.185 81.2571 100.055 81.4188 100.049C81.7423 100.035 81.9126 100.23 81.9299 100.634C81.9403 100.877 81.8092 101.125 81.5366 101.38C81.264 101.635 80.9488 101.841 80.591 101.998C80.2341 102.175 79.9546 102.268 79.7524 102.277Z" fill="#F3F3F3"/>
<path d="M88.2114 114.065C87.2412 114.106 86.4083 113.808 85.7127 113.169C85.0382 112.55 84.6793 111.735 84.636 110.724C84.5962 109.795 84.7704 108.896 85.1585 108.029C85.5677 107.181 86.1677 106.295 86.9583 105.37C87.6329 104.572 88.4477 103.737 89.4027 102.866L92.1515 100.379C92.2714 99.8674 92.3697 99.3266 92.4465 98.7563C92.6308 97.8574 92.7715 97.1223 92.8685 96.5512C92.2034 98.9894 91.2804 100.608 90.0997 101.408C89.726 101.667 89.3572 101.805 88.9934 101.82C88.2859 101.85 87.6876 101.593 87.1985 101.046C86.7296 100.5 86.4752 99.7612 86.4354 98.8314C86.3601 97.0728 86.6149 95.2191 87.1997 93.2703C87.7837 91.3013 88.6021 89.6057 89.655 88.1836C90.7475 86.7396 91.9708 85.9886 93.3251 85.9306C93.972 85.9029 94.5954 86.0382 95.1954 86.3365C95.3141 86.2707 95.4442 86.2348 95.5857 86.2287C95.9293 86.214 96.108 86.3683 96.1219 86.6917C96.1366 87.0354 96.0898 87.3614 95.9815 87.6698C95.4787 89.1696 94.6931 93.0508 93.6247 99.3134C93.9394 99.0974 94.3008 98.7883 94.7089 98.3861C94.8065 98.3009 94.9819 98.1415 95.2351 97.9079C95.4875 97.6541 95.6924 97.4732 95.8498 97.3652C96.0072 97.2572 96.1465 97.2006 96.2678 97.1954C96.6114 97.1807 96.7906 97.3452 96.8053 97.6888C96.8165 97.9516 96.7544 98.1567 96.619 98.3043C95.4065 99.308 94.3689 100.142 93.5063 100.807L93.1432 103.678L93.0241 104.442C92.836 105.726 92.6692 106.796 92.5236 107.653C92.3789 108.53 92.1921 109.368 91.963 110.168C91.6266 111.296 91.1395 112.218 90.5019 112.934C89.8845 113.649 89.121 114.026 88.2114 114.065ZM89.0221 100.361C89.4263 100.344 89.8795 100.051 90.3817 99.4826C90.883 98.8941 91.3572 98.1448 91.8043 97.2346C92.2707 96.3034 92.6343 95.3361 92.8951 94.3326C93.2985 92.8776 93.636 91.5367 93.9075 90.3101C94.0793 89.594 94.2922 88.6534 94.5461 87.4882C94.2518 87.2376 93.8622 87.1226 93.377 87.1434C92.5079 87.1806 91.6229 87.7956 90.7222 88.9884C89.8417 90.1804 89.1157 91.6695 88.5442 93.4557C87.992 95.2209 87.7466 96.8211 87.8081 98.2562C87.8695 99.6914 88.2742 100.393 89.0221 100.361ZM87.8736 112.56C88.2981 112.542 88.6779 112.425 89.0128 112.208C89.3487 112.011 89.6582 111.674 89.9415 111.196C90.224 110.698 90.4982 110.008 90.7642 109.126C91.0302 108.243 91.2346 107.344 91.3776 106.426C91.5099 105.732 91.6145 105.1 91.6913 104.53L91.784 103.857C91.7973 103.695 91.8203 103.522 91.8529 103.338C91.8856 103.154 91.9077 102.961 91.9192 102.758L91.979 102.026C90.0682 103.749 88.5956 105.3 87.5612 106.681C86.547 108.061 86.0624 109.276 86.1074 110.327C86.155 111.439 86.4278 112.136 86.9259 112.419C87.1333 112.531 87.4492 112.578 87.8736 112.56Z" fill="#F3F3F3"/>
<path d="M103.37 101.326C101.51 101.406 100.531 100.304 100.434 98.0195C100.359 96.2811 100.47 94.6058 100.765 92.9933C101.08 91.3598 101.515 89.9338 102.071 88.7153C102.646 87.4958 103.286 86.6078 103.992 86.0511C104.54 85.6226 105.057 85.398 105.542 85.3772C106.472 85.3374 107.137 85.5013 107.538 85.8689C107.285 85.171 106.931 84.4571 106.474 83.7274C105.976 82.9792 105.562 82.2983 105.232 81.6847C104.229 80.0063 103.693 78.3687 103.625 76.7719C103.581 75.741 103.744 74.8228 104.114 74.0171C104.504 73.1904 105.043 72.5396 105.732 72.0646C106.419 71.5694 107.208 71.3028 108.097 71.2647C108.906 71.2301 109.648 71.3097 110.325 71.5035C111.184 71.7097 111.818 71.8446 112.225 71.9081C112.653 71.9708 113.16 71.9896 113.747 71.9645C114.757 71.9213 115.551 71.7759 116.128 71.5285C116.128 71.5285 116.337 71.4486 116.755 71.289C116.914 71.2214 117.115 71.1824 117.358 71.172C117.722 71.1565 117.91 71.3003 117.923 71.6035C117.942 72.0482 117.584 72.4381 116.849 72.7733C116.114 73.1086 115.302 73.2952 114.413 73.3333C113.665 73.3653 113.087 73.3596 112.681 73.3163C112.273 73.2528 111.548 73.1016 110.505 72.8627C109.606 72.6784 108.671 72.6071 107.701 72.6486C106.791 72.6875 106.111 73.1115 105.659 73.9206C105.208 74.7297 105.005 75.6699 105.051 76.7412C105.093 77.7115 105.261 78.575 105.557 79.3319C105.852 80.0685 106.422 81.087 107.267 82.3873C108.653 84.4745 109.379 86.3065 109.446 87.8831L109.353 89.254L109.356 89.3146C109.423 90.8913 109.258 92.4576 108.858 94.0138C108.48 95.569 107.951 96.9383 107.273 98.1216C106.614 99.304 105.912 100.164 105.166 100.703C104.615 101.091 104.017 101.299 103.37 101.326ZM103.276 99.8418C103.801 99.8193 104.279 99.6268 104.709 99.2641C105.138 98.8812 105.541 98.3476 105.916 97.6633C106.571 96.4 107.084 94.9098 107.456 93.1929C107.832 91.5568 107.993 90.1222 107.94 88.8892C107.912 88.2222 107.718 87.7242 107.36 87.3953C107.002 87.0664 106.54 86.914 105.974 86.9383C105.448 86.9608 105.01 87.1314 104.659 87.4502C104.328 87.7681 103.927 88.332 103.456 89.142C102.985 89.9721 102.561 91.1749 102.182 92.7504C101.824 94.3048 101.667 95.6176 101.713 96.6889C101.762 97.8209 101.898 98.6352 102.122 99.1319C102.345 99.6285 102.73 99.8652 103.276 99.8418Z" fill="#F3F3F3"/>
<path d="M115.952 113.09C115.285 113.118 114.691 112.971 114.171 112.649C113.671 112.327 113.279 111.908 112.994 111.394C112.709 110.9 112.556 110.4 112.535 109.895C112.483 108.702 112.749 107.567 113.33 106.489C113.913 105.431 114.769 104.382 115.899 103.341C116.326 102.918 117.313 102.076 118.859 100.815L120.296 99.6296L120.418 98.9257L120.59 97.9767C120.671 97.4873 120.727 97.1608 120.761 96.9974L120.908 96.171C120.592 97.2983 120.028 98.3147 119.216 99.2202C118.424 100.125 117.644 100.594 116.876 100.626C116.068 100.661 115.408 100.386 114.897 99.8C114.385 99.1941 114.106 98.3556 114.06 97.2842C113.988 95.5863 114.358 92.8873 115.172 89.1872C115.579 87.3472 115.779 86.3565 115.773 86.215L115.697 85.8537C115.671 85.7131 115.795 85.5357 116.069 85.3214C116.344 85.1072 116.572 84.9962 116.754 84.9884C117.158 84.9711 117.369 85.1645 117.386 85.5688C117.403 85.9731 117.102 87.687 116.482 90.7106C115.862 93.7342 115.575 95.7816 115.621 96.8529C115.666 97.904 115.826 98.5553 116.1 98.8068C116.354 99.0592 116.662 99.1776 117.026 99.1621C117.794 99.1292 118.585 98.4473 119.399 97.1164C120.043 96.0764 120.592 94.6961 121.044 92.9757C121.517 91.2342 121.944 89.4035 122.328 87.4835L122.454 86.8706C122.637 85.9515 122.805 85.3773 122.957 85.1481C123.108 84.8986 123.326 84.7678 123.609 84.7557C123.831 84.7462 123.985 84.8003 124.071 84.9181C124.177 85.0149 124.212 85.1247 124.176 85.2477C123.937 86.7565 123.536 88.9708 122.972 91.8908C122.458 94.5453 122.104 96.6766 121.91 98.2847C121.851 98.3278 122.191 97.9892 122.929 97.2691C123.316 96.8475 123.607 96.5515 123.802 96.3812C123.998 96.2108 124.186 96.1217 124.368 96.114C124.712 96.0993 124.891 96.2637 124.906 96.6073C124.916 96.8499 124.844 97.0555 124.689 97.2241C123.912 97.9864 122.898 98.9006 121.647 99.9666C120.863 105.306 120.101 108.791 119.361 110.423C118.955 111.331 118.328 112.067 117.481 112.629C117.048 112.911 116.538 113.065 115.952 113.09ZM115.89 111.634C116.597 111.604 117.214 111.122 117.741 110.188C118.099 109.565 118.472 108.577 118.86 107.224L119.19 105.722L119.443 104.526L120.008 101.404L119.512 101.881C118.83 102.517 118.158 103.123 117.494 103.698C115.133 105.784 113.991 107.726 114.068 109.525C114.103 110.354 114.403 110.979 114.968 111.4C115.178 111.574 115.485 111.652 115.89 111.634Z" fill="#F3F3F3"/>
<path d="M129.766 112.286C128.796 112.327 127.963 112.029 127.268 111.39C126.593 110.771 126.234 109.956 126.191 108.946C126.151 108.016 126.325 107.117 126.713 106.25C127.123 105.402 127.723 104.516 128.513 103.591C129.188 102.793 130.003 101.958 130.958 101.087L133.706 98.5999C133.826 98.0885 133.925 97.5476 134.001 96.9773C134.186 96.0784 134.326 95.3434 134.423 94.7722C133.758 97.2105 132.835 98.8295 131.655 99.6293C131.281 99.8883 130.912 100.026 130.548 100.041C129.841 100.071 129.243 99.8136 128.753 99.2675C128.284 98.7206 128.03 97.9822 127.99 97.0524C127.915 95.2939 128.17 93.4402 128.755 91.4914C129.339 89.5223 130.157 87.8268 131.21 86.4047C132.302 84.9606 133.526 84.2096 134.88 84.1516C135.527 84.124 136.15 84.2593 136.75 84.5576C136.869 84.4918 136.999 84.4558 137.141 84.4498C137.484 84.435 137.663 84.5894 137.677 84.9128C137.691 85.2564 137.645 85.5824 137.536 85.8908C137.034 87.3906 136.248 91.2718 135.18 97.5344C135.494 97.3184 135.856 97.0093 136.264 96.6071C136.361 96.5219 136.537 96.3625 136.79 96.1289C137.042 95.8751 137.247 95.6942 137.405 95.5863C137.562 95.4783 137.701 95.4217 137.823 95.4165C138.166 95.4018 138.345 95.5662 138.36 95.9099C138.371 96.1726 138.309 96.3778 138.174 96.5253C136.961 97.529 135.924 98.3632 135.061 99.0279L134.698 101.899L134.579 102.663C134.391 103.947 134.224 105.017 134.079 105.874C133.934 106.751 133.747 107.589 133.518 108.389C133.181 109.517 132.694 110.439 132.057 111.155C131.439 111.87 130.676 112.247 129.766 112.286ZM130.577 98.582C130.981 98.5647 131.434 98.2719 131.937 97.7036C132.438 97.1151 132.912 96.3658 133.359 95.4557C133.826 94.5245 134.189 93.5571 134.45 92.5537C134.853 91.0986 135.191 89.7578 135.462 88.5312C135.634 87.815 135.847 86.8744 136.101 85.7093C135.807 85.4586 135.417 85.3437 134.932 85.3644C134.063 85.4017 133.178 86.0167 132.277 87.2095C131.397 88.4015 130.671 89.8906 130.099 91.6768C129.547 93.442 129.301 95.0421 129.363 96.4773C129.424 97.9124 129.829 98.614 130.577 98.582ZM129.429 110.781C129.853 110.763 130.233 110.646 130.568 110.429C130.904 110.232 131.213 109.895 131.496 109.417C131.779 108.919 132.053 108.229 132.319 107.347C132.585 106.464 132.79 105.565 132.932 104.647C133.065 103.953 133.169 103.321 133.246 102.751L133.339 102.078C133.352 101.916 133.375 101.743 133.408 101.559C133.44 101.375 133.463 101.182 133.474 100.979L133.534 100.248C131.623 101.97 130.15 103.521 129.116 104.902C128.102 106.282 127.617 107.497 127.662 108.548C127.71 109.66 127.983 110.357 128.481 110.64C128.688 110.752 129.004 110.799 129.429 110.781Z" fill="#F3F3F3"/>
<path d="M143.813 111.897C143.146 111.925 142.552 111.779 142.032 111.457C141.533 111.134 141.14 110.715 140.855 110.201C140.57 109.707 140.417 109.207 140.396 108.702C140.345 107.509 140.61 106.374 141.192 105.296C141.774 104.238 142.63 103.189 143.76 102.149C144.188 101.725 145.174 100.883 146.72 99.6223L148.158 98.4369L148.279 97.733L148.451 96.784C148.532 96.2946 148.589 95.9681 148.622 95.8047L148.769 94.9782C148.453 96.1056 147.889 97.122 147.077 98.0275C146.285 98.9321 145.506 99.4009 144.738 99.4338C143.929 99.4684 143.269 99.1929 142.758 98.6073C142.246 98.0014 141.967 97.1628 141.921 96.0915C141.849 94.3936 142.219 91.6946 143.033 87.9944C143.44 86.1545 143.641 85.1638 143.635 85.0223L143.558 84.661C143.532 84.5204 143.656 84.343 143.93 84.1287C144.205 83.9145 144.433 83.8034 144.615 83.7957C145.019 83.7783 145.23 83.9718 145.247 84.3761C145.264 84.7804 144.963 86.4943 144.343 89.5179C143.724 92.5415 143.437 94.5889 143.482 95.6602C143.527 96.7113 143.687 97.3626 143.961 97.6141C144.215 97.8665 144.524 97.9849 144.887 97.9693C145.656 97.9365 146.447 97.2546 147.26 95.9237C147.904 94.8836 148.453 93.5034 148.906 91.783C149.378 90.0415 149.806 88.2108 150.189 86.2908L150.315 85.6779C150.498 84.7588 150.666 84.1846 150.818 83.9553C150.97 83.7059 151.187 83.5751 151.47 83.563C151.692 83.5534 151.846 83.6076 151.932 83.7254C152.038 83.8221 152.073 83.932 152.038 84.055C151.798 85.5638 151.397 87.7781 150.834 90.698C150.319 93.3526 149.965 95.4839 149.771 97.092C149.712 97.135 150.052 96.7965 150.79 96.0764C151.177 95.6548 151.468 95.3588 151.664 95.1885C151.859 95.0181 152.047 94.929 152.229 94.9212C152.573 94.9065 152.752 95.071 152.767 95.4146C152.777 95.6572 152.705 95.8628 152.55 96.0314C151.773 96.7937 150.759 97.7079 149.509 98.7739C148.725 104.113 147.963 107.598 147.222 109.23C146.816 110.138 146.189 110.874 145.342 111.437C144.909 111.718 144.399 111.872 143.813 111.897ZM143.751 110.442C144.458 110.411 145.075 109.929 145.602 108.995C145.961 108.373 146.333 107.385 146.721 106.031L147.052 104.529L147.304 103.333L147.869 100.211L147.373 100.688C146.692 101.325 146.019 101.93 145.355 102.506C142.994 104.591 141.852 106.534 141.929 108.333C141.965 109.161 142.265 109.786 142.829 110.208C143.039 110.381 143.346 110.459 143.751 110.442Z" fill="#F3F3F3"/>
<path d="M157.766 98.7241C156.857 98.7631 156.185 98.4476 155.751 97.7776C155.578 97.5218 155.423 97.2044 155.285 96.8256C155.072 96.1057 154.935 95.0383 154.875 93.6233C154.855 93.1584 154.964 92.3843 155.201 91.3009C155.032 91.1461 154.943 90.9676 154.935 90.7655C154.917 90.3612 155.146 90.0274 155.621 89.7641C156.194 88.0183 156.983 86.567 157.986 85.4103C158.99 84.2535 160.077 83.6501 161.25 83.5999C162.018 83.567 162.676 83.8122 163.225 84.3355C163.794 84.8377 164.179 85.5704 164.383 86.5337C164.336 86.8597 164.155 87.1307 163.84 87.3467C163.68 87.394 163.58 87.4186 163.54 87.4203C163.317 87.4298 163.139 87.2957 163.006 87.0179C162.9 86.4352 162.656 85.9394 162.274 85.5305C161.892 85.1216 161.479 84.9266 161.034 84.9457C159.558 85.0088 158.304 86.4598 157.272 89.2985C157.413 89.2925 157.7 89.3713 158.132 89.5351C158.523 89.6803 158.81 89.7491 158.992 89.7413C159.214 89.7318 159.423 89.6519 159.619 89.5018C159.857 89.3701 160.046 89.3013 160.187 89.2952C160.531 89.2805 160.711 89.4652 160.728 89.8492C160.742 90.1929 160.532 90.4854 160.097 90.7267C159.681 90.9471 159.301 91.0646 158.958 91.0793C158.735 91.0888 158.409 91.0218 157.977 90.8782C157.587 90.7532 157.209 90.6782 156.844 90.6534C156.445 92.2297 156.267 93.503 156.308 94.4732C156.354 95.5445 156.477 96.2784 156.676 96.6749C156.895 97.0503 157.338 97.2439 158.007 97.2558C158.452 97.2368 158.803 97.1509 159.059 96.9981L159.803 96.6322C160.147 96.6175 160.327 96.8021 160.343 97.1862C160.359 97.55 160.07 97.8965 159.476 98.2257C158.902 98.5338 158.332 98.6999 157.766 98.7241Z" fill="#F3F3F3"/>
<path d="M177.671 98.0239C177.347 98.0378 177.156 97.8333 177.098 97.4106C177.224 95.6232 177.589 93.7546 178.194 91.8049C178.761 89.9176 179.247 87.7908 179.652 85.4244L178.561 86.8987L177.469 88.3428C176.266 90.0548 175.138 91.3788 174.085 92.315C173.908 92.444 173.709 92.5133 173.486 92.5228C173.264 92.5324 173.068 92.4395 172.897 92.2443C172.727 92.0491 172.561 91.7322 172.401 91.2935C172.26 90.8338 172.114 90.2629 171.963 89.5809L171.399 87.0535L171.219 86.3929C169.761 90.1814 168.772 92.8563 168.252 94.4176C168.199 94.6021 168.136 94.787 168.063 94.9724C168.009 95.1367 167.956 95.3111 167.903 95.4957L167.582 96.5118C167.547 96.6348 167.531 96.7367 167.534 96.8176C167.501 96.981 167.466 97.104 167.429 97.1866C167.512 97.2438 167.558 97.3633 167.565 97.5453C167.572 97.707 167.478 97.873 167.283 98.0434C167.108 98.2129 166.909 98.3024 166.687 98.3119C166.343 98.3266 166.163 98.1419 166.147 97.7579C166.077 96.1206 167.694 91.3128 170.997 83.3345C171.224 82.9603 171.459 82.768 171.701 82.7576C172.166 82.7377 172.409 82.9703 172.43 83.4554C172.439 83.6576 172.39 83.9431 172.284 84.3122C172.3 84.676 172.39 85.1278 172.555 85.6675C172.654 86.0885 172.82 86.8813 173.052 88.0459C173.19 88.9107 173.422 89.8323 173.747 90.8106L175.106 89.2033C177.147 86.7466 178.375 85.145 178.788 84.3982C179.576 82.9268 180.222 82.1802 180.728 82.1586C181.071 82.1438 181.301 82.3061 181.417 82.6454C181.288 84.838 180.819 87.3792 180.012 90.2691C179.186 93.2205 178.677 95.5103 178.483 97.1386C178.433 97.3838 178.32 97.5911 178.145 97.7606C177.991 97.9292 177.832 98.017 177.671 98.0239Z" fill="#F3F3F3"/>
<path d="M187.306 97.6418C186.255 97.6868 185.449 97.3062 184.888 96.4999C184.347 95.6928 184.052 94.7132 184.003 93.561C183.924 91.7216 184.151 89.9299 184.684 88.1858C185.236 86.4206 186.024 84.9491 187.046 83.7713C188.028 82.575 189.166 81.9492 190.459 81.8938C192.319 81.8142 193.309 83.1893 193.43 86.0192C193.491 87.4341 193.32 88.8893 192.919 90.3848C192.517 91.8803 191.967 93.2201 191.268 94.4043C190.59 95.5876 189.867 96.4488 189.101 96.9879C188.511 97.3979 187.912 97.6159 187.306 97.6418ZM187.49 96.267C188.117 96.2402 188.791 95.6646 189.512 94.5402C190.254 93.4149 190.853 92.0325 191.309 90.393C191.786 88.7525 192 87.3664 191.951 86.2344C191.901 85.062 191.799 84.3374 191.646 84.0605C191.511 83.7625 191.351 83.5567 191.163 83.4432C190.976 83.3297 190.691 83.2812 190.307 83.2976C189.882 83.3158 189.444 83.4965 188.993 83.8399C188.089 84.4659 187.323 85.5111 186.698 86.9757C185.718 89.1642 185.271 91.2691 185.358 93.2904C185.417 94.6649 185.852 95.598 186.663 96.0898C186.952 96.2192 187.227 96.2783 187.49 96.267Z" fill="#F3F3F3"/>
<path d="M209.886 96.736C208.046 96.8147 206.363 96.0565 204.837 94.4613C204.093 93.6426 202.948 92.1931 201.401 90.1128L201.393 89.9309C201.382 89.6681 201.483 89.4309 201.697 89.2193C201.909 88.9874 202.127 88.8667 202.349 88.8572C202.531 88.8494 202.656 88.9251 202.724 89.0842C203.63 90.8679 204.747 92.3591 206.074 93.5578C207.401 94.7565 208.803 95.3243 210.278 95.2611C211.469 95.1696 212.584 94.7169 213.622 93.903C214.68 93.0679 215.574 91.9564 216.304 90.5683C217.054 89.1592 217.583 87.5672 217.892 85.7922C218.063 84.1041 218.156 83.199 218.171 83.0768C215.973 85.1959 214.096 86.2888 212.54 86.3554C210.357 86.4489 209.183 84.5854 209.02 80.7651C208.937 78.8247 209.453 75.2689 210.568 70.0978L211.103 67.7056C211.196 67.4991 211.34 67.3208 211.536 67.1707C211.732 67.0206 211.921 66.9416 212.103 66.9338C212.366 66.9225 212.505 67.0887 212.519 67.4324C211.567 72.151 210.987 75.3956 210.779 77.1663C210.625 78.7726 210.57 80.071 210.612 81.0615C210.66 82.1732 210.902 83.1045 211.339 83.8553C211.796 84.6052 212.359 84.9659 213.026 84.9373C213.733 84.9071 214.646 84.4832 215.766 83.6658C216.885 82.8483 217.749 81.9912 218.359 81.0943C219.329 71.5757 220.875 66.7709 222.997 66.6801C223.624 66.6532 223.96 67.1856 224.007 68.2771C224.042 69.1058 223.911 70.286 223.612 71.8176C223.312 73.3289 222.844 74.9285 222.207 76.6163C221.59 78.283 220.813 79.7641 219.876 81.0598L219.595 83.7145C219.066 88.8604 217.394 92.6176 214.58 94.9859C213.29 96.0738 211.725 96.6572 209.886 96.736ZM219.993 78.807C220.905 77.4112 221.614 75.7709 222.121 73.8862C222.627 72.0015 222.842 70.1495 222.764 68.3303C221.248 70.7645 220.324 74.2567 219.993 78.807Z" fill="#F3F3F3"/>
<path d="M228.519 95.9079C228.195 95.9218 228.004 95.7173 227.946 95.2946L228.197 93.3701C228.344 92.0678 228.526 90.6526 228.745 89.1245L228.88 88.0252C229.215 85.4391 229.423 83.9316 229.506 83.5028C229.684 82.4624 229.799 81.5867 229.849 80.8758C229.901 80.6711 230.005 80.4945 230.161 80.3461C230.337 80.1968 230.516 80.1183 230.698 80.1105C230.94 80.1001 231.119 80.2646 231.235 80.6039C231.249 80.9273 231.224 81.2929 231.161 81.7006C231.091 81.9668 231.014 82.527 230.929 83.3812L230.529 86.1017C232.658 82.8515 234.494 80.8187 236.039 80.0033C236.395 79.8058 236.755 79.6993 237.119 79.6837C237.463 79.669 237.847 79.9057 238.273 80.3937C238.719 80.8809 238.951 81.3165 238.967 81.7005C238.981 82.0239 238.911 82.2801 238.757 82.4689C238.603 82.6577 238.415 82.7569 238.193 82.7664C237.889 82.7794 237.604 82.5081 237.338 81.9525C237.316 81.913 237.261 81.8141 237.173 81.6558C237.105 81.4765 237.028 81.3481 236.944 81.2707C236.879 81.1723 236.806 81.1248 236.725 81.1282C236.584 81.1343 236.306 81.2677 235.892 81.5284C235.497 81.7681 234.866 82.3925 233.998 83.4017C233.149 84.3898 232.496 85.2277 232.04 85.9155C232.303 87.8078 232.759 89.469 233.407 90.8993C234.056 92.3296 234.735 93.2928 235.445 93.7889C235.82 94.0361 236.169 94.1528 236.492 94.1389C236.836 94.1242 237.105 94.0216 237.299 93.831C237.514 93.6395 237.673 93.3391 237.777 92.9296C237.921 92.5185 238.044 92.3006 238.144 92.276C238.203 92.233 238.313 92.2081 238.475 92.2011C238.596 92.1959 238.741 92.2606 238.908 92.3952C239.056 92.5306 239.138 92.7904 239.154 93.1744C239.172 93.5787 239.016 93.9701 238.688 94.3487C238.053 95.1251 237.402 95.5276 236.735 95.5562C234.795 95.6392 233.221 94.1068 232.013 90.959C231.49 89.6448 231.149 88.5153 230.987 87.5705C230.929 87.6539 230.723 88.0475 230.369 88.7512L230.034 89.4338C229.785 91.2062 229.551 93.0692 229.331 95.0226C229.32 95.2458 229.228 95.4422 229.053 95.6117C228.879 95.8014 228.7 95.9001 228.519 95.9079Z" fill="#F3F3F3"/>
<path d="M240.741 107.535C240.438 107.548 240.258 107.353 240.2 106.951C240.708 104.62 241.135 102.293 241.481 99.9701L243.08 89.0879C243.709 84.8489 244.134 82.0159 244.357 80.5889L244.328 79.9219C244.32 79.7197 244.402 79.5238 244.577 79.3341C244.751 79.1444 244.959 79.0443 245.202 79.034C245.424 79.0244 245.6 79.108 245.729 79.2848C245.857 79.4413 245.925 79.6206 245.934 79.8227C245.946 80.1057 245.908 80.401 245.82 80.7085L245.716 81.1079C245.682 81.2713 245.667 81.3833 245.669 81.444L245.338 83.6452C246.675 80.8137 248.172 79.3624 249.83 79.2915C250.699 79.2543 251.337 79.4902 251.743 79.9993C252.169 80.4873 252.404 81.2468 252.448 82.2777C252.531 84.2181 252.341 86.1602 251.878 88.1038C251.414 90.0474 250.695 91.6982 249.72 93.0562C248.727 94.4555 247.503 95.1863 246.048 95.2486C245.482 95.2729 245.022 95.171 244.668 94.9432C244.335 94.7347 244.055 94.3518 243.829 93.7945L243.541 95.5989C243.151 97.8431 242.87 99.536 242.696 100.677C242.316 103.164 241.939 105.236 241.564 106.892C241.4 107.304 241.126 107.518 240.741 107.535ZM246.199 93.8145C247.25 93.7695 248.202 93.0605 249.054 91.6875C250.113 89.9209 250.764 87.6351 251.008 84.8301C251.072 83.9566 251.091 83.2065 251.064 82.5799C251.008 81.2661 250.656 80.623 250.009 80.6507C249.363 80.6784 248.645 81.1749 247.856 82.1401C246.778 83.462 245.914 85.038 245.264 86.8682C244.612 88.6781 244.314 90.24 244.371 91.5539C244.437 93.1103 245.047 93.8638 246.199 93.8145Z" fill="#F3F3F3"/>
<path d="M265.043 94.1013C264.578 94.1212 264.133 93.8973 263.708 93.4295C263.302 92.9406 263.087 92.4131 263.063 91.8472C263.01 90.5939 263.252 88.4573 263.791 85.4371C263.333 86.5503 262.724 87.7003 261.964 88.887C261.225 90.0527 260.489 91.0866 259.758 91.9886C259.027 92.8907 258.486 93.4809 258.133 93.7592C257.644 94.1649 257.097 94.3807 256.49 94.4067C255.338 94.456 254.731 93.753 254.668 92.2977C254.608 90.8827 255.068 89.1012 256.05 86.9532C257.03 84.7849 258.225 82.891 259.634 81.2714C261.043 79.672 262.203 78.8529 263.113 78.8139C264.043 78.7741 264.585 79.1559 264.741 79.9593C264.812 80.1992 264.854 80.4607 264.866 80.7437C264.964 80.6787 265.074 80.6436 265.196 80.6384C265.661 80.6185 265.903 80.8309 265.922 81.2756L265.927 81.3969L265.62 82.7466C265.38 83.7693 265.151 85.2777 264.933 87.2715C264.714 89.2654 264.633 90.9193 264.69 92.2332L265.001 92.4021C265.499 92.6845 265.754 92.9773 265.767 93.2805C265.776 93.4827 265.713 93.6676 265.578 93.8354C265.444 94.0032 265.265 94.0918 265.043 94.1013ZM256.665 92.8197C256.888 92.8102 257.066 92.7316 257.202 92.5841C259.188 90.7373 260.913 88.2233 262.377 85.042C263.213 83.285 263.665 82.243 263.732 81.9161C263.756 81.5506 263.767 81.3274 263.764 81.2465C263.755 81.0444 263.697 80.8646 263.589 80.7072C263.481 80.5499 263.346 80.4746 263.184 80.4815C262.982 80.4902 262.723 80.5924 262.408 80.7882C261.617 81.2473 260.696 82.1879 259.643 83.61C258.61 85.0312 257.773 86.525 257.131 88.0915C256.45 89.68 256.135 91.0806 256.187 92.2934C256.203 92.6572 256.362 92.8327 256.665 92.8197Z" fill="#F3F3F3"/>
<path d="M270.886 75.7474C270.562 75.7612 270.296 75.6815 270.086 75.5083C269.875 75.3148 269.764 75.0968 269.754 74.8542C269.736 74.4297 269.873 74.0796 270.165 73.8039C270.477 73.5272 270.815 73.3811 271.179 73.3656C271.3 73.3604 271.525 73.4216 271.855 73.5493C271.982 73.6856 272.055 73.9761 272.074 74.4207C272.093 74.8452 271.985 75.1738 271.752 75.4066C271.518 75.6191 271.229 75.7327 270.886 75.7474ZM274.282 75.602C273.978 75.615 273.712 75.5353 273.482 75.3629C273.271 75.1694 273.16 74.9514 273.15 74.7088C273.133 74.3046 273.28 73.954 273.591 73.6572C273.903 73.3806 274.231 73.2349 274.574 73.2202C274.736 73.2133 274.962 73.2745 275.251 73.4039C275.378 73.5402 275.452 73.8408 275.471 74.3057C275.489 74.71 275.381 75.0285 275.148 75.2612C274.914 75.4737 274.625 75.5873 274.282 75.602ZM270.548 94.1087C269.861 94.1381 269.493 93.5969 269.446 92.4852C269.437 92.2831 269.477 92.0282 269.565 91.7207C269.651 91.3727 269.725 90.9747 269.787 90.5265L270.155 88.4756L270.647 85.7815C270.807 84.7824 271.002 83.6603 271.232 82.4152C271.267 82.2922 271.299 82.0883 271.327 81.8036C271.492 80.9258 271.572 80.4161 271.566 80.2746L271.553 79.9714C271.546 79.8097 271.461 79.4792 271.298 78.9799C271.287 78.7374 271.358 78.5116 271.512 78.3025C271.685 78.0926 271.893 77.9825 272.135 77.9721C272.358 77.9626 272.556 78.1059 272.731 78.4022C272.905 78.6985 273.001 79.0285 273.016 79.3924C273.033 79.7966 272.662 81.9996 271.902 86.0012C271.142 90.0028 270.767 92.1249 270.777 92.3674C270.787 92.5898 270.892 92.6966 271.095 92.688C271.196 92.6837 271.372 92.5445 271.623 92.2705C271.856 92.0175 272.053 91.8876 272.214 91.8807C272.538 91.8668 272.708 92.062 272.725 92.4663C272.736 92.7088 272.605 92.9575 272.332 93.2121C272.059 93.4668 271.744 93.6727 271.386 93.8298C271.03 94.007 270.75 94.1 270.548 94.1087Z" fill="#F3F3F3"/>
<path d="M287.082 93.4312C286.516 93.4554 286.075 93.3224 285.759 93.0322C285.463 92.7411 285.305 92.353 285.284 91.8679C285.262 91.3626 285.356 90.4878 285.566 89.2435L286.107 85.545C284.679 86.7199 283.338 87.3341 282.085 87.3878C281.175 87.4267 280.467 87.214 279.962 86.7497C279.93 86.9535 279.898 87.1574 279.866 87.3613C279.855 87.5643 279.833 87.7677 279.801 87.9716C279.749 88.6421 279.677 89.3235 279.585 90.016C279.324 92.4369 278.83 93.663 278.102 93.6941C277.799 93.7071 277.608 93.5027 277.529 93.0808C277.644 91.4964 277.984 89.0315 278.549 85.6862C279.134 82.3199 279.553 80.0441 279.806 78.8587C279.858 78.654 279.962 78.4774 280.117 78.329C280.293 78.1797 280.472 78.1012 280.654 78.0934C280.897 78.083 281.076 78.2475 281.192 78.5868C281.205 78.9102 281.069 79.9691 280.781 81.7634C280.556 83.1298 280.383 84.3016 280.263 85.2787C280.729 85.765 281.438 85.9879 282.388 85.9472C283.317 85.9074 284.318 85.3988 285.39 84.4214C285.721 84.1035 286.03 83.7662 286.319 83.4096L286.687 81.3587C286.967 79.8684 287.297 78.8316 287.678 78.2484C287.866 77.9163 288.132 77.7429 288.475 77.7282C288.819 77.7135 288.999 77.8982 289.015 78.2822L289.022 78.4338C288.074 82.3017 287.495 85.1008 287.286 86.831C287.086 88.3178 286.964 89.4875 286.919 90.3399C286.887 91.0095 286.862 91.3751 286.845 91.4366L286.831 91.832C286.837 91.9533 286.89 92.0118 286.991 92.0075C287.072 92.004 287.141 91.9707 287.199 91.9074C287.298 91.8425 287.458 91.8052 287.68 91.7957C288.024 91.781 288.204 91.9556 288.219 92.3194C288.249 93.0269 287.87 93.3975 287.082 93.4312Z" fill="#F3F3F3"/>
<path d="M294.296 105.455C293.629 105.483 293.035 105.337 292.515 105.015C292.015 104.692 291.623 104.273 291.337 103.759C291.053 103.265 290.9 102.765 290.878 102.26C290.827 101.067 291.093 99.932 291.674 98.8541C292.257 97.7964 293.113 96.7472 294.243 95.7066C294.67 95.2833 295.657 94.4412 297.203 93.1802L298.64 91.9948L298.762 91.2909L298.934 90.3419C299.014 89.8525 299.071 89.526 299.105 89.3626L299.252 88.5362C298.935 89.6635 298.371 90.6799 297.56 91.5854C296.768 92.49 295.988 92.9588 295.22 92.9917C294.412 93.0263 293.752 92.7508 293.241 92.1652C292.729 91.5593 292.45 90.7208 292.404 89.6494C292.331 87.9515 292.702 85.2525 293.516 81.5524C293.923 79.7124 294.123 78.7217 294.117 78.5802L294.041 78.2189C294.015 78.0783 294.139 77.9009 294.413 77.6866C294.688 77.4724 294.916 77.3614 295.098 77.3536C295.502 77.3363 295.713 77.5297 295.73 77.934C295.747 78.3383 295.446 80.0522 294.826 83.0758C294.206 86.0994 293.919 88.1468 293.965 89.2181C294.01 90.2692 294.17 90.9205 294.444 91.172C294.698 91.4244 295.006 91.5428 295.37 91.5273C296.138 91.4944 296.929 90.8125 297.743 89.4816C298.387 88.4416 298.935 87.0613 299.388 85.3409C299.861 83.5994 300.288 81.7687 300.672 79.8487L300.798 79.2358C300.981 78.3167 301.149 77.7425 301.301 77.5133C301.452 77.2638 301.669 77.133 301.952 77.1209C302.175 77.1114 302.329 77.1655 302.415 77.2833C302.52 77.3801 302.556 77.4899 302.52 77.6129C302.281 79.1217 301.88 81.336 301.316 84.256C300.802 86.9105 300.448 89.0418 300.253 90.6499C300.195 90.693 300.534 90.3544 301.273 89.6343C301.66 89.2127 301.951 88.9167 302.146 88.7464C302.342 88.576 302.53 88.4869 302.712 88.4792C303.056 88.4644 303.235 88.6289 303.25 88.9725C303.26 89.2151 303.188 89.4207 303.033 89.5893C302.256 90.3516 301.242 91.2658 299.991 92.3318C299.207 97.671 298.445 101.156 297.705 102.788C297.299 103.696 296.672 104.432 295.825 104.994C295.392 105.276 294.882 105.43 294.296 105.455ZM294.233 103.999C294.941 103.969 295.558 103.487 296.085 102.553C296.443 101.93 296.816 100.943 297.204 99.5894L297.534 98.0868L297.787 96.8914L298.352 93.7689L297.856 94.2458C297.174 94.8825 296.502 95.4884 295.838 96.0636C293.477 98.1492 292.335 100.091 292.412 101.89C292.447 102.719 292.747 103.344 293.312 103.766C293.522 103.939 293.829 104.017 294.233 103.999Z" fill="#F3F3F3"/>
<path d="M315.255 92.1948C314.931 92.2086 314.74 92.0042 314.682 91.5814L314.934 89.657C315.08 88.3547 315.263 86.9395 315.481 85.4114L315.616 84.3121C315.951 81.7259 316.16 80.2185 316.243 79.7897C316.421 78.7493 316.535 77.8736 316.586 77.1627C316.638 76.958 316.742 76.7814 316.897 76.633C317.073 76.4837 317.252 76.4052 317.434 76.3974C317.676 76.387 317.856 76.5514 317.971 76.8907C317.985 77.2142 317.96 77.5797 317.897 77.9874C317.827 78.2537 317.75 78.8139 317.665 79.668L317.265 82.3886C319.394 79.1384 321.231 77.1056 322.775 76.2902C323.131 76.0927 323.491 75.9862 323.855 75.9706C324.199 75.9559 324.584 76.1925 325.009 76.6806C325.456 77.1677 325.687 77.6033 325.703 77.9874C325.717 78.3108 325.647 78.5669 325.493 78.7558C325.339 78.9446 325.151 79.0438 324.929 79.0533C324.626 79.0663 324.341 78.795 324.074 78.2394C324.052 78.1998 323.997 78.1009 323.909 77.9427C323.841 77.7634 323.764 77.635 323.68 77.5576C323.615 77.4591 323.542 77.4116 323.461 77.4151C323.32 77.4212 323.042 77.5546 322.628 77.8153C322.233 78.0549 321.602 78.6794 320.734 79.6885C319.885 80.6766 319.232 81.5146 318.776 82.2024C319.039 84.0946 319.495 85.7559 320.144 87.1862C320.792 88.6164 321.471 89.5796 322.181 90.0757C322.556 90.3229 322.905 90.4396 323.229 90.4258C323.572 90.4111 323.841 90.3084 324.036 90.1179C324.25 89.9264 324.409 89.626 324.513 89.2165C324.658 88.8053 324.78 88.5875 324.88 88.5629C324.939 88.5199 325.049 88.4949 325.211 88.488C325.332 88.4828 325.477 88.5475 325.645 88.6821C325.792 88.8175 325.874 89.0772 325.891 89.4613C325.908 89.8656 325.753 90.257 325.425 90.6355C324.79 91.412 324.139 91.8145 323.472 91.843C321.531 91.9261 319.957 90.3937 318.749 87.2459C318.227 85.9317 317.885 84.8022 317.723 83.8574C317.666 83.9408 317.46 84.3344 317.105 85.0381L316.77 85.7207C316.522 87.4931 316.288 89.356 316.067 91.3095C316.057 91.5327 315.964 91.729 315.789 91.8985C315.615 92.0882 315.437 92.187 315.255 92.1948Z" fill="#F3F3F3"/>
<path d="M327.478 103.822C327.175 103.835 326.994 103.64 326.936 103.237C327.444 100.907 327.871 98.5803 328.217 96.2569L329.817 85.3748C330.445 81.1358 330.871 78.3028 331.093 76.8758L331.065 76.2087C331.056 76.0066 331.139 75.8107 331.313 75.621C331.487 75.4313 331.695 75.3312 331.938 75.3208C332.16 75.3113 332.336 75.3949 332.465 75.5716C332.593 75.7282 332.662 75.9075 332.67 76.1096C332.682 76.3926 332.644 76.6879 332.556 76.9954L332.452 77.3947C332.418 77.5582 332.403 77.6702 332.406 77.7308L332.075 79.9321C333.411 77.1005 334.908 75.6493 336.566 75.5783C337.435 75.5411 338.073 75.7771 338.48 76.2862C338.905 76.7742 339.14 77.5337 339.185 78.5645C339.268 80.505 339.077 82.4471 338.614 84.3907C338.15 86.3343 337.431 87.9851 336.457 89.3431C335.464 90.7424 334.239 91.4732 332.784 91.5355C332.218 91.5597 331.758 91.4579 331.404 91.2301C331.071 91.0216 330.791 90.6387 330.565 90.0813L330.278 91.8858C329.888 94.13 329.606 95.8229 329.432 96.9643C329.052 99.4511 328.675 101.523 328.301 103.179C328.136 103.591 327.862 103.805 327.478 103.822ZM332.935 90.1014C333.986 90.0564 334.938 89.3474 335.79 87.9744C336.849 86.2078 337.5 83.922 337.745 81.117C337.809 80.2435 337.827 79.4934 337.8 78.8668C337.744 77.5529 337.392 76.9098 336.746 76.9375C336.099 76.9652 335.381 77.4617 334.592 78.427C333.515 79.7489 332.651 81.3249 332 83.155C331.348 84.965 331.051 86.5269 331.107 87.8407C331.174 89.3971 331.783 90.1507 332.935 90.1014Z" fill="#F3F3F3"/>
<path d="M351.779 90.3882C351.314 90.4081 350.869 90.1841 350.444 89.7163C350.039 89.2274 349.824 88.7 349.799 88.134C349.746 86.8808 349.988 84.7441 350.527 81.724C350.069 82.8372 349.46 83.9871 348.701 85.1739C347.961 86.3396 347.226 87.3734 346.495 88.2755C345.764 89.1776 345.222 89.7678 344.869 90.0461C344.38 90.4518 343.833 90.6676 343.226 90.6936C342.074 90.7429 341.467 90.0399 341.405 88.5845C341.344 87.1696 341.805 85.3881 342.786 83.2401C343.766 81.0718 344.961 79.1779 346.37 77.5583C347.78 75.9589 348.939 75.1398 349.849 75.1008C350.779 75.061 351.322 75.4428 351.478 76.2461C351.549 76.4861 351.59 76.7476 351.602 77.0305C351.701 76.9656 351.811 76.9305 351.932 76.9253C352.397 76.9054 352.639 77.1178 352.658 77.5625L352.663 77.6838L352.356 79.0334C352.117 80.0562 351.888 81.5645 351.669 83.5584C351.451 85.5523 351.37 87.2062 351.426 88.52L351.737 88.689C352.235 88.9714 352.491 89.2642 352.504 89.5674C352.512 89.7695 352.449 89.9545 352.315 90.1223C352.18 90.29 352.002 90.3787 351.779 90.3882ZM343.402 89.1066C343.624 89.097 343.803 89.0185 343.938 88.871C345.925 87.0241 347.65 84.5101 349.113 81.3289C349.949 79.5718 350.401 78.5299 350.468 78.203C350.493 77.8374 350.503 77.6142 350.5 77.5334C350.491 77.3312 350.433 77.1515 350.325 76.9941C350.217 76.8367 350.082 76.7615 349.92 76.7684C349.718 76.7771 349.459 76.8793 349.144 77.075C348.353 77.5341 347.432 78.4747 346.379 79.8968C345.346 81.3181 344.509 82.8119 343.867 84.3784C343.186 85.9669 342.871 87.3675 342.923 88.5803C342.939 88.9441 343.098 89.1195 343.402 89.1066Z" fill="#F3F3F3"/>
<path d="M359.288 90.3705C358.318 90.412 357.534 90.0912 356.938 89.4079C356.361 88.7036 356.051 87.8461 356.008 86.8355C355.932 85.0567 356.176 83.2035 356.742 81.2757C357.328 79.3471 358.129 77.7232 359.146 76.4039C360.162 75.0846 361.267 74.3994 362.46 74.3483C363.329 74.3111 363.908 74.6002 364.198 75.2156C364.263 75.314 364.318 75.423 364.364 75.5426C364.408 75.6419 364.453 75.7413 364.498 75.8406C364.611 76.1193 364.719 76.2766 364.822 76.3127C364.911 76.5114 364.958 76.6613 364.963 76.7623C364.97 76.9443 364.887 77.12 364.712 77.2895C364.557 77.4581 364.379 77.5467 364.176 77.5554C363.752 77.5736 363.466 77.2719 363.318 76.6505C363.169 76.0291 362.823 75.7301 362.277 75.7534C361.549 75.7846 360.805 76.3834 360.045 77.55C359.284 78.6963 358.647 80.1411 358.135 81.8843C357.638 83.5256 357.417 84.983 357.471 86.2564C357.549 88.0554 358.244 88.9268 359.558 88.8705C360.225 88.842 360.828 88.5023 361.367 87.8514C361.424 87.768 361.53 87.6319 361.684 87.443C361.837 87.234 361.982 87.086 362.12 86.9991C362.258 86.8919 362.387 86.8358 362.508 86.8306C362.892 86.8141 363.091 86.9777 363.106 87.3214C363.123 87.7256 362.95 88.1684 362.586 88.6498C362.221 89.1109 361.742 89.5061 361.148 89.8352C360.555 90.1644 359.935 90.3428 359.288 90.3705Z" fill="#F3F3F3"/>
<path d="M375.836 89.6013C375.614 89.6109 375.363 89.4393 375.085 89.0867C374.826 88.7131 374.69 88.3847 374.678 88.1017L374.656 87.5863C374.629 86.9597 374.983 85.0511 375.717 81.8607L376.04 80.1762L375.295 81.9395C375.061 82.6178 374.677 83.5759 374.143 84.8137C372.784 88.0715 371.255 89.7367 369.557 89.8094C368.546 89.8526 367.835 89.3262 367.424 88.23C367.307 87.8705 367.237 87.4179 367.214 86.8721C367.166 85.7402 367.316 84.2859 367.665 82.5091C367.864 81.4881 368.035 80.7315 368.175 80.2395L368.384 79.4408C368.574 78.6632 368.761 77.8451 368.947 76.9866C369.153 76.1071 369.256 75.4445 369.257 74.999C369.309 74.7942 369.413 74.6177 369.569 74.4693C369.745 74.32 369.934 74.241 370.136 74.2324C370.338 74.2237 370.511 74.4796 370.655 74.9999C370.677 75.5255 370.604 76.1766 370.434 76.9534C370.264 77.7099 370.091 78.3856 369.914 78.9804C369.757 79.5744 369.662 79.9531 369.628 80.1166C368.911 82.7595 368.594 85.0412 368.676 86.9614C368.702 87.5678 368.952 87.9824 369.428 88.205C369.593 88.2789 369.817 88.3099 370.1 88.2977C370.666 88.2735 371.319 87.6786 372.059 86.5129C372.741 85.4306 373.423 84.0852 374.103 82.4765C374.784 80.8679 375.329 79.4068 375.738 78.0932C376.164 76.6777 376.524 75.6396 376.82 74.979C377.116 74.3183 377.455 73.9798 377.84 73.9633C378.183 73.9486 378.362 74.1131 378.377 74.4567C378.388 74.7195 378.257 75.444 377.984 76.6302C377.723 77.6336 377.551 78.3497 377.469 78.7785C377.385 79.1871 377.288 79.7684 377.179 80.5223L376.628 84.677L376.368 86.4195C376.356 86.6023 376.317 86.8773 376.251 87.2446C376.268 87.6287 376.339 87.8788 376.466 87.9948L376.754 88.347C376.818 88.405 376.853 88.5351 376.862 88.7373C376.871 88.9394 376.757 89.1265 376.522 89.2986C376.307 89.49 376.078 89.591 375.836 89.6013Z" fill="#F3F3F3"/>
<path d="M384.477 89.2314C384.072 89.2487 383.679 89.0529 383.297 88.644C382.935 88.2343 382.628 87.6804 382.376 86.9825C382.143 86.2837 382.01 85.5401 381.976 84.7518C381.935 83.7815 381.933 82.7894 381.97 81.7752C381.665 81.7478 381.507 81.5825 381.494 81.2793C381.491 81.2186 381.506 81.1066 381.54 80.9431L382.101 79.856C382.411 76.6837 383.123 72.512 384.238 67.3409C385.041 63.864 386.061 61.4308 387.297 60.0413C387.703 59.5785 388.098 59.3388 388.482 59.3224C389.876 59.2627 390.61 60.0818 390.683 61.7797C390.774 63.9021 389.938 66.3679 388.174 69.1772C387.683 69.988 387 71.0804 386.128 72.4542C385.216 73.8703 384.532 75.1551 384.075 76.3087C383.984 76.5353 383.849 76.693 383.67 76.7816L383.604 77.3616C385.457 74.7712 387.172 73.4423 388.749 73.3748C389.376 73.348 389.835 73.6624 390.126 74.3182C390.416 74.9538 390.58 75.7062 390.617 76.5753C390.678 77.9903 390.437 79.7016 389.896 81.7093C389.373 83.696 388.695 85.3552 387.861 86.6869C386.797 88.3322 385.669 89.1804 384.477 89.2314ZM385.187 71.7655C385.717 70.8923 386.076 70.2897 386.264 69.9576L386.747 69.1776C388.463 66.2285 389.288 63.9758 389.222 62.4194C389.2 61.914 389.154 61.5414 389.083 61.3014C389.011 61.0413 388.854 60.9164 388.611 60.9267C388.166 60.9458 387.667 61.5747 387.112 62.8134C386.021 65.2294 385.04 68.8051 384.169 73.5405L385.187 71.7655ZM384.716 87.7328C385.464 87.7008 386.185 87.0421 386.879 85.7569C387.594 84.4708 388.174 82.8766 388.619 80.9742C389.027 79.1545 389.213 77.8302 389.178 77.0015C389.14 76.1121 389.066 75.5786 388.957 75.401C388.847 75.183 388.589 75.0826 388.185 75.1C387.457 75.1311 386.697 75.5889 385.905 76.4733C385.132 77.3367 384.275 78.6086 383.334 80.2892C383.263 81.4465 383.248 82.5204 383.29 83.5109C383.412 86.361 383.888 87.7683 384.716 87.7328Z" fill="#F3F3F3"/>
<path d="M398.292 88.6096C397.241 88.6546 396.435 88.274 395.874 87.4677C395.333 86.6606 395.038 85.681 394.989 84.5288C394.91 82.6894 395.137 80.8977 395.67 79.1536C396.222 77.3884 397.01 75.9169 398.033 74.7391C399.014 73.5428 400.152 72.917 401.446 72.8616C403.305 72.782 404.296 74.1571 404.417 76.987C404.477 78.4019 404.307 79.8571 403.905 81.3526C403.503 82.8481 402.953 84.1879 402.255 85.3721C401.576 86.5554 400.854 87.4166 400.087 87.9557C399.497 88.3657 398.899 88.5836 398.292 88.6096ZM398.477 87.2348C399.103 87.208 399.777 86.6324 400.499 85.508C401.24 84.3827 401.839 83.0003 402.295 81.3608C402.772 79.7203 402.986 78.3341 402.938 77.2022C402.887 76.0298 402.785 75.3052 402.632 75.0282C402.498 74.7302 402.337 74.5245 402.15 74.411C401.963 74.2975 401.677 74.249 401.293 74.2654C400.869 74.2836 400.431 74.4643 399.98 74.8077C399.075 75.4336 398.31 76.4789 397.684 77.9435C396.704 80.132 396.258 82.2369 396.344 84.2582C396.403 85.6327 396.838 86.5658 397.649 87.0576C397.938 87.187 398.214 87.2461 398.477 87.2348Z" fill="#F3F3F3"/>
<path d="M408.176 88.2776C407.813 88.2932 407.623 88.1292 407.609 87.7855C407.603 87.644 407.661 87.3479 407.783 86.8972C408.045 85.914 408.352 84.3415 408.705 82.1799L409.373 77.2001C409.453 76.7106 409.523 75.9685 409.581 74.9738C409.682 73.0659 410.086 72.0969 410.793 72.0666C411.198 72.0493 411.412 72.3337 411.437 72.9199C411.404 73.0833 411.34 73.238 411.245 73.3838C411.055 74.6272 410.948 75.4316 410.923 75.7972C410.848 76.4079 410.725 77.0916 410.555 77.8481C410.419 78.4614 410.312 79.033 410.233 79.5629C410.89 79.2918 411.673 79.1368 412.583 79.0978L414.526 79.0754C414.922 77.4586 415.699 75.7345 416.856 73.9029C417.578 72.7988 418.788 72.2103 420.486 72.1376C421.032 72.1143 421.534 72.2548 421.993 72.5592C422.451 72.8635 422.733 73.297 422.838 73.8595C422.966 74.016 423.053 74.154 423.099 74.2736C423.137 76.5805 423.005 78.4694 422.703 79.9403C422.401 81.3911 421.981 82.705 421.445 83.8823C420.495 85.8265 419.321 87.0209 417.923 87.4655C417.263 87.676 416.752 87.789 416.388 87.8046C415.701 87.834 415.149 87.483 414.733 86.7515C414.337 86.0192 414.114 85.0568 414.063 83.8642C414.018 82.8131 414.08 81.6764 414.251 80.4541L412.733 80.4887C412.228 80.5103 411.705 80.5833 411.163 80.7077C410.663 80.8507 410.395 80.9735 410.359 81.0763C410.283 81.2011 410.156 81.3077 409.978 81.3964C409.917 81.8648 409.88 82.1903 409.868 82.3731C409.716 83.5541 409.566 84.5528 409.419 85.3691C409.291 86.1644 409.104 87.0026 408.858 87.8839C408.687 88.1343 408.459 88.2655 408.176 88.2776ZM416.971 86.5342C417.578 86.5082 418.288 86.0627 419.101 85.1976C419.914 84.3123 420.482 83.397 420.806 82.4516C421.148 81.4447 421.388 80.4219 421.525 79.3833C421.662 78.3244 421.73 76.8331 421.729 74.9094C421.665 74.8513 421.59 74.7432 421.502 74.5849C421.451 73.8581 421.061 73.5103 420.334 73.5414C419.121 73.5934 418.132 74.1521 417.368 75.2175C416.624 76.2822 416.095 77.6616 415.783 79.3557C415.508 80.9673 415.398 82.4098 415.452 83.6832C415.535 85.6237 416.042 86.574 416.971 86.5342Z" fill="#F3F3F3"/>
<path d="M438.177 68.5858C437.853 68.5996 437.587 68.5199 437.377 68.3466C437.166 68.1532 437.055 67.9351 437.045 67.6926C437.028 67.2883 437.175 66.9378 437.486 66.6409C437.778 66.3652 438.106 66.2195 438.47 66.2039C438.631 66.197 438.857 66.2582 439.146 66.3876C439.273 66.5239 439.344 66.7538 439.357 67.0772C439.399 68.0474 439.005 68.5503 438.177 68.5858ZM435.625 87.0418C434.938 87.0712 434.571 86.53 434.523 85.4183C434.511 85.1353 434.551 84.8805 434.642 84.6538C434.729 84.3059 434.803 83.9078 434.865 83.4597L435.232 81.4088L435.725 78.7147C435.884 77.7155 436.079 76.5934 436.309 75.3483C436.345 75.2253 436.376 75.0214 436.405 74.7367C436.57 73.8589 436.649 73.3492 436.643 73.2077L436.63 72.9045C436.623 72.7428 436.538 72.4123 436.375 71.9131C436.365 71.6705 436.436 71.4447 436.589 71.2357C436.762 71.0257 436.97 70.9156 437.213 70.9052C437.435 70.8957 437.634 71.0391 437.808 71.3353C437.983 71.6316 438.078 71.9617 438.094 72.3255C438.111 72.7298 437.74 74.9327 436.979 78.9343C436.219 82.9359 435.844 85.058 435.855 85.3006C435.864 85.5229 435.97 85.6298 436.172 85.6211C436.273 85.6168 436.449 85.4776 436.701 85.2036C436.933 84.9506 437.13 84.8207 437.292 84.8138C437.615 84.7999 437.786 84.9951 437.803 85.3994C437.813 85.642 437.682 85.8906 437.41 86.1453C437.137 86.3999 436.822 86.6058 436.464 86.7629C436.107 86.9402 435.828 87.0331 435.625 87.0418Z" fill="#F3F3F3"/>
<path d="M73.9606 140.59C73.3946 140.614 72.9535 140.481 72.6374 140.191C72.3414 139.9 72.183 139.511 72.1623 139.026C72.1406 138.521 72.2348 137.646 72.4448 136.402L72.9851 132.703C71.5571 133.878 70.2165 134.493 68.9633 134.546C68.0537 134.585 67.3459 134.372 66.8401 133.908C66.8083 134.112 66.7765 134.316 66.7447 134.52C66.7332 134.723 66.7115 134.926 66.6797 135.13C66.6274 135.8 66.5554 136.482 66.4635 137.174C66.2026 139.595 65.7084 140.821 64.9807 140.853C64.6775 140.866 64.4865 140.661 64.4077 140.239C64.5221 138.655 64.8621 136.19 65.4276 132.845C66.0125 129.478 66.4315 127.202 66.6845 126.017C66.7365 125.812 66.8403 125.636 66.996 125.487C67.1718 125.338 67.3507 125.26 67.5326 125.252C67.7752 125.241 67.9544 125.406 68.0701 125.745C68.084 126.069 67.9471 127.127 67.6594 128.922C67.4344 130.288 67.2618 131.46 67.1416 132.437C67.6079 132.923 68.3161 133.146 69.2661 133.106C70.1959 133.066 71.1968 132.557 72.2687 131.58C72.5994 131.262 72.9089 130.925 73.1974 130.568L73.5653 128.517C73.8457 127.027 74.176 125.99 74.556 125.407C74.7443 125.075 75.0102 124.901 75.3539 124.887C75.6975 124.872 75.8775 125.057 75.894 125.441L75.9005 125.592C74.9523 129.46 74.3735 132.259 74.164 133.989C73.9644 135.476 73.8424 136.646 73.7979 137.498C73.7658 138.168 73.7409 138.534 73.7233 138.595L73.7099 138.99C73.7151 139.112 73.7682 139.17 73.8693 139.166C73.9501 139.162 74.0196 139.129 74.0776 139.066C74.1761 139.001 74.3365 138.964 74.5588 138.954C74.9024 138.939 75.0821 139.114 75.0976 139.478C75.1279 140.185 74.7489 140.556 73.9606 140.59Z" fill="#F3F3F3"/>
<path d="M82.3439 140.2C81.6971 140.228 81.1874 140.149 80.8149 139.962C80.4416 139.755 80.1342 139.434 79.8928 138.999C79.4346 138.229 79.1817 137.288 79.1341 136.176C79.051 134.236 79.2654 132.384 79.7772 130.62C80.2881 128.837 81.0233 127.327 81.9829 126.091C82.9047 124.918 83.9417 124.306 85.0938 124.257C85.7002 124.231 86.1861 124.463 86.5513 124.954C86.9359 125.424 87.1434 126.012 87.1737 126.72C87.2264 127.953 86.9489 129.038 86.341 129.975C85.7533 130.911 84.9368 131.706 83.8915 132.358C82.985 132.944 81.8764 133.538 80.5657 134.141L80.5985 136.326C80.6712 138.024 81.223 138.851 82.2539 138.807C82.7188 138.787 83.1992 138.655 83.695 138.411C84.1899 138.147 84.7034 137.841 85.2353 137.495C85.492 137.342 85.7012 137.262 85.8629 137.255C86.2065 137.24 86.3861 137.415 86.4017 137.779C86.413 138.042 86.1737 138.366 85.6839 138.751C85.2144 139.136 84.6517 139.474 83.9959 139.765C83.3393 140.036 82.7886 140.181 82.3439 140.2ZM80.746 132.675C80.9236 132.566 81.3188 132.337 81.9315 131.986C82.2093 131.853 82.6049 131.633 83.1184 131.328C84.0459 130.762 84.7274 130.125 85.1629 129.418C85.6186 128.71 85.8248 127.851 85.7815 126.84C85.7478 126.052 85.3974 125.672 84.7304 125.7C84.1442 125.725 83.4798 126.29 82.7374 127.395C81.9545 128.502 81.3476 129.936 80.9167 131.696C80.796 132.187 80.7391 132.513 80.746 132.675Z" fill="#F3F3F3"/>
<path d="M91.7838 151.946C90.5306 152 89.5852 151.676 88.9476 150.974C88.3101 150.273 87.9667 149.346 87.9173 148.194C87.8715 147.122 88.1402 146.068 88.7236 145.03C89.3069 143.993 90.153 142.944 91.2619 141.884C92.3708 140.824 93.8551 139.546 95.7148 138.048C95.7472 136.913 95.7556 136.163 95.74 135.8C95.708 135.052 95.5717 134.47 95.3312 134.055C95.0898 133.62 94.6756 133.405 94.0886 133.41L93.6771 133.731C92.2852 134.803 91.2254 135.355 90.4977 135.386C90.235 135.397 90.0403 135.345 89.9139 135.229C89.7874 135.113 89.7203 134.964 89.7125 134.782C89.7056 134.62 89.8177 134.403 90.0491 134.13C90.3578 133.772 90.8277 133.398 91.459 133.006C92.0894 132.594 92.8159 132.3 93.6386 132.123C94.8055 131 95.616 130.064 96.0699 129.315C96.5433 128.546 96.7579 127.646 96.7137 126.615C96.693 126.13 96.5565 125.781 96.3045 125.569C96.0524 125.357 95.613 125.265 94.9864 125.292C94.2992 125.321 93.716 125.417 93.2369 125.579C92.7781 125.74 92.2255 126.078 91.5793 126.592C90.9137 127.126 90.4697 127.399 90.2473 127.408C89.8835 127.424 89.6925 127.219 89.6743 126.795C89.6657 126.593 89.8161 126.323 90.1257 125.986C90.4555 125.648 90.867 125.326 91.3602 125.022C92.5857 124.321 93.7746 123.946 94.9267 123.897C96.0384 123.849 96.8262 124.038 97.2899 124.464C97.7536 124.89 98.0054 125.567 98.0452 126.497C98.1317 128.518 97.2714 130.418 95.4643 132.197C96.494 132.598 97.0504 133.769 97.1334 135.71L97.126 136.955L99.3602 135.219C99.5185 135.132 99.6582 135.085 99.7795 135.08C100.123 135.065 100.303 135.24 100.318 135.604C100.326 135.786 100.254 135.991 100.102 136.22C99.6894 136.522 99.4339 136.705 99.3355 136.77L97.0419 138.538C96.8223 140.978 96.4649 143.271 95.9696 145.419C95.4953 147.586 95.0708 149.021 94.6959 149.726C94.3211 150.43 93.9187 150.964 93.4887 151.327C93.0596 151.71 92.4913 151.916 91.7838 151.946ZM91.4248 150.656C92.0312 150.63 92.5169 150.386 92.8819 149.925C93.4959 149.129 94.1497 147.137 94.8435 143.948C95.1872 142.516 95.4302 141.098 95.5726 139.695C93.1677 141.701 91.3905 143.468 90.2409 144.996C89.5134 145.979 89.1696 146.935 89.2094 147.865C89.2483 148.774 89.4707 149.474 89.8763 149.963C90.282 150.451 90.7982 150.682 91.4248 150.656Z" fill="#F3F3F3"/>
<path d="M103.5 139.355C102.772 139.387 102.189 139.239 101.75 138.914C101.31 138.568 100.941 137.987 100.642 137.169C100.599 137.11 100.573 136.98 100.565 136.778C100.557 136.596 100.631 136.42 100.785 136.252C100.939 136.063 101.117 135.964 101.319 135.956C101.501 135.948 101.678 136.052 101.849 136.267C101.902 137.5 102.514 138.091 103.687 138.041C104.556 138.004 105.407 137.532 106.239 136.626C107.07 135.699 107.818 134.503 108.485 133.037C109.078 131.756 109.504 130.593 109.763 129.549L109.972 128.751C110.162 127.993 110.363 127.235 110.573 126.477C110.803 125.698 111.038 125.03 111.277 124.473C111.59 123.75 111.919 123.382 112.262 123.367C112.626 123.352 112.816 123.536 112.833 123.92C112.848 124.264 112.686 124.989 112.349 126.097C111.979 127.389 111.69 128.92 111.482 130.691C111.274 132.441 111.207 134.186 111.281 135.924C111.324 136.914 111.55 137.462 111.959 137.566L112.324 137.58C112.627 137.567 112.887 137.485 113.103 137.334C113.163 137.312 113.3 137.204 113.515 137.013C113.554 136.971 113.71 136.833 113.983 136.598C114.256 136.343 114.493 136.212 114.695 136.203C115.059 136.188 115.249 136.372 115.266 136.756C115.276 136.998 115.106 137.289 114.756 137.628C114.406 137.967 113.983 138.259 113.488 138.503C112.992 138.747 112.532 138.878 112.107 138.896C110.813 138.951 110.106 137.574 109.986 134.764C109.963 134.219 109.981 133.469 110.042 132.514C109.395 134.425 108.451 136.035 107.211 137.344C105.99 138.631 104.753 139.302 103.5 139.355Z" fill="#F3F3F3"/>
<path d="M128.517 137.981C128.052 138.001 127.607 137.777 127.182 137.309C126.777 136.82 126.562 136.293 126.537 135.727C126.484 134.473 126.726 132.337 127.265 129.317C126.807 130.43 126.198 131.58 125.439 132.766C124.699 133.932 123.963 134.966 123.233 135.868C122.502 136.77 121.96 137.36 121.607 137.639C121.118 138.044 120.571 138.26 119.964 138.286C118.812 138.335 118.205 137.632 118.143 136.177C118.082 134.762 118.542 132.981 119.524 130.833C120.504 128.664 121.699 126.77 123.108 125.151C124.518 123.551 125.677 122.732 126.587 122.693C127.517 122.654 128.06 123.035 128.216 123.839C128.287 124.079 128.328 124.34 128.34 124.623C128.439 124.558 128.549 124.523 128.67 124.518C129.135 124.498 129.377 124.71 129.396 125.155L129.401 125.276L129.094 126.626C128.854 127.649 128.625 129.157 128.407 131.151C128.189 133.145 128.108 134.799 128.164 136.113L128.475 136.282C128.973 136.564 129.228 136.857 129.241 137.16C129.25 137.362 129.187 137.547 129.053 137.715C128.918 137.883 128.74 137.971 128.517 137.981ZM120.139 136.699C120.362 136.69 120.541 136.611 120.676 136.463C122.663 134.617 124.388 132.103 125.851 128.921C126.687 127.164 127.139 126.122 127.206 125.796C127.231 125.43 127.241 125.207 127.238 125.126C127.229 124.924 127.171 124.744 127.063 124.587C126.955 124.429 126.82 124.354 126.658 124.361C126.456 124.37 126.197 124.472 125.882 124.668C125.091 125.127 124.17 126.067 123.117 127.489C122.084 128.911 121.247 130.404 120.605 131.971C119.924 133.559 119.609 134.96 119.661 136.173C119.677 136.537 119.836 136.712 120.139 136.699Z" fill="#F3F3F3"/>
<path d="M144.995 137.458C144.672 137.471 144.481 137.267 144.422 136.844C144.548 135.057 144.914 133.188 145.519 131.239C146.086 129.351 146.572 127.224 146.977 124.858L145.886 126.332L144.793 127.776C143.591 129.488 142.463 130.812 141.41 131.749C141.233 131.878 141.033 131.947 140.811 131.956C140.589 131.966 140.392 131.873 140.222 131.678C140.052 131.483 139.886 131.166 139.726 130.727C139.584 130.267 139.438 129.697 139.288 129.014L138.724 126.487L138.544 125.827C137.086 129.615 136.097 132.29 135.576 133.851C135.524 134.036 135.461 134.221 135.388 134.406C135.334 134.57 135.281 134.745 135.228 134.929L134.907 135.945C134.871 136.068 134.856 136.17 134.859 136.251C134.826 136.415 134.79 136.538 134.753 136.62C134.837 136.677 134.882 136.797 134.89 136.979C134.897 137.141 134.803 137.307 134.608 137.477C134.433 137.646 134.234 137.736 134.012 137.745C133.668 137.76 133.488 137.576 133.472 137.191C133.402 135.554 135.018 130.746 138.322 122.768C138.549 122.394 138.783 122.202 139.026 122.191C139.491 122.171 139.734 122.404 139.755 122.889C139.763 123.091 139.715 123.377 139.609 123.746C139.625 124.11 139.715 124.561 139.88 125.101C139.979 125.522 140.144 126.315 140.376 127.479C140.515 128.344 140.746 129.266 141.072 130.244L142.431 128.637C144.472 126.18 145.699 124.579 146.113 123.832C146.901 122.36 147.547 121.614 148.052 121.592C148.396 121.577 148.626 121.74 148.741 122.079C148.613 124.272 148.144 126.813 147.336 129.703C146.511 132.654 146.001 134.944 145.808 136.572C145.758 136.817 145.645 137.025 145.47 137.194C145.315 137.363 145.157 137.451 144.995 137.458Z" fill="#F3F3F3"/>
<path d="M161.334 136.849C160.768 136.873 160.327 136.74 160.011 136.45C159.715 136.159 159.557 135.771 159.536 135.286C159.514 134.781 159.608 133.906 159.818 132.662L160.359 128.963C158.931 130.138 157.59 130.752 156.337 130.806C155.427 130.845 154.719 130.632 154.214 130.168C154.182 130.372 154.15 130.575 154.118 130.779C154.107 130.982 154.085 131.186 154.053 131.39C154.001 132.06 153.929 132.742 153.837 133.434C153.576 135.855 153.082 137.081 152.354 137.112C152.051 137.125 151.86 136.921 151.781 136.499C151.896 134.914 152.236 132.45 152.801 129.104C153.386 125.738 153.805 123.462 154.058 122.277C154.11 122.072 154.214 121.895 154.369 121.747C154.545 121.598 154.724 121.519 154.906 121.511C155.149 121.501 155.328 121.665 155.444 122.005C155.457 122.328 155.321 123.387 155.033 125.181C154.808 126.548 154.635 127.72 154.515 128.697C154.981 129.183 155.69 129.406 156.64 129.365C157.569 129.325 158.57 128.817 159.642 127.839C159.973 127.521 160.282 127.184 160.571 126.828L160.939 124.777C161.219 123.286 161.549 122.25 161.929 121.666C162.118 121.334 162.384 121.161 162.727 121.146C163.071 121.131 163.251 121.316 163.267 121.7L163.274 121.852C162.326 125.72 161.747 128.519 161.538 130.249C161.338 131.736 161.216 132.905 161.171 133.758C161.139 134.428 161.114 134.793 161.097 134.855L161.083 135.25C161.089 135.371 161.142 135.43 161.243 135.425C161.324 135.422 161.393 135.389 161.451 135.325C161.55 135.26 161.71 135.223 161.932 135.214C162.276 135.199 162.456 135.374 162.471 135.737C162.501 136.445 162.122 136.815 161.334 136.849Z" fill="#F3F3F3"/>
<path d="M169.716 136.43C168.665 136.475 167.859 136.094 167.298 135.288C166.757 134.481 166.462 133.501 166.413 132.349C166.334 130.509 166.561 128.718 167.094 126.974C167.646 125.208 168.434 123.737 169.456 122.559C170.438 121.363 171.576 120.737 172.869 120.682C174.729 120.602 175.719 121.977 175.84 124.807C175.901 126.222 175.73 127.677 175.329 129.173C174.927 130.668 174.377 132.008 173.678 133.192C173 134.375 172.277 135.237 171.511 135.776C170.921 136.186 170.323 136.404 169.716 136.43ZM169.9 135.055C170.527 135.028 171.201 134.452 171.922 133.328C172.664 132.203 173.263 130.82 173.719 129.181C174.196 127.54 174.41 126.154 174.361 125.022C174.311 123.85 174.209 123.125 174.056 122.848C173.921 122.55 173.761 122.345 173.573 122.231C173.386 122.118 173.101 122.069 172.717 122.085C172.292 122.104 171.854 122.284 171.403 122.628C170.499 123.254 169.733 124.299 169.108 125.764C168.128 127.952 167.682 130.057 167.768 132.078C167.827 133.453 168.262 134.386 169.073 134.878C169.362 135.007 169.637 135.066 169.9 135.055Z" fill="#F3F3F3"/>
<path d="M179.6 136.098C179.236 136.113 179.047 135.949 179.032 135.606C179.026 135.464 179.084 135.168 179.207 134.717C179.468 133.734 179.776 132.162 180.129 130L180.796 125.02C180.877 124.531 180.946 123.789 181.005 122.794C181.105 120.886 181.51 119.917 182.217 119.887C182.621 119.869 182.836 120.154 182.861 120.74C182.828 120.903 182.763 121.058 182.668 121.204C182.478 122.447 182.371 123.252 182.346 123.617C182.271 124.228 182.149 124.912 181.978 125.668C181.843 126.281 181.736 126.853 181.657 127.383C182.314 127.112 183.097 126.957 184.006 126.918L185.949 126.895C186.346 125.279 187.123 123.555 188.28 121.723C189.002 120.619 190.212 120.03 191.91 119.958C192.456 119.934 192.958 120.075 193.416 120.379C193.875 120.684 194.157 121.117 194.262 121.68C194.39 121.836 194.477 121.974 194.522 122.094C194.56 124.401 194.429 126.289 194.127 127.76C193.825 129.211 193.405 130.525 192.868 131.702C191.919 133.647 190.745 134.841 189.346 135.286C188.687 135.496 188.175 135.609 187.812 135.625C187.124 135.654 186.573 135.303 186.157 134.572C185.761 133.839 185.537 132.877 185.486 131.684C185.441 130.633 185.504 129.496 185.674 128.274L184.157 128.309C183.652 128.33 183.128 128.403 182.587 128.528C182.087 128.671 181.819 128.794 181.783 128.896C181.707 129.021 181.58 129.128 181.401 129.216C181.34 129.685 181.304 130.01 181.291 130.193C181.139 131.374 180.99 132.373 180.842 133.189C180.714 133.984 180.528 134.823 180.282 135.704C180.11 135.954 179.883 136.086 179.6 136.098ZM188.395 134.354C189.001 134.328 189.711 133.883 190.525 133.018C191.337 132.132 191.906 131.217 192.23 130.272C192.571 129.265 192.811 128.242 192.949 127.203C193.086 126.144 193.154 124.653 193.152 122.729C193.089 122.671 193.014 122.563 192.926 122.405C192.874 121.678 192.485 121.33 191.757 121.361C190.544 121.413 189.556 121.972 188.791 123.038C188.047 124.102 187.519 125.482 187.207 127.176C186.932 128.787 186.821 130.23 186.876 131.503C186.959 133.444 187.465 134.394 188.395 134.354Z" fill="#F3F3F3"/>
<path d="M196.218 140.672C195.854 140.687 195.664 140.513 195.649 140.149C195.642 139.987 195.695 139.813 195.809 139.626C196.174 139.165 196.569 138.48 196.996 137.57C197.443 136.66 197.758 135.958 197.939 135.464C197.936 135.404 197.904 135.355 197.841 135.317C197.76 135.3 197.716 135.231 197.711 135.11C197.472 135.201 197.302 135.249 197.201 135.253C196.797 135.27 196.585 135.067 196.567 134.642C196.551 134.258 196.677 133.898 196.946 133.563C197.215 133.207 197.571 133.02 198.016 133.001C198.885 132.964 199.343 133.491 199.39 134.582C199.421 135.31 199.147 136.253 198.569 137.412C198.012 138.59 197.397 139.609 196.725 140.468C196.549 140.597 196.38 140.665 196.218 140.672Z" fill="#F3F3F3"/>
<path d="M211.025 134.692C210.237 134.725 209.59 134.53 209.086 134.106C208.94 133.991 208.861 133.822 208.852 133.6C208.843 133.398 208.926 133.212 209.101 133.043C209.256 132.874 209.445 132.785 209.667 132.775C209.89 132.766 210.044 132.83 210.131 132.968C210.279 133.104 210.404 133.199 210.508 133.256C210.631 133.291 210.844 133.302 211.147 133.289C211.754 133.263 212.393 132.831 213.066 131.992C213.318 131.718 213.681 131.226 214.157 130.518C214.919 129.391 215.521 128.546 215.962 127.98C216.096 127.792 216.297 127.53 216.567 127.195C216.699 126.986 216.9 126.715 217.169 126.379L217.601 125.814C216.59 126.809 215.732 127.322 215.024 127.352C214.539 127.373 214.138 127.238 213.822 126.948C213.525 126.636 213.363 126.157 213.335 125.51C213.305 124.803 213.568 123.86 214.126 122.682C214.683 121.504 215.368 120.492 216.183 119.648C217.077 118.779 217.918 118.328 218.707 118.294C219.495 118.26 220.123 118.507 220.591 119.034C220.613 119.073 220.732 119.24 220.947 119.535C221.006 119.492 221.116 119.467 221.278 119.46C221.561 119.448 221.74 119.612 221.815 119.953C221.856 120.903 221.577 121.958 220.979 123.118C220.828 123.387 220.713 123.534 220.633 123.558L220.54 124.23C220.402 125.248 220.284 126.043 220.187 126.614C219.672 129.735 219.403 131.721 219.379 132.572C219.347 133.262 219.286 133.71 219.193 133.917C219.1 134.103 218.892 134.203 218.568 134.217C218.285 134.229 218.111 134.186 218.046 134.087C217.98 133.969 217.942 133.788 217.932 133.545C218.045 131.455 218.406 128.766 219.014 125.48C217.937 126.802 216.952 128.16 216.06 129.555L214.291 132.213C213.796 132.963 213.305 133.561 212.818 134.007C212.35 134.432 211.753 134.66 211.025 134.692ZM215.465 126.3C216.334 126.263 217.385 125.489 218.616 123.978C218.982 123.537 219.241 123.212 219.394 123.003C219.595 122.023 219.796 121.265 219.996 120.73C219.712 120.256 219.477 119.972 219.291 119.879C219.146 119.804 218.942 119.772 218.679 119.784C218.154 119.806 217.56 120.135 216.899 120.771C216.238 121.407 215.702 122.149 215.293 122.997C214.884 123.844 214.692 124.551 214.716 125.117C214.75 125.926 215 126.32 215.465 126.3Z" fill="#F3F3F3"/>
<path d="M224.814 134.101C224.491 134.115 224.3 133.911 224.241 133.488L224.493 131.564C224.64 130.261 224.822 128.846 225.04 127.318L225.175 126.219C225.51 123.632 225.719 122.125 225.802 121.696C225.98 120.656 226.094 119.78 226.145 119.069C226.197 118.864 226.301 118.688 226.456 118.539C226.632 118.39 226.811 118.312 226.993 118.304C227.236 118.294 227.415 118.458 227.531 118.797C227.545 119.121 227.52 119.486 227.456 119.894C227.387 120.16 227.309 120.72 227.224 121.575L226.824 124.295C228.953 121.045 230.79 119.012 232.335 118.197C232.691 117.999 233.051 117.893 233.415 117.877C233.758 117.862 234.143 118.099 234.569 118.587C235.015 119.074 235.246 119.51 235.263 119.894C235.276 120.217 235.206 120.473 235.053 120.662C234.899 120.851 234.71 120.95 234.488 120.96C234.185 120.973 233.9 120.702 233.633 120.146C233.611 120.106 233.556 120.007 233.469 119.849C233.4 119.67 233.324 119.542 233.239 119.464C233.174 119.366 233.102 119.318 233.021 119.322C232.879 119.328 232.601 119.461 232.187 119.722C231.793 119.961 231.161 120.586 230.293 121.595C229.444 122.583 228.792 123.421 228.335 124.109C228.598 126.001 229.054 127.662 229.703 129.093C230.351 130.523 231.03 131.486 231.74 131.982C232.115 132.229 232.465 132.346 232.788 132.332C233.132 132.318 233.401 132.215 233.595 132.024C233.809 131.833 233.969 131.532 234.073 131.123C234.217 130.712 234.339 130.494 234.44 130.469C234.498 130.426 234.609 130.401 234.771 130.395C234.892 130.389 235.036 130.454 235.204 130.589C235.352 130.724 235.434 130.984 235.45 131.368C235.467 131.772 235.312 132.163 234.984 132.542C234.349 133.318 233.698 133.721 233.031 133.75C231.09 133.833 229.516 132.3 228.308 129.152C227.786 127.838 227.444 126.709 227.282 125.764C227.225 125.847 227.019 126.241 226.664 126.945L226.329 127.627C226.081 129.4 225.847 131.263 225.627 133.216C225.616 133.439 225.523 133.636 225.348 133.805C225.174 133.995 224.996 134.094 224.814 134.101Z" fill="#F3F3F3"/>
<path d="M248.652 145.444C247.985 145.472 247.391 145.325 246.871 145.004C246.371 144.681 245.979 144.262 245.693 143.748C245.409 143.254 245.256 142.754 245.234 142.249C245.183 141.056 245.448 139.921 246.03 138.843C246.613 137.785 247.469 136.736 248.599 135.695C249.026 135.272 250.013 134.43 251.559 133.169L252.996 131.984L253.118 131.28L253.29 130.331C253.37 129.841 253.427 129.515 253.461 129.351L253.608 128.525C253.291 129.652 252.727 130.669 251.916 131.574C251.124 132.479 250.344 132.948 249.576 132.981C248.768 133.015 248.108 132.74 247.597 132.154C247.085 131.548 246.806 130.71 246.76 129.638C246.687 127.94 247.058 125.241 247.871 121.541C248.279 119.701 248.479 118.71 248.473 118.569L248.397 118.208C248.371 118.067 248.495 117.89 248.769 117.675C249.043 117.461 249.271 117.35 249.453 117.342C249.858 117.325 250.068 117.519 250.086 117.923C250.103 118.327 249.802 120.041 249.182 123.065C248.562 126.088 248.275 128.136 248.321 129.207C248.366 130.258 248.526 130.909 248.8 131.161C249.053 131.413 249.362 131.532 249.726 131.516C250.494 131.483 251.285 130.801 252.099 129.47C252.743 128.43 253.291 127.05 253.744 125.33C254.216 123.588 254.644 121.757 255.028 119.838L255.153 119.225C255.337 118.306 255.505 117.731 255.657 117.502C255.808 117.253 256.025 117.122 256.308 117.11C256.531 117.1 256.685 117.154 256.771 117.272C256.876 117.369 256.911 117.479 256.876 117.602C256.637 119.111 256.236 121.325 255.672 124.245C255.158 126.899 254.804 129.031 254.609 130.639C254.55 130.682 254.89 130.343 255.629 129.623C256.016 129.202 256.307 128.906 256.502 128.735C256.697 128.565 256.886 128.476 257.068 128.468C257.411 128.453 257.591 128.618 257.605 128.961C257.616 129.204 257.544 129.409 257.389 129.578C256.611 130.34 255.598 131.255 254.347 132.321C253.563 137.66 252.801 141.145 252.061 142.777C251.654 143.685 251.028 144.421 250.181 144.983C249.748 145.265 249.238 145.419 248.652 145.444ZM248.589 143.988C249.297 143.958 249.914 143.476 250.441 142.542C250.799 141.919 251.172 140.931 251.56 139.578L251.89 138.076L252.143 136.88L252.708 133.758L252.212 134.235C251.53 134.871 250.857 135.477 250.194 136.052C247.833 138.138 246.691 140.08 246.768 141.879C246.803 142.708 247.103 143.333 247.668 143.754C247.878 143.928 248.185 144.006 248.589 143.988Z" fill="#F3F3F3"/>
<path d="M261.128 132.547C260.805 132.561 260.614 132.356 260.555 131.933L260.807 130.009C260.954 128.707 261.136 127.291 261.354 125.763L261.489 124.664C261.824 122.078 262.033 120.57 262.116 120.142C262.294 119.101 262.409 118.226 262.459 117.515C262.511 117.31 262.615 117.133 262.771 116.985C262.946 116.836 263.125 116.757 263.307 116.749C263.55 116.739 263.729 116.903 263.845 117.243C263.859 117.566 263.834 117.932 263.77 118.339C263.701 118.606 263.623 119.166 263.538 120.02L263.138 122.741C265.267 119.49 267.104 117.458 268.649 116.642C269.005 116.445 269.365 116.338 269.729 116.323C270.072 116.308 270.457 116.544 270.883 117.033C271.329 117.52 271.56 117.955 271.577 118.339C271.59 118.663 271.52 118.919 271.367 119.108C271.213 119.297 271.024 119.396 270.802 119.405C270.499 119.418 270.214 119.147 269.947 118.591C269.925 118.552 269.87 118.453 269.783 118.295C269.714 118.115 269.638 117.987 269.553 117.91C269.488 117.811 269.416 117.764 269.335 117.767C269.193 117.773 268.915 117.906 268.501 118.167C268.107 118.407 267.475 119.031 266.607 120.04C265.758 121.029 265.106 121.867 264.649 122.554C264.912 124.447 265.368 126.108 266.017 127.538C266.665 128.968 267.344 129.932 268.054 130.428C268.429 130.675 268.779 130.792 269.102 130.778C269.446 130.763 269.715 130.66 269.909 130.47C270.123 130.278 270.283 129.978 270.387 129.568C270.531 129.157 270.653 128.939 270.754 128.915C270.813 128.872 270.923 128.847 271.085 128.84C271.206 128.835 271.35 128.899 271.518 129.034C271.666 129.169 271.748 129.429 271.764 129.813C271.781 130.217 271.626 130.609 271.298 130.987C270.663 131.764 270.012 132.166 269.345 132.195C267.404 132.278 265.83 130.746 264.622 127.598C264.1 126.284 263.758 125.154 263.596 124.209C263.539 124.293 263.333 124.686 262.978 125.39L262.643 126.073C262.395 127.845 262.161 129.708 261.941 131.661C261.93 131.885 261.837 132.081 261.662 132.25C261.488 132.44 261.31 132.539 261.128 132.547Z" fill="#F3F3F3"/>
<path d="M273.351 144.174C273.048 144.187 272.867 143.992 272.81 143.589C273.317 141.259 273.744 138.932 274.09 136.609L275.69 125.727C276.319 121.488 276.744 118.655 276.967 117.228L276.938 116.561C276.929 116.359 277.012 116.163 277.186 115.973C277.36 115.783 277.569 115.683 277.811 115.673C278.034 115.663 278.209 115.747 278.338 115.924C278.467 116.08 278.535 116.259 278.544 116.462C278.556 116.745 278.518 117.04 278.43 117.347L278.325 117.747C278.292 117.91 278.276 118.022 278.279 118.083L277.948 120.284C279.285 117.452 280.782 116.001 282.439 115.93C283.308 115.893 283.946 116.129 284.353 116.638C284.779 117.126 285.014 117.886 285.058 118.916C285.141 120.857 284.951 122.799 284.487 124.743C284.024 126.686 283.305 128.337 282.33 129.695C281.337 131.094 280.113 131.825 278.657 131.887C278.091 131.912 277.631 131.81 277.277 131.582C276.944 131.373 276.665 130.991 276.438 130.433L276.151 132.238C275.761 134.482 275.479 136.175 275.305 137.316C274.926 139.803 274.549 141.875 274.174 143.531C274.009 143.943 273.735 144.157 273.351 144.174ZM278.808 130.453C279.86 130.408 280.811 129.699 281.664 128.326C282.722 126.56 283.374 124.274 283.618 121.469C283.682 120.595 283.7 119.845 283.674 119.219C283.617 117.905 283.266 117.262 282.619 117.289C281.972 117.317 281.254 117.814 280.465 118.779C279.388 120.101 278.524 121.677 277.873 123.507C277.222 125.317 276.924 126.879 276.98 128.193C277.047 129.749 277.656 130.503 278.808 130.453Z" fill="#F3F3F3"/>
<path d="M297.653 130.74C297.188 130.76 296.743 130.536 296.318 130.068C295.912 129.579 295.697 129.052 295.673 128.486C295.619 127.233 295.862 125.096 296.401 122.076C295.942 123.189 295.333 124.339 294.574 125.526C293.834 126.692 293.099 127.725 292.368 128.627C291.637 129.529 291.095 130.12 290.743 130.398C290.254 130.804 289.706 131.02 289.1 131.046C287.948 131.095 287.34 130.392 287.278 128.936C287.218 127.522 287.678 125.74 288.659 123.592C289.64 121.424 290.834 119.53 292.243 117.91C293.653 116.311 294.813 115.492 295.722 115.453C296.652 115.413 297.195 115.795 297.351 116.598C297.422 116.838 297.464 117.099 297.476 117.382C297.574 117.318 297.684 117.282 297.805 117.277C298.27 117.257 298.512 117.47 298.531 117.914L298.536 118.036L298.23 119.385C297.99 120.408 297.761 121.916 297.542 123.91C297.324 125.904 297.243 127.558 297.299 128.872L297.61 129.041C298.108 129.323 298.364 129.616 298.377 129.919C298.385 130.121 298.323 130.306 298.188 130.474C298.053 130.642 297.875 130.731 297.653 130.74ZM289.275 129.458C289.497 129.449 289.676 129.37 289.812 129.223C291.798 127.376 293.523 124.862 294.987 121.681C295.823 119.924 296.274 118.882 296.341 118.555C296.366 118.189 296.377 117.966 296.373 117.885C296.365 117.683 296.306 117.503 296.198 117.346C296.09 117.189 295.955 117.113 295.794 117.12C295.592 117.129 295.333 117.231 295.017 117.427C294.227 117.886 293.305 118.827 292.252 120.249C291.22 121.67 290.382 123.164 289.741 124.73C289.059 126.319 288.745 127.719 288.797 128.932C288.812 129.296 288.972 129.471 289.275 129.458Z" fill="#F3F3F3"/>
<path d="M303.495 112.386C303.172 112.4 302.905 112.32 302.695 112.147C302.485 111.954 302.374 111.736 302.364 111.493C302.345 111.069 302.482 110.718 302.774 110.443C303.086 110.166 303.424 110.02 303.788 110.004C303.91 109.999 304.135 110.06 304.464 110.188C304.592 110.324 304.665 110.615 304.684 111.06C304.702 111.484 304.595 111.813 304.362 112.045C304.128 112.258 303.839 112.371 303.495 112.386ZM306.891 112.241C306.588 112.254 306.321 112.174 306.091 112.002C305.88 111.808 305.77 111.59 305.759 111.348C305.742 110.943 305.889 110.593 306.2 110.296C306.513 110.019 306.84 109.874 307.184 109.859C307.346 109.852 307.571 109.913 307.86 110.043C307.988 110.179 308.061 110.48 308.081 110.944C308.098 111.349 307.991 111.667 307.757 111.9C307.524 112.113 307.235 112.226 306.891 112.241ZM303.158 130.747C302.47 130.777 302.103 130.236 302.055 129.124C302.047 128.922 302.086 128.667 302.174 128.36C302.261 128.012 302.335 127.614 302.397 127.165L302.764 125.114L303.257 122.42C303.416 121.421 303.611 120.299 303.842 119.054C303.877 118.931 303.909 118.727 303.937 118.442C304.102 117.565 304.181 117.055 304.175 116.913L304.162 116.61C304.155 116.449 304.07 116.118 303.907 115.619C303.897 115.376 303.968 115.15 304.121 114.941C304.294 114.731 304.502 114.621 304.745 114.611C304.967 114.601 305.166 114.745 305.34 115.041C305.515 115.337 305.61 115.667 305.626 116.031C305.643 116.435 305.272 118.638 304.511 122.64C303.751 126.642 303.376 128.764 303.387 129.006C303.396 129.229 303.502 129.335 303.704 129.327C303.805 129.322 303.982 129.183 304.233 128.909C304.465 128.656 304.662 128.526 304.824 128.519C305.147 128.506 305.318 128.701 305.335 129.105C305.345 129.348 305.214 129.596 304.942 129.851C304.669 130.106 304.354 130.311 303.996 130.469C303.639 130.646 303.36 130.739 303.158 130.747Z" fill="#F3F3F3"/>
<path d="M319.692 130.07C319.126 130.094 318.685 129.961 318.368 129.671C318.073 129.38 317.914 128.992 317.893 128.507C317.872 128.001 317.966 127.127 318.176 125.882L318.716 122.184C317.288 123.359 315.948 123.973 314.694 124.027C313.785 124.066 313.077 123.853 312.571 123.388C312.539 123.592 312.508 123.796 312.476 124C312.464 124.203 312.443 124.407 312.411 124.61C312.359 125.281 312.286 125.962 312.195 126.655C311.934 129.076 311.439 130.302 310.712 130.333C310.409 130.346 310.218 130.141 310.139 129.72C310.253 128.135 310.593 125.67 311.159 122.325C311.744 118.959 312.163 116.683 312.416 115.498C312.468 115.293 312.571 115.116 312.727 114.968C312.903 114.819 313.082 114.74 313.264 114.732C313.506 114.722 313.685 114.886 313.801 115.226C313.815 115.549 313.678 116.608 313.39 118.402C313.165 119.769 312.993 120.94 312.873 121.918C313.339 122.404 314.047 122.627 314.997 122.586C315.927 122.546 316.928 122.038 318 121.06C318.331 120.742 318.64 120.405 318.929 120.048L319.296 117.997C319.577 116.507 319.907 115.47 320.287 114.887C320.475 114.555 320.741 114.382 321.085 114.367C321.429 114.352 321.609 114.537 321.625 114.921L321.632 115.073C320.683 118.941 320.105 121.74 319.895 123.47C319.696 124.957 319.573 126.126 319.529 126.979C319.497 127.648 319.472 128.014 319.454 128.075L319.441 128.471C319.446 128.592 319.499 128.651 319.6 128.646C319.681 128.643 319.751 128.609 319.809 128.546C319.907 128.481 320.068 128.444 320.29 128.435C320.634 128.42 320.813 128.594 320.829 128.958C320.859 129.666 320.48 130.036 319.692 130.07Z" fill="#F3F3F3"/>
<path d="M328.078 129.741C327.107 129.783 326.324 129.462 325.728 128.779C325.151 128.075 324.841 127.217 324.798 126.206C324.721 124.428 324.966 122.574 325.532 120.647C326.117 118.718 326.919 117.094 327.935 115.775C328.952 114.455 330.057 113.77 331.249 113.719C332.119 113.682 332.698 113.971 332.988 114.586C333.053 114.685 333.108 114.794 333.153 114.913C333.198 115.013 333.243 115.112 333.288 115.212C333.401 115.49 333.509 115.648 333.612 115.684C333.701 115.882 333.748 116.032 333.752 116.133C333.76 116.315 333.677 116.491 333.502 116.66C333.347 116.829 333.168 116.918 332.966 116.926C332.542 116.944 332.255 116.643 332.107 116.021C331.959 115.4 331.612 115.101 331.067 115.124C330.339 115.155 329.595 115.754 328.835 116.921C328.074 118.067 327.437 119.512 326.925 121.255C326.428 122.897 326.207 124.354 326.261 125.627C326.338 127.426 327.034 128.298 328.348 128.241C329.015 128.213 329.618 127.873 330.157 127.222C330.214 127.139 330.32 127.003 330.473 126.814C330.626 126.605 330.772 126.457 330.91 126.37C331.047 126.263 331.176 126.207 331.298 126.201C331.682 126.185 331.881 126.349 331.896 126.692C331.913 127.097 331.74 127.539 331.376 128.021C331.011 128.482 330.531 128.877 329.938 129.206C329.345 129.535 328.724 129.714 328.078 129.741Z" fill="#F3F3F3"/>
<path d="M338.599 129.382C336.86 129.457 335.94 128.311 335.839 125.946C335.802 125.077 335.888 124.01 336.097 122.746L336.531 120.115L337.467 114.304C337.541 114.138 337.667 114.001 337.844 113.893C338.021 113.763 338.19 113.695 338.352 113.689C338.493 113.682 338.639 113.767 338.788 113.943C338.937 114.119 339.016 114.308 339.025 114.51L338.217 118.342L337.447 122.354C337.186 123.823 337.072 124.942 337.105 125.71C337.141 126.559 337.288 127.16 337.547 127.514C337.804 127.847 338.205 128.002 338.751 127.978C339.6 127.942 340.285 127.629 340.807 127.04C341.328 126.45 341.69 125.686 341.893 124.746C342.077 123.847 342.155 123.064 342.127 122.397C342.052 120.658 341.591 119.807 340.742 119.844C340.196 119.867 339.719 120.323 339.312 121.211C339.09 121.706 338.893 122.069 338.721 122.299C338.566 122.468 338.428 122.555 338.306 122.56C337.943 122.576 337.753 122.412 337.739 122.068C337.73 121.866 337.914 121.443 338.292 120.799C338.689 120.134 339.012 119.644 339.262 119.33C339.803 118.74 340.317 118.434 340.802 118.413C341.611 118.379 342.243 118.736 342.701 119.486C343.158 120.236 343.411 121.167 343.458 122.279C343.513 123.552 343.33 124.725 342.91 125.795C342.51 126.866 341.929 127.721 341.167 128.361C340.405 129.001 339.549 129.341 338.599 129.382Z" fill="#F3F3F3"/>
<path d="M347.272 128.859C346.949 128.873 346.758 128.668 346.699 128.246L346.951 126.321C347.098 125.019 347.28 123.604 347.498 122.076L347.633 120.976C347.968 118.39 348.177 116.883 348.26 116.454C348.438 115.413 348.553 114.538 348.603 113.827C348.655 113.622 348.759 113.446 348.915 113.297C349.091 113.148 349.269 113.069 349.451 113.062C349.694 113.051 349.873 113.216 349.989 113.555C350.003 113.878 349.978 114.244 349.914 114.652C349.845 114.918 349.767 115.478 349.682 116.332L349.283 119.053C351.411 115.803 353.248 113.77 354.793 112.954C355.149 112.757 355.509 112.65 355.873 112.635C356.216 112.62 356.601 112.857 357.027 113.345C357.473 113.832 357.704 114.267 357.721 114.652C357.735 114.975 357.665 115.231 357.511 115.42C357.357 115.609 357.169 115.708 356.946 115.717C356.643 115.73 356.358 115.459 356.091 114.904C356.069 114.864 356.014 114.765 355.927 114.607C355.858 114.428 355.782 114.299 355.698 114.222C355.633 114.123 355.56 114.076 355.479 114.079C355.337 114.085 355.06 114.219 354.645 114.479C354.251 114.719 353.619 115.344 352.751 116.353C351.903 117.341 351.25 118.179 350.793 118.867C351.057 120.759 351.512 122.42 352.161 123.85C352.809 125.281 353.489 126.244 354.198 126.74C354.573 126.987 354.923 127.104 355.246 127.09C355.59 127.075 355.859 126.973 356.053 126.782C356.268 126.591 356.427 126.29 356.531 125.881C356.675 125.469 356.798 125.252 356.898 125.227C356.957 125.184 357.067 125.159 357.229 125.152C357.35 125.147 357.494 125.212 357.662 125.346C357.81 125.482 357.892 125.741 357.908 126.125C357.926 126.53 357.77 126.921 357.442 127.3C356.807 128.076 356.156 128.479 355.489 128.507C353.549 128.59 351.974 127.058 350.766 123.91C350.244 122.596 349.902 121.466 349.74 120.522C349.683 120.605 349.477 120.999 349.123 121.702L348.787 122.385C348.539 124.157 348.305 126.02 348.085 127.974C348.074 128.197 347.981 128.393 347.806 128.563C347.632 128.752 347.454 128.851 347.272 128.859Z" fill="#F3F3F3"/>
<path d="M369.467 127.909C369.244 127.918 368.994 127.747 368.716 127.394C368.457 127.021 368.321 126.692 368.309 126.409L368.287 125.894C368.26 125.267 368.614 123.359 369.348 120.168L369.671 118.484L368.926 120.247C368.692 120.925 368.308 121.883 367.773 123.121C366.414 126.379 364.886 128.044 363.188 128.117C362.177 128.16 361.466 127.634 361.055 126.538C360.938 126.178 360.868 125.725 360.845 125.18C360.796 124.048 360.947 122.593 361.296 120.817C361.495 119.796 361.665 119.039 361.806 118.547L362.015 117.748C362.204 116.971 362.392 116.153 362.578 115.294C362.784 114.415 362.887 113.752 362.888 113.306C362.94 113.102 363.044 112.925 363.199 112.777C363.375 112.627 363.564 112.548 363.766 112.54C363.969 112.531 364.142 112.787 364.285 113.307C364.308 113.833 364.234 114.484 364.065 115.261C363.895 116.017 363.721 116.693 363.544 117.288C363.388 117.882 363.292 118.261 363.259 118.424C362.542 121.067 362.224 123.349 362.307 125.269C362.333 125.875 362.583 126.29 363.058 126.512C363.224 126.586 363.448 126.617 363.731 126.605C364.297 126.581 364.95 125.986 365.689 124.82C366.372 123.738 367.054 122.393 367.734 120.784C368.414 119.175 368.959 117.714 369.369 116.401C369.794 114.985 370.155 113.947 370.451 113.286C370.746 112.626 371.086 112.287 371.47 112.271C371.814 112.256 371.993 112.421 372.008 112.764C372.019 113.027 371.888 113.751 371.615 114.938C371.354 115.941 371.182 116.657 371.099 117.086C371.016 117.495 370.919 118.076 370.809 118.83L370.258 122.984L369.999 124.727C369.986 124.91 369.947 125.185 369.882 125.552C369.899 125.936 369.97 126.186 370.097 126.302L370.385 126.654C370.448 126.713 370.484 126.843 370.493 127.045C370.502 127.247 370.388 127.434 370.152 127.606C369.938 127.798 369.709 127.898 369.467 127.909Z" fill="#F3F3F3"/>
<path d="M382.223 109.441C381.051 109.491 380.114 109.137 379.413 108.377C378.733 107.616 378.365 106.589 378.309 105.295C378.298 105.033 378.37 104.807 378.523 104.618C378.698 104.428 378.896 104.329 379.118 104.319C379.341 104.31 379.496 104.404 379.586 104.603C379.702 104.942 379.826 105.484 379.959 106.227C380.217 107.512 380.871 108.132 381.922 108.087C383.115 108.036 384.132 107.669 384.973 106.985C385.834 106.279 386.702 105.26 387.576 103.927C387.792 103.755 387.99 103.666 388.172 103.658C388.536 103.643 388.725 103.807 388.74 104.15C388.745 104.272 388.711 104.415 388.637 104.58C386.504 107.729 384.366 109.349 382.223 109.441ZM383.989 127.287C383.767 127.297 383.517 127.125 383.238 126.772C382.979 126.399 382.844 126.07 382.832 125.788L382.81 125.272C382.783 124.645 383.137 122.737 383.871 119.546L384.194 117.862L383.449 119.625C383.215 120.304 382.83 121.262 382.296 122.5C380.937 125.757 379.409 127.422 377.711 127.495C376.7 127.538 375.989 127.012 375.578 125.916C375.461 125.556 375.391 125.104 375.368 124.558C375.319 123.426 375.469 121.972 375.819 120.195C376.018 119.174 376.188 118.417 376.329 117.925L376.538 117.127C376.727 116.349 376.915 115.531 377.101 114.672C377.306 113.793 377.41 113.13 377.411 112.685C377.463 112.48 377.567 112.303 377.722 112.155C377.898 112.006 378.087 111.927 378.289 111.918C378.491 111.909 378.664 112.165 378.808 112.686C378.831 113.211 378.757 113.862 378.588 114.639C378.418 115.396 378.244 116.071 378.067 116.666C377.91 117.26 377.815 117.639 377.782 117.802C377.065 120.445 376.747 122.727 376.829 124.647C376.855 125.254 377.106 125.668 377.581 125.891C377.746 125.965 377.97 125.996 378.253 125.983C378.819 125.959 379.472 125.364 380.212 124.199C380.895 123.116 381.576 121.771 382.257 120.162C382.937 118.554 383.482 117.093 383.892 115.779C384.317 114.363 384.678 113.325 384.973 112.665C385.269 112.004 385.609 111.666 385.993 111.649C386.337 111.634 386.516 111.799 386.531 112.142C386.542 112.405 386.411 113.13 386.138 114.316C385.877 115.319 385.705 116.035 385.622 116.464C385.538 116.873 385.442 117.454 385.332 118.208L384.781 122.363L384.522 124.105C384.509 124.288 384.47 124.563 384.405 124.93C384.421 125.314 384.493 125.565 384.619 125.681L384.908 126.033C384.971 126.091 385.007 126.221 385.016 126.423C385.024 126.625 384.911 126.812 384.675 126.984C384.461 127.176 384.232 127.277 383.989 127.287Z" fill="#F3F3F3"/>
<path d="M401.431 138.691C400.46 138.732 399.628 138.434 398.932 137.795C398.257 137.176 397.899 136.361 397.855 135.351C397.816 134.421 397.99 133.522 398.378 132.655C398.787 131.807 399.387 130.921 400.178 129.996C400.852 129.198 401.667 128.363 402.622 127.492L405.371 125.005C405.491 124.493 405.589 123.953 405.666 123.382C405.85 122.483 405.991 121.748 406.088 121.177C405.423 123.616 404.5 125.235 403.319 126.034C402.945 126.293 402.577 126.431 402.213 126.446C401.505 126.477 400.907 126.219 400.418 125.673C399.949 125.126 399.694 124.387 399.655 123.457C399.579 121.699 399.834 119.845 400.419 117.896C401.003 115.927 401.821 114.232 402.874 112.81C403.967 111.366 405.19 110.615 406.544 110.557C407.191 110.529 407.815 110.664 408.415 110.963C408.533 110.897 408.663 110.861 408.805 110.855C409.149 110.84 409.327 110.994 409.341 111.318C409.356 111.661 409.309 111.987 409.201 112.296C408.698 113.796 407.912 117.677 406.844 123.939C407.159 123.723 407.52 123.414 407.928 123.012C408.026 122.927 408.201 122.768 408.454 122.534C408.707 122.28 408.912 122.099 409.069 121.991C409.226 121.883 409.366 121.827 409.487 121.821C409.831 121.807 410.01 121.971 410.025 122.315C410.036 122.578 409.974 122.783 409.838 122.93C408.626 123.934 407.588 124.768 406.726 125.433L406.363 128.304L406.243 129.068C406.055 130.352 405.889 131.422 405.743 132.279C405.598 133.156 405.411 133.994 405.182 134.794C404.846 135.922 404.359 136.844 403.721 137.56C403.104 138.275 402.34 138.652 401.431 138.691ZM402.241 124.987C402.646 124.97 403.099 124.677 403.601 124.109C404.102 123.52 404.577 122.771 405.024 121.861C405.49 120.929 405.854 119.962 406.114 118.959C406.518 117.504 406.855 116.163 407.127 114.936C407.299 114.22 407.512 113.279 407.765 112.114C407.471 111.864 407.081 111.749 406.596 111.769C405.727 111.807 404.842 112.422 403.942 113.614C403.061 114.806 402.335 116.296 401.763 118.082C401.211 119.847 400.966 121.447 401.027 122.882C401.089 124.317 401.493 125.019 402.241 124.987ZM401.093 137.186C401.517 137.168 401.897 137.051 402.232 136.834C402.568 136.637 402.878 136.3 403.161 135.822C403.443 135.324 403.717 134.634 403.983 133.752C404.249 132.87 404.454 131.97 404.597 131.052C404.729 130.358 404.834 129.726 404.911 129.156L405.003 128.483C405.017 128.321 405.04 128.148 405.072 127.964C405.105 127.78 405.127 127.587 405.139 127.384L405.198 126.653C403.288 128.375 401.815 129.926 400.78 131.307C399.766 132.687 399.282 133.902 399.327 134.953C399.374 136.065 399.647 136.762 400.145 137.045C400.353 137.157 400.668 137.204 401.093 137.186Z" fill="#F3F3F3"/>
<path d="M415.477 138.302C414.81 138.33 414.217 138.184 413.697 137.862C413.197 137.539 412.804 137.12 412.519 136.606C412.235 136.112 412.082 135.612 412.06 135.107C412.009 133.914 412.274 132.779 412.856 131.701C413.438 130.643 414.295 129.594 415.425 128.554C415.852 128.13 416.839 127.288 418.384 126.027L419.822 124.842L419.944 124.138L420.116 123.189C420.196 122.7 420.253 122.373 420.287 122.21L420.433 121.383C420.117 122.511 419.553 123.527 418.741 124.432C417.95 125.337 417.17 125.806 416.402 125.839C415.593 125.873 414.934 125.598 414.423 125.012C413.911 124.406 413.632 123.568 413.586 122.497C413.513 120.799 413.884 118.1 414.697 114.399C415.104 112.559 415.305 111.569 415.299 111.427L415.223 111.066C415.197 110.925 415.321 110.748 415.595 110.534C415.869 110.319 416.097 110.208 416.279 110.201C416.684 110.183 416.894 110.377 416.912 110.781C416.929 111.185 416.628 112.899 416.008 115.923C415.388 118.946 415.101 120.994 415.147 122.065C415.192 123.116 415.351 123.768 415.625 124.019C415.879 124.272 416.188 124.39 416.552 124.374C417.32 124.341 418.111 123.66 418.925 122.329C419.569 121.289 420.117 119.908 420.57 118.188C421.042 116.446 421.47 114.616 421.854 112.696L421.979 112.083C422.163 111.164 422.331 110.59 422.483 110.36C422.634 110.111 422.851 109.98 423.134 109.968C423.357 109.958 423.511 110.013 423.597 110.13C423.702 110.227 423.737 110.337 423.702 110.46C423.463 111.969 423.061 114.183 422.498 117.103C421.984 119.758 421.63 121.889 421.435 123.497C421.376 123.54 421.716 123.201 422.455 122.481C422.842 122.06 423.133 121.764 423.328 121.593C423.523 121.423 423.712 121.334 423.894 121.326C424.237 121.312 424.417 121.476 424.431 121.82C424.442 122.062 424.369 122.268 424.215 122.436C423.437 123.199 422.423 124.113 421.173 125.179C420.389 130.518 419.627 134.003 418.887 135.635C418.48 136.543 417.854 137.279 417.007 137.842C416.573 138.123 416.064 138.277 415.477 138.302ZM415.415 136.847C416.123 136.816 416.74 136.334 417.267 135.4C417.625 134.778 417.998 133.79 418.385 132.436L418.716 130.934L418.969 129.738L419.534 126.616L419.038 127.093C418.356 127.73 417.683 128.335 417.019 128.911C414.658 130.996 413.516 132.939 413.593 134.738C413.629 135.566 413.929 136.191 414.494 136.613C414.704 136.786 415.011 136.864 415.415 136.847Z" fill="#F3F3F3"/>
<path d="M433.682 125.099C433.46 125.109 433.291 124.954 433.176 124.635C433.145 124.373 433.03 124.054 432.831 123.677C432.659 123.442 432.46 123.045 432.234 122.488C432.14 122.188 431.87 121.572 431.425 120.639C430.846 119.409 430.5 118.654 430.387 118.375L426.506 124.92C426.337 125.231 426.06 125.395 425.676 125.411C425.292 125.428 425.093 125.274 425.079 124.951C425.072 124.769 425.152 124.523 425.321 124.212L426.113 122.841L427.017 121.253C428.129 119.322 428.997 117.847 429.622 116.828L429.421 116.381C429.193 115.804 429.057 115.455 429.011 115.336C428.715 114.559 428.465 113.932 428.263 113.454L427.989 112.737C427.83 112.339 427.739 112.1 427.715 112.02L427.409 111.243C427.384 111.143 427.349 111.043 427.305 110.944C427.259 110.824 427.224 110.714 427.199 110.614C427.112 110.456 427.064 110.296 427.057 110.134C427.052 110.013 427.127 109.878 427.283 109.73C427.438 109.561 427.626 109.472 427.849 109.462C428.233 109.446 428.55 109.756 428.8 110.394C428.937 110.752 429.029 111.022 429.077 111.202C429.179 111.684 429.353 112.203 429.6 112.759C429.873 113.476 430.099 114.013 430.276 114.37C430.346 114.57 430.47 114.868 430.649 115.266C431.109 114.659 431.689 113.794 432.39 112.67L433.102 111.546C433.577 110.817 433.834 110.431 433.872 110.389C434.161 110.033 434.433 109.778 434.69 109.625C434.849 109.558 434.989 109.521 435.111 109.516C435.437 109.563 435.605 109.718 435.617 109.98C435.627 110.223 435.586 110.447 435.494 110.654C435.383 110.902 435.136 111.287 434.753 111.809C434.599 111.998 434.18 112.604 433.495 113.625C433.495 113.625 433.381 113.812 433.154 114.186C432.549 115.184 431.959 116.07 431.385 116.844C432.679 119.644 433.396 121.254 433.535 121.673C433.742 122.251 433.966 122.738 434.205 123.133C434.444 123.507 434.572 123.897 434.589 124.301C434.559 124.525 434.455 124.712 434.279 124.861C434.124 125.009 433.924 125.089 433.682 125.099Z" fill="#F3F3F3"/>
<path d="M439.916 119.729C439.613 119.742 439.432 119.547 439.374 119.145C440.891 111.04 441.872 103.931 442.319 97.8166C442.4 96.8614 442.508 95.8543 442.645 94.7955C442.824 93.7753 442.903 92.7695 442.881 91.7782C442.933 91.5735 443.037 91.3969 443.192 91.2485C443.368 91.0992 443.547 91.0207 443.729 91.0129C443.971 91.0025 444.151 91.167 444.266 91.5063C444.263 92.3772 444.178 93.4541 444.01 94.737C443.817 96.3856 443.657 98.0934 443.531 99.8606C443.396 101.932 443.062 104.771 442.528 108.378C442.014 111.964 441.417 115.534 440.739 119.086C440.534 119.5 440.259 119.714 439.916 119.729ZM439.702 126.087C439.54 126.094 439.407 126.049 439.301 125.952C439.196 125.855 439.14 125.736 439.134 125.595C439.128 125.453 439.134 125.362 439.153 125.32C438.742 125.176 438.527 124.892 438.509 124.467C438.491 124.043 438.647 123.671 438.978 123.354C439.328 123.035 439.686 122.868 440.05 122.852C440.373 122.838 440.63 122.939 440.822 123.153C441.012 123.347 441.116 123.627 441.131 123.99C441.149 124.415 441.017 124.866 440.733 125.344C440.47 125.821 440.126 126.069 439.702 126.087Z" fill="#F3F3F3"/>
</svg>
