<svg width="287" height="117" viewBox="0 0 287 117" fill="none" xmlns="http://www.w3.org/2000/svg">
<path d="M220.609 17.1292C175.462 -5.60687 88.6495 -1.76037 44.0884 18.1348C23.7942 27.1957 -13.6278 53.4501 9.14365 78.2374C13.1599 82.6095 18.0419 86.1614 23.0929 89.2348C78.6816 123.058 156.213 119.613 215.872 99.3751C224.77 96.3568 233.525 92.7737 241.58 87.9038C247.605 84.2615 253.429 79.747 258.121 74.4786C271.854 59.0556 268.267 43.5342 253.491 30.4587C236.359 15.2987 212.932 10.6007 190.827 8.02785C171.497 5.77808 152.192 5.34607 132.771 6.26426C96.3479 7.98603 54.3732 10.7257 23.8253 31.4522C10.4828 40.5052 -3.85196 59.85 7.58496 75.5069C19.9783 92.4728 49.2005 97.9664 68.8556 101.547C121.879 111.205 205.776 106.416 254.074 81.0707C259.282 78.3374 264.559 75.7903 269.218 72.1962C272.899 69.3562 276.424 66.118 279.482 62.6135C301.151 37.7773 252.797 22.1616 235.744 19.4798C182.097 11.0435 102.697 -1.13095 53.2908 21.3112" stroke="white" stroke-opacity="0.25" stroke-width="2.92638" stroke-miterlimit="1.5" stroke-linecap="round" stroke-linejoin="round"/>
<path d="M35.406 58.7106C35.2127 58.7189 35.0998 58.6098 35.0673 58.3834C35.0803 58.155 35.1104 57.9259 35.1575 57.6961L34.6585 57.6149C33.9705 57.5077 33.6102 57.3409 33.5778 57.1144C33.5654 57.0922 33.5578 57.047 33.5549 56.9787C33.552 56.9105 33.5831 56.8408 33.6484 56.7697C33.7133 56.6872 33.7741 56.6447 33.8309 56.6423C33.8764 56.6403 33.9338 56.6493 34.0029 56.6691C34.0949 56.6879 34.2278 56.7335 34.4018 56.8058C34.5762 56.8895 34.8738 56.9223 35.2945 56.9043L35.6583 55.0263C35.8088 54.0175 35.9644 53.128 36.125 52.3579L36.6407 49.6363L36.1283 49.6411C35.9578 49.6484 35.8684 49.5554 35.8601 49.3621C35.8484 49.0892 36.1496 48.9397 36.7635 48.9134C36.9694 47.868 37.1419 46.7101 37.2812 45.4398C37.4115 44.2268 37.6142 43.1075 37.8892 42.082C37.6885 42.1817 37.506 42.3091 37.3418 42.4642C37.2482 42.6732 37.1048 42.7819 36.9115 42.7902C36.8433 42.7931 36.7738 42.7676 36.7032 42.7137C36.6439 42.6592 36.6118 42.5752 36.6069 42.4615C36.5962 42.2113 36.7457 41.9771 37.0553 41.7588C37.3649 41.5406 37.7451 41.3762 38.196 41.2658C38.2594 41.1491 38.3479 41.0884 38.4616 41.0835C38.5412 41.0801 38.6284 41.122 38.7233 41.209C39.7821 41.1979 40.6448 41.5254 41.3112 42.1918C41.9776 42.8581 42.3354 43.7654 42.3845 44.9138C42.4108 45.5278 42.2718 46.1374 41.9673 46.7428C41.6738 47.3363 41.274 47.8432 40.7681 48.2635C40.2621 48.6839 39.7265 48.946 39.1614 49.0499C39.7883 49.0573 40.3885 49.2423 40.9622 49.605C41.5354 49.9564 42.0047 50.409 42.3701 50.9629C42.7351 51.5054 42.9295 52.0553 42.9533 52.6124C43.0215 54.2042 42.465 55.4411 41.284 56.3232C40.1029 57.2053 38.4265 57.6928 36.2549 57.7858L35.896 57.7841C35.8687 57.9447 35.8575 58.0819 35.8623 58.1956C35.8341 58.3335 35.7764 58.4499 35.6893 58.5447C35.6028 58.6509 35.5083 58.7062 35.406 58.7106ZM37.5132 48.8642C38.2839 48.7742 38.9806 48.5508 39.6032 48.1938C40.2367 47.8249 40.7237 47.3599 41.0642 46.7985C41.416 46.2367 41.5778 45.6261 41.5496 44.9666C41.5067 43.966 41.2181 43.2095 40.6835 42.697C40.149 42.1846 39.4492 41.9354 38.5841 41.9497C38.3417 42.9397 38.1276 44.1904 37.9417 45.702C37.7483 47.305 37.6055 48.359 37.5132 48.8642ZM36.6825 56.9986C37.8763 56.9475 38.8871 56.7448 39.7149 56.3904C40.5535 56.0242 41.1817 55.5302 41.5993 54.9087C42.0169 54.2871 42.2082 53.5669 42.1732 52.7483C42.1493 52.1912 41.9448 51.6703 41.5595 51.1856C41.1851 50.689 40.7014 50.2996 40.1084 50.0175C39.5154 49.7353 38.9062 49.6076 38.2809 49.6344C37.9171 49.65 37.6153 49.6515 37.3755 49.639C37.0134 51.5567 36.7417 53.0606 36.5606 54.1504C36.442 54.839 36.3678 55.2351 36.3381 55.3389L36.1275 56.4073C36.0804 56.6371 36.0432 56.8323 36.0159 56.993C36.2215 57.007 36.4437 57.0088 36.6825 56.9986Z" fill="#F3F3F3"/>
<path d="M46.6396 47.0553C46.4577 47.0631 46.3077 47.0183 46.1896 46.9208C46.0711 46.812 46.0089 46.6894 46.003 46.5529C45.9933 46.3255 46.076 46.1283 46.2511 45.9614C46.4153 45.8063 46.5998 45.7243 46.8044 45.7156C46.8954 45.7117 47.0221 45.7461 47.1847 45.8189C47.2564 45.8956 47.2961 46.0248 47.3039 46.2068C47.3272 46.7525 47.1058 47.0354 46.6396 47.0553ZM45.2046 57.4368C44.818 57.4534 44.6113 57.149 44.5846 56.5236C44.5778 56.3645 44.6001 56.2211 44.6516 56.0936C44.7002 55.8979 44.7418 55.674 44.7766 55.4219L44.9835 54.2683L45.2604 52.7528C45.3502 52.1908 45.4599 51.5597 45.5894 50.8593C45.6092 50.7901 45.6271 50.6754 45.643 50.5152C45.7358 50.0215 45.7804 49.7348 45.777 49.6552L45.7697 49.4846C45.7658 49.3937 45.718 49.2078 45.6263 48.9269C45.6204 48.7905 45.6605 48.6635 45.7466 48.5459C45.8441 48.4278 45.961 48.3659 46.0975 48.36C46.2226 48.3547 46.3342 48.4353 46.4325 48.602C46.5307 48.7686 46.5843 48.9543 46.593 49.1589C46.6027 49.3863 46.3938 50.6255 45.9662 52.8764C45.5386 55.1273 45.3277 56.321 45.3335 56.4574C45.3389 56.5825 45.3984 56.6426 45.5121 56.6377C45.569 56.6353 45.6681 56.557 45.8096 56.4029C45.9402 56.2606 46.051 56.1875 46.1419 56.1836C46.3239 56.1758 46.4197 56.2856 46.4294 56.513C46.4353 56.6495 46.3615 56.7893 46.2082 56.9326C46.0548 57.0758 45.8775 57.1916 45.6763 57.28C45.4755 57.3797 45.3183 57.432 45.2046 57.4368Z" fill="#F3F3F3"/>
<path d="M49.9628 64.0676C49.417 64.091 48.9485 63.9231 48.5572 63.564C48.1778 63.2157 47.9759 62.7573 47.9516 62.1888C47.9292 61.6658 48.0272 61.1604 48.2455 60.6727C48.4757 60.1958 48.8132 59.6972 49.2579 59.177C49.6374 58.7279 50.0957 58.2583 50.6328 57.7683L52.1791 56.3694C52.2465 56.0817 52.3018 55.7775 52.345 55.4567C52.4487 54.9511 52.5278 54.5376 52.5824 54.2164C52.2082 55.5879 51.6891 56.4986 51.0249 56.9485C50.8147 57.0942 50.6073 57.1714 50.4026 57.1801C50.0047 57.1972 49.6681 57.0521 49.393 56.745C49.1292 56.4373 48.9861 56.022 48.9638 55.499C48.9214 54.5098 49.0647 53.4671 49.3937 52.3709C49.7222 51.2633 50.1825 50.3095 50.7748 49.5096C51.3893 48.6973 52.0774 48.2749 52.8392 48.2423C53.2031 48.2267 53.5537 48.3028 53.8913 48.4706C53.958 48.4336 54.0312 48.4134 54.1108 48.41C54.3041 48.4017 54.4046 48.4885 54.4124 48.6704C54.4207 48.8637 54.3944 49.0471 54.3334 49.2206C54.0506 50.0642 53.6087 52.2474 53.0077 55.7701C53.1848 55.6486 53.388 55.4747 53.6176 55.2485C53.6725 55.2006 53.7712 55.1109 53.9136 54.9795C54.0556 54.8367 54.1708 54.735 54.2593 54.6742C54.3479 54.6135 54.4263 54.5817 54.4945 54.5787C54.6878 54.5705 54.7885 54.663 54.7968 54.8563C54.8031 55.0041 54.7682 55.1195 54.692 55.2025C54.01 55.767 53.4263 56.2363 52.9412 56.6101L52.7369 58.225L52.6699 58.655C52.5641 59.3772 52.4703 59.9792 52.3884 60.4611C52.307 60.9544 52.2019 61.4259 52.0731 61.8757C51.8838 62.5103 51.6098 63.0289 51.2512 63.4316C50.9039 63.8337 50.4744 64.0457 49.9628 64.0676ZM50.4187 56.3593C50.6461 56.3496 50.9011 56.1849 51.1836 55.8653C51.4655 55.5342 51.7323 55.1127 51.9837 54.6008C52.2461 54.077 52.4506 53.5328 52.5973 52.9684C52.8243 52.15 53.0141 51.3957 53.1668 50.7057C53.2635 50.3029 53.3832 49.7738 53.526 49.1184C53.3605 48.9774 53.1413 48.9128 52.8684 48.9245C52.3795 48.9454 51.8817 49.2913 51.3751 49.9623C50.8798 50.6328 50.4714 51.4704 50.15 52.4752C49.8393 53.4681 49.7013 54.3682 49.7359 55.1754C49.7704 55.9827 49.9981 56.3773 50.4187 56.3593ZM49.7728 63.2215C50.0115 63.2112 50.2251 63.1451 50.4136 63.0232C50.6025 62.9126 50.7766 62.7229 50.9359 62.454C51.0948 62.1739 51.2491 61.7857 51.3987 61.2895C51.5483 60.7932 51.6633 60.2871 51.7438 59.7711C51.8182 59.3806 51.877 59.025 51.9202 58.7042L51.9724 58.3261C51.9798 58.2346 51.9927 58.1372 52.0111 58.0339C52.0295 57.9306 52.0419 57.8219 52.0484 57.7077L52.082 57.2962C51.0072 58.2649 50.1789 59.1376 49.597 59.9143C49.0265 60.6905 48.7539 61.3742 48.7793 61.9654C48.806 62.5908 48.9595 62.9829 49.2397 63.1418C49.3563 63.2051 49.534 63.2317 49.7728 63.2215Z" fill="#F3F3F3"/>
<path d="M58.4893 56.9023C57.4433 56.9471 56.8928 56.3271 56.8378 55.0423C56.7959 54.0644 56.8581 53.122 57.0243 52.2151C57.2014 51.2962 57.4461 50.4941 57.7585 49.8086C58.0823 49.1227 58.4425 48.6232 58.8391 48.3101C59.1477 48.069 59.4385 47.9427 59.7114 47.931C60.2344 47.9086 60.6085 48.0008 60.8338 48.2076C60.6917 47.815 60.4923 47.4134 60.2355 47.003C59.9555 46.5821 59.7227 46.1991 59.537 45.8539C58.9726 44.9099 58.6712 43.9887 58.6328 43.0905C58.6079 42.5106 58.6997 41.9941 58.9081 41.541C59.1274 41.0759 59.4307 40.7098 59.818 40.4427C60.2047 40.1641 60.6482 40.0141 61.1485 39.9927C61.6033 39.9733 62.021 40.018 62.4016 40.127C62.8849 40.243 63.2413 40.3189 63.4706 40.3546C63.7114 40.3899 63.9966 40.4005 64.3263 40.3864C64.8948 40.362 65.3412 40.2803 65.6656 40.1411C65.6656 40.1411 65.7833 40.0962 66.0187 40.0064C66.1082 39.9683 66.2211 39.9464 66.3576 39.9406C66.5622 39.9318 66.6682 40.0127 66.6755 40.1833C66.6862 40.4334 66.4849 40.6528 66.0715 40.8413C65.6581 41.0299 65.2013 41.1349 64.701 41.1563C64.2803 41.1743 63.9555 41.1711 63.7267 41.1467C63.4973 41.111 63.0893 41.0259 62.5026 40.8916C61.997 40.7879 61.4713 40.7478 60.9255 40.7711C60.4139 40.793 60.0311 41.0316 59.7772 41.4867C59.5233 41.9418 59.4093 42.4706 59.4351 43.0732C59.4584 43.619 59.5533 44.1047 59.7196 44.5305C59.8854 44.9448 60.2061 45.5177 60.6816 46.2492C61.4609 47.4232 61.8695 48.4537 61.9075 49.3406L61.8551 50.1117L61.8565 50.1458C61.8945 51.0327 61.8012 51.9137 61.5767 52.7891C61.3636 53.6639 61.0662 54.4341 60.6846 55.0997C60.3144 55.7648 59.9194 56.2488 59.4995 56.5515C59.1899 56.7698 58.8532 56.8867 58.4893 56.9023ZM58.4365 56.0673C58.7321 56.0547 59.0009 55.9464 59.2427 55.7424C59.4841 55.527 59.7105 55.2268 59.9218 54.8419C60.2901 54.1313 60.5788 53.2931 60.7881 52.3273C60.9993 51.407 61.09 50.6001 61.0603 49.9065C61.0443 49.5313 60.9355 49.2512 60.7339 49.0662C60.5323 48.8811 60.2724 48.7955 59.954 48.8091C59.6584 48.8217 59.4119 48.9177 59.2145 49.097C59.0285 49.2759 58.8029 49.5931 58.5377 50.0487C58.2729 50.5156 58.0342 51.1922 57.8215 52.0784C57.6197 52.9528 57.5317 53.6912 57.5575 54.2938C57.5848 54.9306 57.6613 55.3886 57.7872 55.668C57.9131 55.9474 58.1295 56.0805 58.4365 56.0673Z" fill="#F3F3F3"/>
<path d="M65.5668 63.5192C65.1916 63.5353 64.8577 63.4528 64.5652 63.2717C64.284 63.09 64.0632 62.8546 63.9027 62.5653C63.7428 62.2874 63.6567 62.0063 63.6445 61.722C63.6158 61.0512 63.765 60.4126 64.0922 59.8063C64.4198 59.2114 64.9015 58.6212 65.5371 58.0358C65.7775 57.7977 66.3324 57.324 67.2019 56.6148L68.0106 55.9479L68.0791 55.552L68.1758 55.0182C68.221 54.7429 68.253 54.5593 68.2719 54.4673L68.3545 54.0025C68.1766 54.6366 67.8593 55.2083 67.4027 55.7177C66.9575 56.2265 66.5188 56.4902 66.0868 56.5087C65.632 56.5282 65.2609 56.3732 64.9734 56.0438C64.6854 55.703 64.5285 55.2313 64.5027 54.6287C64.4618 53.6736 64.6702 52.1554 65.1279 50.0741C65.357 49.0391 65.4698 48.4818 65.4664 48.4022L65.4235 48.199C65.4087 48.1199 65.4785 48.0201 65.6328 47.8996C65.7871 47.7791 65.9154 47.7167 66.0178 47.7123C66.2452 47.7025 66.3637 47.8114 66.3735 48.0388C66.3832 48.2662 66.2137 49.2303 65.8651 50.931C65.5164 52.6318 65.355 53.7835 65.3808 54.3861C65.4061 54.9773 65.4959 55.3437 65.65 55.4852C65.7928 55.6271 65.9665 55.6937 66.1711 55.685C66.6032 55.6665 67.0481 55.2829 67.5059 54.5343C67.8681 53.9493 68.1766 53.1729 68.4313 52.2051C68.6969 51.2256 68.9376 50.1958 69.1534 49.1158L69.224 48.771C69.3272 48.254 69.4216 47.9311 69.5072 47.8021C69.5923 47.6618 69.7145 47.5882 69.8736 47.5814C69.9987 47.576 70.0855 47.6065 70.1339 47.6728C70.1931 47.7272 70.2129 47.789 70.1931 47.8582C70.0585 48.7068 69.8328 49.9524 69.5158 51.5949C69.2266 53.0881 69.0273 54.2869 68.918 55.1915C68.8848 55.2157 69.076 55.0252 69.4915 54.6202C69.7092 54.383 69.8729 54.2166 69.9827 54.1207C70.0925 54.0249 70.1986 53.9748 70.3009 53.9704C70.4942 53.9621 70.595 54.0546 70.6033 54.2479C70.6091 54.3844 70.5685 54.5 70.4814 54.5949C70.0442 55.0237 69.4739 55.5379 68.7705 56.1375C68.3295 59.1408 67.9009 61.1013 67.4845 62.019C67.2558 62.53 66.9033 62.9437 66.4271 63.2603C66.1833 63.4188 65.8965 63.5051 65.5668 63.5192ZM65.5317 62.7006C65.9297 62.6836 66.2769 62.4124 66.5733 61.8871C66.7748 61.5368 66.9845 60.981 67.2025 60.2199L67.3884 59.3747L67.5305 58.7023L67.8483 56.9459L67.5693 57.2141C67.186 57.5723 66.8076 57.9131 66.4341 58.2366C65.1061 59.4098 64.4637 60.5023 64.507 61.5143C64.527 61.9804 64.6958 62.332 65.0135 62.569C65.1316 62.6665 65.3043 62.7103 65.5317 62.7006Z" fill="#F3F3F3"/>
<path d="M73.3374 63.067C72.7916 63.0903 72.3231 62.9225 71.9318 62.5633C71.5524 62.215 71.3505 61.7567 71.3262 61.1882C71.3038 60.6651 71.4018 60.1598 71.6201 59.672C71.8503 59.1951 72.1878 58.6966 72.6325 58.1763C73.012 57.7272 73.4703 57.2577 74.0075 56.7677L75.5537 55.3687C75.6211 55.0811 75.6764 54.7769 75.7196 54.4561C75.8233 53.9504 75.9024 53.537 75.957 53.2157C75.5829 54.5872 75.0637 55.4979 74.3995 55.9478C74.1893 56.0935 73.9819 56.1707 73.7772 56.1795C73.3793 56.1965 73.0428 56.0515 72.7676 55.7443C72.5038 55.4367 72.3608 55.0213 72.3384 54.4983C72.296 53.5091 72.4393 52.4664 72.7683 51.3702C73.0968 50.2626 73.5572 49.3089 74.1494 48.5089C74.7639 47.6967 75.4521 47.2742 76.2138 47.2416C76.5777 47.226 76.9284 47.3022 77.2659 47.47C77.3326 47.4329 77.4058 47.4127 77.4854 47.4093C77.6787 47.401 77.7792 47.4878 77.787 47.6698C77.7953 47.8631 77.769 48.0464 77.708 48.2199C77.4252 49.0635 76.9833 51.2467 76.3823 54.7694C76.5594 54.6479 76.7627 54.4741 76.9922 54.2478C77.0471 54.1999 77.1458 54.1102 77.2882 53.9788C77.4302 53.8361 77.5454 53.7343 77.634 53.6736C77.7225 53.6128 77.8009 53.581 77.8691 53.5781C78.0624 53.5698 78.1632 53.6623 78.1714 53.8556C78.1778 54.0034 78.1428 54.1188 78.0667 54.2018C77.3846 54.7664 76.801 55.2356 76.3158 55.6095L76.1115 57.2243L76.0445 57.6544C75.9387 58.3765 75.8449 58.9785 75.763 59.4605C75.6816 59.9538 75.5765 60.4253 75.4477 60.875C75.2584 61.5096 74.9845 62.0283 74.6258 62.4309C74.2785 62.833 73.849 63.0451 73.3374 63.067ZM73.7934 55.3587C74.0208 55.3489 74.2757 55.1842 74.5582 54.8646C74.8402 54.5336 75.1069 54.1121 75.3584 53.6001C75.6207 53.0763 75.8252 52.5322 75.9719 51.9678C76.1989 51.1493 76.3887 50.3951 76.5414 49.7051C76.6381 49.3023 76.7578 48.7732 76.9006 48.1178C76.7351 47.9768 76.5159 47.9121 76.243 47.9238C75.7541 47.9447 75.2564 48.2907 74.7497 48.9617C74.2544 49.6321 73.8461 50.4698 73.5246 51.4745C73.214 52.4674 73.0759 53.3675 73.1105 54.1748C73.1451 54.982 73.3727 55.3767 73.7934 55.3587ZM73.1474 62.2208C73.3862 62.2106 73.5997 62.1445 73.7882 62.0225C73.9771 61.9119 74.1512 61.7222 74.3106 61.4534C74.4694 61.1732 74.6237 60.785 74.7733 60.2888C74.9229 59.7926 75.0379 59.2865 75.1184 58.7704C75.1928 58.38 75.2516 58.0243 75.2948 57.7035L75.347 57.3254C75.3544 57.234 75.3674 57.1366 75.3857 57.0333C75.4041 56.93 75.4165 56.8212 75.423 56.7071L75.4567 56.2955C74.3818 57.2642 73.5535 58.1369 72.9716 58.9136C72.4011 59.6898 72.1286 60.3735 72.1539 60.9648C72.1806 61.5901 72.3341 61.9822 72.6143 62.1411C72.7309 62.2045 72.9086 62.231 73.1474 62.2208Z" fill="#F3F3F3"/>
<path d="M81.2387 62.8483C80.8635 62.8644 80.5296 62.7819 80.2371 62.6007C79.9559 62.4191 79.7351 62.1837 79.5746 61.8944C79.4147 61.6165 79.3286 61.3354 79.3164 61.0511C79.2877 60.3803 79.4369 59.7417 79.7641 59.1354C80.0917 58.5405 80.5734 57.9503 81.209 57.3649C81.4494 57.1268 82.0043 56.6531 82.8738 55.9438L83.6825 55.277L83.751 54.8811L83.8478 54.3473C83.8929 54.072 83.9249 53.8884 83.9438 53.7964L84.0264 53.3316C83.8485 53.9657 83.5313 54.5374 83.0746 55.0468C82.6294 55.5556 82.1908 55.8193 81.7587 55.8378C81.3039 55.8573 80.9328 55.7023 80.6453 55.3729C80.3573 55.0321 80.2004 54.5604 80.1746 53.9578C80.1337 53.0027 80.3421 51.4845 80.7998 49.4032C81.0289 48.3682 81.1417 47.8109 81.1383 47.7313L81.0954 47.5281C81.0806 47.449 81.1504 47.3492 81.3047 47.2287C81.459 47.1082 81.5873 47.0457 81.6897 47.0414C81.9171 47.0316 82.0356 47.1405 82.0454 47.3679C82.0551 47.5953 81.8857 48.5593 81.537 50.2601C81.1884 51.9609 81.0269 53.1126 81.0527 53.7152C81.078 54.3064 81.1678 54.6728 81.3219 54.8143C81.4647 54.9562 81.6384 55.0228 81.843 55.0141C82.2751 54.9956 82.72 54.612 83.1778 53.8634C83.54 53.2784 83.8485 52.502 84.1032 51.5342C84.3688 50.5546 84.6095 49.5249 84.8253 48.4449L84.896 48.1001C84.9991 47.5831 85.0935 47.2602 85.1791 47.1312C85.2642 46.9909 85.3864 46.9173 85.5456 46.9105C85.6706 46.9051 85.7574 46.9356 85.8058 47.0019C85.865 47.0563 85.8848 47.1181 85.865 47.1873C85.7304 48.0359 85.5047 49.2815 85.1877 50.924C84.8985 52.4172 84.6992 53.616 84.5899 54.5206C84.5567 54.5448 84.7479 54.3543 85.1634 53.9493C85.3811 53.7121 85.5448 53.5457 85.6546 53.4498C85.7644 53.354 85.8705 53.3039 85.9728 53.2995C86.1661 53.2912 86.2669 53.3837 86.2752 53.577C86.281 53.7135 86.2404 53.8291 86.1534 53.924C85.7161 54.3528 85.1458 54.867 84.4424 55.4666C84.0015 58.4699 83.5728 60.4304 83.1564 61.3481C82.9277 61.8591 82.5752 62.2728 82.099 62.5894C81.8552 62.7479 81.5684 62.8342 81.2387 62.8483ZM81.2036 62.0297C81.6016 62.0127 81.9488 61.7415 82.2452 61.2162C82.4467 60.8659 82.6564 60.3101 82.8744 59.549L83.0603 58.7038L83.2024 58.0314L83.5202 56.275L83.2412 56.5432C82.8579 56.9014 82.4795 57.2422 82.106 57.5657C80.778 58.7389 80.1356 59.8314 80.1789 60.8434C80.1989 61.3095 80.3677 61.6611 80.6854 61.8981C80.8035 61.9956 80.9762 62.0394 81.2036 62.0297Z" fill="#F3F3F3"/>
<path d="M89.0873 55.4386C88.5757 55.4606 88.1979 55.2831 87.9539 54.9062C87.8567 54.7623 87.7693 54.5838 87.6918 54.3707C87.572 53.9658 87.495 53.3653 87.4609 52.5694C87.4497 52.3079 87.5108 51.8725 87.6442 51.263C87.5494 51.176 87.4995 51.0756 87.4946 50.9619C87.4849 50.7345 87.6135 50.5467 87.8806 50.3986C88.203 49.4166 88.6465 48.6003 89.211 47.9496C89.7754 47.2989 90.3874 46.9595 91.0469 46.9313C91.4789 46.9128 91.8493 47.0507 92.1581 47.345C92.4777 47.6275 92.6947 48.0397 92.8091 48.5815C92.7827 48.7649 92.681 48.9173 92.504 49.0388C92.414 49.0655 92.3576 49.0793 92.3349 49.0802C92.2098 49.0856 92.1098 49.0101 92.0347 48.8539C91.9752 48.5261 91.8379 48.2472 91.623 48.0172C91.4081 47.7872 91.1756 47.6775 90.9255 47.6882C90.0955 47.7238 89.39 48.5399 88.8091 50.1367C88.8887 50.1333 89.0501 50.1777 89.2932 50.2698C89.5131 50.3515 89.6743 50.3902 89.7766 50.3858C89.9017 50.3804 90.0194 50.3355 90.1296 50.2511C90.2632 50.177 90.3697 50.1383 90.4493 50.1349C90.6426 50.1266 90.7439 50.2305 90.7531 50.4465C90.7614 50.6398 90.6431 50.8043 90.3983 50.9401C90.1644 51.064 89.9509 51.1301 89.7576 51.1384C89.6325 51.1438 89.4486 51.1061 89.206 51.0253C88.9865 50.955 88.774 50.9128 88.5684 50.8988C88.3443 51.7855 88.244 52.5017 88.2674 53.0475C88.2932 53.6501 88.3621 54.0629 88.4741 54.2859C88.5971 54.4971 88.8467 54.606 89.2228 54.6127C89.473 54.602 89.6703 54.5537 89.8147 54.4678L90.233 54.2619C90.4263 54.2536 90.5276 54.3575 90.5368 54.5735C90.5456 54.7782 90.3831 54.9731 90.0493 55.1583C89.7263 55.3316 89.4057 55.425 89.0873 55.4386Z" fill="#F3F3F3"/>
<path d="M100.284 55.0448C100.102 55.0526 99.9942 54.9376 99.9613 54.6998C100.032 53.6943 100.238 52.6433 100.578 51.5466C100.897 50.485 101.171 49.2886 101.398 47.9575L100.785 48.7869L100.17 49.5991C99.4937 50.5621 98.8592 51.3069 98.2666 51.8335C98.1672 51.9061 98.055 51.9451 97.9299 51.9504C97.8048 51.9558 97.6944 51.9035 97.5985 51.7937C97.5027 51.6839 97.4097 51.5057 97.3194 51.2589C97.24 51.0003 97.1579 50.6792 97.0731 50.2956L96.7559 48.8739L96.6546 48.5023C95.8346 50.6333 95.2782 52.138 94.9854 53.0162C94.9557 53.12 94.9203 53.224 94.8792 53.3283C94.849 53.4207 94.819 53.5188 94.7893 53.6226L94.6087 54.1942C94.5889 54.2634 94.58 54.3207 94.5819 54.3662C94.5631 54.4581 94.5432 54.5273 94.5224 54.5738C94.5694 54.6059 94.595 54.6732 94.5994 54.7755C94.6033 54.8665 94.5504 54.9599 94.4406 55.0557C94.3421 55.151 94.2304 55.2014 94.1053 55.2067C93.912 55.215 93.8107 55.1111 93.8015 54.8951C93.7621 53.9741 94.6715 51.2698 96.5297 46.782C96.6574 46.5715 96.7894 46.4633 96.9259 46.4575C97.1874 46.4463 97.324 46.5771 97.3357 46.85C97.3405 46.9637 97.3132 47.1243 97.2538 47.3319C97.2625 47.5366 97.3133 47.7907 97.406 48.0943C97.4617 48.3311 97.5548 48.777 97.6854 49.4321C97.7632 49.9186 97.8936 50.437 98.0766 50.9873L98.841 50.0832C99.9892 48.7013 100.68 47.8003 100.912 47.3803C101.355 46.5526 101.719 46.1327 102.003 46.1205C102.196 46.1122 102.326 46.2035 102.391 46.3944C102.318 47.6277 102.055 49.0571 101.6 50.6827C101.136 52.3428 100.85 53.6309 100.741 54.5468C100.712 54.6847 100.649 54.8013 100.551 54.8967C100.464 54.9915 100.375 55.0409 100.284 55.0448Z" fill="#F3F3F3"/>
<path d="M105.704 54.8298C105.112 54.8551 104.659 54.641 104.343 54.1875C104.039 53.7335 103.873 53.1825 103.845 52.5344C103.801 51.4997 103.929 50.4919 104.229 49.5108C104.539 48.5179 104.982 47.6902 105.557 47.0277C106.11 46.3548 106.749 46.0027 107.477 45.9716C108.523 45.9268 109.08 46.7003 109.148 48.2921C109.183 49.088 109.087 49.9066 108.861 50.7478C108.635 51.589 108.325 52.3426 107.932 53.0087C107.551 53.6743 107.144 54.1588 106.713 54.462C106.381 54.6926 106.045 54.8152 105.704 54.8298ZM105.807 54.0565C106.16 54.0414 106.539 53.7176 106.944 53.0852C107.362 52.4522 107.699 51.6746 107.955 50.7524C108.223 49.8296 108.344 49.0499 108.316 48.4132C108.288 47.7537 108.231 47.3461 108.144 47.1903C108.069 47.0227 107.979 46.907 107.873 46.8431C107.768 46.7793 107.607 46.752 107.391 46.7612C107.153 46.7715 106.906 46.8731 106.653 47.0662C106.144 47.4184 105.713 48.0063 105.361 48.8301C104.81 50.0612 104.559 51.2452 104.608 52.3822C104.641 53.1553 104.885 53.6802 105.342 53.9569C105.504 54.0296 105.659 54.0628 105.807 54.0565Z" fill="#F3F3F3"/>
<path d="M118.405 54.3203C117.37 54.3646 116.423 53.9381 115.565 53.0408C115.146 52.5803 114.502 51.7649 113.632 50.5948L113.627 50.4924C113.621 50.3446 113.678 50.2112 113.798 50.0921C113.918 49.9617 114.04 49.8938 114.165 49.8885C114.268 49.8841 114.338 49.9267 114.376 50.0162C114.886 51.0195 115.514 51.8583 116.261 52.5326C117.007 53.2069 117.795 53.5262 118.625 53.4907C119.295 53.4392 119.922 53.1846 120.506 52.7267C121.101 52.257 121.604 51.6318 122.015 50.851C122.437 50.0584 122.734 49.1628 122.908 48.1644C123.004 47.2149 123.056 46.7057 123.065 46.637C121.829 47.829 120.773 48.4438 119.897 48.4812C118.669 48.5338 118.009 47.4856 117.917 45.3367C117.871 44.2452 118.161 42.2451 118.788 39.3363L119.089 37.9907C119.141 37.8746 119.223 37.7743 119.333 37.6898C119.443 37.6054 119.549 37.561 119.652 37.5566C119.8 37.5502 119.878 37.6437 119.886 37.837C119.35 40.4912 119.024 42.3163 118.907 43.3123C118.821 44.2159 118.789 44.9463 118.813 45.5034C118.84 46.1287 118.976 46.6526 119.222 47.0749C119.479 47.4967 119.796 47.6996 120.171 47.6836C120.569 47.6665 121.082 47.4281 121.712 46.9683C122.342 46.5085 122.828 46.0264 123.171 45.5219C123.716 40.1676 124.586 37.465 125.78 37.4138C126.132 37.3988 126.321 37.6982 126.348 38.3122C126.368 38.7783 126.294 39.4422 126.125 40.3037C125.957 41.1538 125.693 42.0536 125.335 43.003C124.988 43.9405 124.551 44.7736 124.024 45.5024L123.866 46.9957C123.569 49.8903 122.628 52.0037 121.045 53.3359C120.319 53.9478 119.439 54.276 118.405 54.3203ZM124.09 44.2352C124.603 43.4501 125.002 42.5274 125.287 41.4673C125.572 40.4071 125.692 39.3654 125.649 38.3421C124.796 39.7113 124.276 41.6757 124.09 44.2352Z" fill="#F3F3F3"/>
<path d="M128.886 53.8545C128.704 53.8623 128.596 53.7473 128.563 53.5095L128.705 52.427C128.787 51.6945 128.89 50.8984 129.013 50.0388L129.089 49.4205C129.277 47.9658 129.395 47.1178 129.441 46.8766C129.541 46.2914 129.606 45.7989 129.634 45.399C129.663 45.2838 129.722 45.1845 129.809 45.101C129.908 45.017 130.009 44.9728 130.111 44.9685C130.248 44.9626 130.348 45.0551 130.414 45.246C130.421 45.4279 130.407 45.6335 130.372 45.8629C130.332 46.0126 130.289 46.3278 130.241 46.8082L130.016 48.3385C131.214 46.5103 132.247 45.3668 133.116 44.9082C133.316 44.7971 133.519 44.7372 133.723 44.7284C133.917 44.7201 134.133 44.8533 134.373 45.1278C134.623 45.4018 134.754 45.6468 134.763 45.8629C134.771 46.0448 134.731 46.1888 134.645 46.2951C134.558 46.4013 134.452 46.4571 134.327 46.4624C134.157 46.4697 133.996 46.3171 133.846 46.0046C133.834 45.9824 133.803 45.9267 133.754 45.8377C133.715 45.7368 133.672 45.6646 133.625 45.6211C133.588 45.5657 133.547 45.539 133.502 45.5409C133.422 45.5444 133.266 45.6194 133.033 45.766C132.811 45.9009 132.456 46.2521 131.967 46.8197C131.49 47.3756 131.123 47.8469 130.866 48.2338C131.014 49.2982 131.271 50.2326 131.635 51.0372C132 51.8417 132.382 52.3835 132.781 52.6626C132.992 52.8016 133.189 52.8672 133.371 52.8594C133.564 52.8512 133.715 52.7934 133.825 52.6862C133.945 52.5786 134.035 52.4096 134.093 52.1792C134.175 51.9479 134.243 51.8254 134.3 51.8116C134.333 51.7874 134.395 51.7733 134.486 51.7694C134.554 51.7665 134.635 51.8029 134.73 51.8786C134.813 51.9548 134.859 52.1009 134.868 52.3169C134.878 52.5443 134.791 52.7645 134.606 52.9774C134.249 53.4142 133.883 53.6406 133.507 53.6567C132.416 53.7034 131.53 52.8414 130.851 51.0708C130.557 50.3315 130.365 49.6962 130.274 49.1647C130.242 49.2117 130.126 49.433 129.926 49.8289L129.738 50.2128C129.598 51.2098 129.466 52.2577 129.343 53.3565C129.337 53.4821 129.284 53.5925 129.186 53.6879C129.088 53.7946 128.988 53.8501 128.886 53.8545Z" fill="#F3F3F3"/>
<path d="M135.761 60.3947C135.59 60.402 135.489 60.2924 135.456 60.066C135.742 58.7552 135.982 57.4464 136.177 56.1395L137.077 50.0183C137.43 47.6338 137.669 46.0403 137.795 45.2376L137.779 44.8624C137.774 44.7487 137.82 44.6385 137.918 44.5317C138.016 44.425 138.133 44.3688 138.27 44.3629C138.395 44.3576 138.494 44.4046 138.566 44.504C138.638 44.592 138.677 44.6929 138.682 44.8066C138.689 44.9658 138.667 45.1319 138.618 45.3048L138.559 45.5295C138.54 45.6214 138.531 45.6844 138.533 45.7185L138.347 46.9567C139.099 45.364 139.941 44.5477 140.873 44.5078C141.362 44.4868 141.721 44.6196 141.949 44.9059C142.189 45.1804 142.321 45.6076 142.346 46.1875C142.393 47.279 142.286 48.3714 142.025 49.4647C141.764 50.558 141.36 51.4866 140.812 52.2505C140.253 53.0375 139.564 53.4486 138.746 53.4837C138.427 53.4973 138.169 53.44 137.969 53.3119C137.782 53.1946 137.625 52.9792 137.497 52.6657L137.336 53.6807C137.117 54.9431 136.958 55.8953 136.86 56.5374C136.647 57.9362 136.435 59.1014 136.224 60.0331C136.131 60.2649 135.977 60.3854 135.761 60.3947ZM138.831 52.677C139.422 52.6517 139.957 52.2528 140.437 51.4805C141.032 50.4868 141.399 49.2011 141.536 47.6232C141.572 47.1319 141.582 46.71 141.567 46.3575C141.536 45.6185 141.338 45.2567 140.974 45.2723C140.61 45.2879 140.206 45.5672 139.763 46.1101C139.157 46.8537 138.671 47.7402 138.305 48.7697C137.938 49.7877 137.771 50.6663 137.802 51.4054C137.84 52.2808 138.183 52.7047 138.831 52.677Z" fill="#F3F3F3"/>
<path d="M149.431 52.8383C149.169 52.8495 148.919 52.7235 148.68 52.4604C148.451 52.1854 148.331 51.8887 148.317 51.5703C148.287 50.8654 148.423 49.6635 148.726 47.9647C148.468 48.5909 148.126 49.2377 147.699 49.9053C147.283 50.561 146.869 51.1425 146.458 51.6499C146.047 52.1573 145.742 52.4893 145.544 52.6459C145.269 52.8741 144.961 52.9955 144.62 53.0101C143.971 53.0378 143.63 52.6424 143.595 51.8237C143.561 51.0278 143.82 50.0258 144.372 48.8175C144.923 47.5978 145.595 46.5325 146.388 45.6215C147.181 44.7218 147.833 44.2611 148.345 44.2392C148.868 44.2168 149.173 44.4315 149.261 44.8834C149.301 45.0184 149.324 45.1655 149.331 45.3246C149.386 45.2881 149.448 45.2684 149.516 45.2654C149.778 45.2542 149.914 45.3737 149.925 45.6239L149.928 45.6921L149.755 46.4513C149.62 47.0266 149.491 47.875 149.369 48.9966C149.246 50.1181 149.2 51.0484 149.232 51.7875L149.407 51.8825C149.687 52.0414 149.831 52.2061 149.838 52.3766C149.843 52.4903 149.807 52.5944 149.732 52.6887C149.656 52.7831 149.556 52.8329 149.431 52.8383ZM144.718 52.1174C144.843 52.112 144.944 52.0679 145.02 51.9849C146.137 50.946 147.108 49.5319 147.931 47.7425C148.401 46.7541 148.655 46.168 148.693 45.9841C148.707 45.7785 148.713 45.6529 148.711 45.6075C148.706 45.4938 148.673 45.3927 148.612 45.3041C148.552 45.2156 148.476 45.1733 148.385 45.1772C148.271 45.182 148.126 45.2395 147.948 45.3497C147.503 45.6079 146.985 46.137 146.393 46.9369C145.812 47.7364 145.341 48.5767 144.98 49.4578C144.597 50.3513 144.42 51.1392 144.449 51.8213C144.458 52.026 144.547 52.1247 144.718 52.1174Z" fill="#F3F3F3"/>
<path d="M152.717 42.5142C152.535 42.522 152.385 42.4772 152.267 42.3797C152.149 42.2709 152.086 42.1482 152.08 42.0118C152.07 41.773 152.147 41.5761 152.311 41.421C152.487 41.2654 152.677 41.1832 152.882 41.1744C152.95 41.1715 153.077 41.206 153.262 41.2778C153.334 41.3544 153.375 41.5178 153.386 41.768C153.396 42.0068 153.335 42.1916 153.204 42.3225C153.073 42.442 152.91 42.5059 152.717 42.5142ZM154.627 42.4325C154.457 42.4398 154.307 42.3949 154.177 42.2979C154.059 42.1891 153.996 42.0665 153.991 41.93C153.981 41.7026 154.064 41.5054 154.239 41.3385C154.414 41.1829 154.599 41.1009 154.792 41.0927C154.883 41.0888 155.01 41.1232 155.172 41.196C155.244 41.2727 155.285 41.4418 155.297 41.7033C155.306 41.9307 155.246 42.1098 155.115 42.2407C154.983 42.3603 154.821 42.4242 154.627 42.4325ZM152.527 52.8424C152.14 52.859 151.934 52.5546 151.907 51.9292C151.902 51.8155 151.924 51.6722 151.974 51.4992C152.023 51.3035 152.064 51.0796 152.099 50.8275L152.306 49.6739L152.583 48.1584C152.673 47.5964 152.782 46.9652 152.912 46.2649C152.932 46.1957 152.95 46.081 152.965 45.9208C153.058 45.4271 153.103 45.1404 153.099 45.0608L153.092 44.8902C153.088 44.7993 153.04 44.6134 152.949 44.3325C152.943 44.1961 152.983 44.0691 153.069 43.9515C153.167 43.8334 153.283 43.7714 153.42 43.7656C153.545 43.7602 153.657 43.8409 153.755 44.0076C153.853 44.1742 153.907 44.3599 153.915 44.5645C153.925 44.7919 153.716 46.0311 153.289 48.282C152.861 50.5329 152.65 51.7266 152.656 51.863C152.661 51.9881 152.721 52.0482 152.835 52.0433C152.891 52.0409 152.991 51.9626 153.132 51.8084C153.263 51.6662 153.373 51.5931 153.464 51.5892C153.646 51.5814 153.742 51.6912 153.752 51.9186C153.758 52.055 153.684 52.1949 153.531 52.3381C153.377 52.4814 153.2 52.5972 152.999 52.6855C152.798 52.7853 152.641 52.8376 152.527 52.8424Z" fill="#F3F3F3"/>
<path d="M161.828 52.4614C161.509 52.475 161.261 52.4002 161.083 52.2369C160.917 52.0732 160.828 51.8549 160.816 51.582C160.804 51.2978 160.857 50.8057 160.975 50.1058L161.279 48.0254C160.476 48.6862 159.721 49.0318 159.017 49.0619C158.505 49.0839 158.107 48.9642 157.822 48.703C157.804 48.8177 157.786 48.9324 157.769 49.047C157.762 49.1612 157.75 49.2756 157.732 49.3903C157.703 49.7675 157.662 50.1508 157.61 50.5403C157.464 51.9021 157.186 52.5917 156.776 52.6093C156.606 52.6166 156.498 52.5016 156.454 52.2643C156.518 51.373 156.71 49.9865 157.028 48.1048C157.357 46.2113 157.592 44.9311 157.735 44.2643C157.764 44.1492 157.822 44.0499 157.91 43.9664C158.009 43.8824 158.109 43.8382 158.212 43.8338C158.348 43.828 158.449 43.9205 158.514 44.1114C158.522 44.2933 158.445 44.8889 158.283 45.8982C158.157 46.6668 158.059 47.326 157.992 47.8756C158.254 48.1491 158.652 48.2745 159.187 48.2516C159.71 48.2292 160.273 47.9431 160.876 47.3933C161.062 47.2145 161.236 47.0248 161.398 46.8242L161.605 45.6706C161.763 44.8323 161.949 44.2491 162.162 43.921C162.268 43.7342 162.418 43.6367 162.611 43.6284C162.805 43.6201 162.906 43.724 162.915 43.9401L162.919 44.0253C162.385 46.201 162.06 47.7755 161.942 48.7488C161.83 49.5851 161.761 50.243 161.736 50.7225C161.718 51.0992 161.704 51.3048 161.694 51.3394L161.686 51.5618C161.689 51.6301 161.719 51.663 161.776 51.6605C161.822 51.6586 161.861 51.6398 161.893 51.6042C161.949 51.5677 162.039 51.5468 162.164 51.5414C162.357 51.5331 162.458 51.6313 162.467 51.836C162.484 52.2339 162.271 52.4424 161.828 52.4614Z" fill="#F3F3F3"/>
<path d="M165.885 59.2247C165.51 59.2407 165.176 59.1582 164.884 58.9771C164.602 58.7955 164.382 58.56 164.221 58.2707C164.061 57.9928 163.975 57.7117 163.963 57.4275C163.934 56.7566 164.083 56.1181 164.411 55.5117C164.738 54.9168 165.22 54.3266 165.856 53.7413C166.096 53.5032 166.651 53.0295 167.52 52.3202L168.329 51.6534L168.398 51.2575L168.494 50.7236C168.539 50.4483 168.571 50.2647 168.59 50.1728L168.673 49.7079C168.495 50.342 168.178 50.9137 167.721 51.4231C167.276 51.932 166.837 52.1956 166.405 52.2141C165.95 52.2336 165.579 52.0786 165.292 51.7492C165.004 51.4084 164.847 50.9367 164.821 50.3341C164.78 49.379 164.989 47.8608 165.446 45.7795C165.675 44.7445 165.788 44.1873 165.785 44.1077L165.742 43.9045C165.727 43.8254 165.797 43.7256 165.951 43.605C166.106 43.4845 166.234 43.4221 166.336 43.4177C166.564 43.408 166.682 43.5168 166.692 43.7442C166.702 43.9716 166.532 44.9357 166.184 46.6364C165.835 48.3372 165.673 49.4889 165.699 50.0915C165.725 50.6827 165.814 51.0491 165.968 51.1906C166.111 51.3326 166.285 51.3992 166.49 51.3904C166.922 51.3719 167.367 50.9883 167.824 50.2397C168.187 49.6547 168.495 48.8783 168.75 47.9106C169.015 46.931 169.256 45.9012 169.472 44.8212L169.542 44.4765C169.646 43.9595 169.74 43.6365 169.826 43.5075C169.911 43.3672 170.033 43.2936 170.192 43.2868C170.317 43.2814 170.404 43.3119 170.452 43.3782C170.512 43.4326 170.531 43.4944 170.512 43.5636C170.377 44.4123 170.151 45.6578 169.834 47.3003C169.545 48.7935 169.346 49.9923 169.236 50.8969C169.203 50.9211 169.394 50.7307 169.81 50.3256C170.028 50.0885 170.191 49.922 170.301 49.8262C170.411 49.7303 170.517 49.6802 170.619 49.6758C170.813 49.6676 170.913 49.7601 170.922 49.9534C170.928 50.0898 170.887 50.2054 170.8 50.3003C170.363 50.7291 169.792 51.2433 169.089 51.843C168.648 54.8462 168.219 56.8067 167.803 57.7244C167.574 58.2354 167.222 58.6492 166.746 58.9657C166.502 59.1242 166.215 59.2106 165.885 59.2247ZM165.85 58.406C166.248 58.389 166.595 58.1178 166.892 57.5926C167.093 57.2422 167.303 56.6865 167.521 55.9253L167.707 55.0802L167.849 54.4077L168.167 52.6513L167.888 52.9196C167.504 53.2777 167.126 53.6185 166.753 53.9421C165.425 55.1152 164.782 56.2078 164.825 57.2197C164.845 57.6859 165.014 58.0374 165.332 58.2744C165.45 58.3719 165.623 58.4158 165.85 58.406Z" fill="#F3F3F3"/>
<path d="M177.675 51.7659C177.493 51.7737 177.385 51.6587 177.352 51.4209L177.494 50.3384C177.577 49.6058 177.679 48.8098 177.802 47.9502L177.878 47.3318C178.066 45.8772 178.184 45.0292 178.23 44.788C178.331 44.2028 178.395 43.7102 178.423 43.3103C178.453 43.1952 178.511 43.0958 178.599 43.0124C178.697 42.9284 178.798 42.8842 178.9 42.8798C179.037 42.874 179.138 42.9665 179.203 43.1574C179.211 43.3393 179.197 43.5449 179.161 43.7743C179.122 43.924 179.078 44.2391 179.03 44.7196L178.805 46.2499C180.003 44.4216 181.036 43.2782 181.905 42.8196C182.105 42.7085 182.308 42.6485 182.512 42.6398C182.706 42.6315 182.922 42.7646 183.162 43.0391C183.413 43.3132 183.543 43.5582 183.552 43.7742C183.56 43.9561 183.52 44.1002 183.434 44.2064C183.347 44.3127 183.241 44.3684 183.116 44.3738C182.946 44.3811 182.785 44.2285 182.635 43.916C182.623 43.8937 182.592 43.8381 182.543 43.7491C182.504 43.6482 182.461 43.576 182.414 43.5325C182.377 43.4771 182.336 43.4504 182.291 43.4523C182.211 43.4557 182.055 43.5307 181.822 43.6774C181.6 43.8122 181.245 44.1634 180.757 44.7311C180.279 45.2869 179.912 45.7583 179.655 46.1452C179.803 47.2096 180.06 48.144 180.425 48.9485C180.789 49.7531 181.171 50.2949 181.571 50.5739C181.782 50.713 181.978 50.7786 182.16 50.7708C182.353 50.7625 182.505 50.7048 182.614 50.5976C182.735 50.4899 182.824 50.3209 182.883 50.0906C182.964 49.8593 183.033 49.7368 183.089 49.723C183.122 49.6988 183.184 49.6847 183.275 49.6808C183.343 49.6779 183.425 49.7143 183.519 49.79C183.602 49.8662 183.648 50.0123 183.657 50.2283C183.667 50.4557 183.58 50.6759 183.395 50.8888C183.038 51.3255 182.672 51.552 182.297 51.568C181.205 51.6147 180.32 50.7528 179.64 48.9821C179.346 48.2429 179.154 47.6075 179.063 47.0761C179.031 47.123 178.915 47.3444 178.715 47.7402L178.527 48.1242C178.387 49.1212 178.256 50.1691 178.132 51.2679C178.126 51.3934 178.074 51.5039 177.975 51.5992C177.877 51.7059 177.777 51.7615 177.675 51.7659Z" fill="#F3F3F3"/>
<path d="M184.55 58.306C184.38 58.3133 184.278 58.2038 184.246 57.9773C184.531 56.6666 184.771 55.3577 184.966 54.0508L185.866 47.9296C186.219 45.5452 186.459 43.9516 186.584 43.1489L186.568 42.7737C186.563 42.66 186.609 42.5498 186.707 42.4431C186.805 42.3364 186.922 42.2801 187.059 42.2743C187.184 42.2689 187.283 42.316 187.355 42.4154C187.428 42.5034 187.466 42.6043 187.471 42.718C187.478 42.8771 187.456 43.0432 187.407 43.2162L187.348 43.4408C187.329 43.5328 187.32 43.5958 187.322 43.6299L187.136 44.8681C187.888 43.2754 188.73 42.459 189.662 42.4191C190.151 42.3982 190.51 42.5309 190.739 42.8173C190.978 43.0918 191.11 43.519 191.135 44.0989C191.182 45.1904 191.075 46.2828 190.814 47.3761C190.553 48.4694 190.149 49.3979 189.601 50.1618C189.042 50.9489 188.353 51.36 187.535 51.395C187.216 51.4087 186.958 51.3514 186.759 51.2232C186.571 51.1059 186.414 50.8906 186.287 50.5771L186.125 51.5921C185.906 52.8544 185.747 53.8067 185.649 54.4487C185.436 55.8476 185.224 57.0128 185.013 57.9445C184.92 58.1763 184.766 58.2968 184.55 58.306ZM187.62 50.5883C188.211 50.563 188.746 50.1642 189.226 49.3919C189.821 48.3982 190.188 47.1124 190.325 45.5346C190.361 45.0433 190.372 44.6214 190.356 44.2689C190.325 43.5298 190.127 43.1681 189.763 43.1837C189.399 43.1993 188.996 43.4785 188.552 44.0215C187.946 44.7651 187.46 45.6516 187.094 46.681C186.727 47.6991 186.56 48.5777 186.591 49.3167C186.629 50.1922 186.972 50.6161 187.62 50.5883Z" fill="#F3F3F3"/>
<path d="M198.22 50.7497C197.958 50.7609 197.708 50.6349 197.469 50.3717C197.241 50.0967 197.12 49.8001 197.106 49.4817C197.076 48.7768 197.212 47.5749 197.516 45.8761C197.258 46.5022 196.915 47.1491 196.488 47.8166C196.072 48.4723 195.658 49.0539 195.247 49.5613C194.836 50.0687 194.531 50.4007 194.333 50.5572C194.058 50.7854 193.75 50.9068 193.409 50.9214C192.761 50.9492 192.419 50.5537 192.384 49.7351C192.35 48.9392 192.609 47.9371 193.161 46.7288C193.712 45.5092 194.384 44.4439 195.177 43.5329C195.97 42.6332 196.622 42.1724 197.134 42.1505C197.657 42.1281 197.962 42.3429 198.05 42.7948C198.09 42.9297 198.113 43.0768 198.12 43.236C198.176 43.1994 198.237 43.1797 198.306 43.1768C198.567 43.1656 198.703 43.2851 198.714 43.5352L198.717 43.6034L198.544 44.3626C198.409 44.9379 198.281 45.7864 198.158 46.9079C198.035 48.0295 197.989 48.9598 198.021 49.6988L198.196 49.7939C198.476 49.9527 198.62 50.1174 198.627 50.288C198.632 50.4017 198.597 50.5057 198.521 50.6001C198.445 50.6945 198.345 50.7443 198.22 50.7497ZM193.507 50.0287C193.632 50.0234 193.733 49.9792 193.809 49.8962C194.926 48.8574 195.897 47.4433 196.72 45.6538C197.19 44.6655 197.444 44.0794 197.482 43.8955C197.496 43.6899 197.502 43.5643 197.5 43.5188C197.495 43.4051 197.462 43.304 197.402 43.2155C197.341 43.127 197.265 43.0847 197.174 43.0885C197.06 43.0934 196.915 43.1509 196.737 43.261C196.293 43.5193 195.774 44.0483 195.182 44.8483C194.601 45.6477 194.13 46.488 193.769 47.3692C193.386 48.2627 193.209 49.0505 193.238 49.7327C193.247 49.9374 193.337 50.0361 193.507 50.0287Z" fill="#F3F3F3"/>
<path d="M202.443 50.7397C201.898 50.7631 201.457 50.5826 201.122 50.1983C200.797 49.8021 200.623 49.3198 200.598 48.7513C200.555 47.7507 200.693 46.7083 201.011 45.6239C201.341 44.5391 201.791 43.6256 202.363 42.8835C202.935 42.1414 203.557 41.756 204.227 41.7273C204.716 41.7063 205.042 41.8689 205.205 42.2151C205.242 42.2705 205.273 42.3318 205.298 42.399C205.324 42.4549 205.349 42.5108 205.374 42.5667C205.438 42.7234 205.498 42.8119 205.556 42.8322C205.607 42.944 205.633 43.0283 205.635 43.0851C205.64 43.1875 205.593 43.2863 205.494 43.3816C205.407 43.4765 205.307 43.5264 205.193 43.5312C204.954 43.5414 204.793 43.3718 204.71 43.0222C204.627 42.6727 204.432 42.5045 204.125 42.5176C203.715 42.5351 203.297 42.872 202.869 43.5282C202.441 44.173 202.083 44.9857 201.795 45.9663C201.515 46.8895 201.391 47.7093 201.422 48.4256C201.465 49.4375 201.856 49.9276 202.595 49.896C202.97 49.8799 203.31 49.6889 203.613 49.3228C203.645 49.2758 203.704 49.1992 203.791 49.093C203.877 48.9754 203.959 48.8922 204.037 48.8433C204.114 48.783 204.186 48.7514 204.255 48.7485C204.471 48.7393 204.583 48.8313 204.591 49.0246C204.601 49.252 204.503 49.5011 204.298 49.7718C204.093 50.0312 203.824 50.2535 203.49 50.4386C203.156 50.6238 202.807 50.7241 202.443 50.7397Z" fill="#F3F3F3"/>
<path d="M211.752 50.3071C211.626 50.3124 211.486 50.2159 211.329 50.0176C211.183 49.8074 211.107 49.6227 211.1 49.4635L211.088 49.1736C211.073 48.8211 211.272 47.7476 211.685 45.9529L211.866 45.0054L211.447 45.9973C211.316 46.3788 211.1 46.9177 210.799 47.614C210.035 49.4465 209.175 50.3832 208.22 50.4241C207.651 50.4484 207.251 50.1523 207.02 49.5357C206.954 49.3335 206.915 49.0789 206.902 48.7719C206.874 48.1352 206.959 47.3171 207.155 46.3177C207.268 45.7434 207.363 45.3178 207.443 45.041L207.56 44.5918C207.667 44.1543 207.772 43.6942 207.877 43.2113C207.992 42.7165 208.05 42.3439 208.051 42.0932C208.08 41.9781 208.139 41.8788 208.226 41.7953C208.325 41.7113 208.431 41.6669 208.545 41.662C208.659 41.6571 208.756 41.8011 208.837 42.0938C208.85 42.3894 208.808 42.7557 208.713 43.1926C208.618 43.6181 208.52 43.9982 208.42 44.3328C208.332 44.6669 208.279 44.8799 208.26 44.9719C207.856 46.4586 207.678 47.742 207.724 48.8221C207.739 49.1632 207.88 49.3964 208.147 49.5216C208.24 49.5632 208.366 49.5806 208.525 49.5738C208.843 49.5602 209.211 49.2255 209.627 48.5698C210.011 47.961 210.394 47.2042 210.777 46.2994C211.16 45.3945 211.466 44.5726 211.697 43.8337C211.936 43.0375 212.139 42.4536 212.305 42.082C212.471 41.7104 212.663 41.5199 212.879 41.5107C213.072 41.5024 213.173 41.5949 213.181 41.7882C213.187 41.936 213.114 42.3435 212.96 43.0108C212.813 43.5752 212.717 43.978 212.67 44.2192C212.623 44.4491 212.568 44.776 212.507 45.2001L212.197 47.5371L212.051 48.5173C212.044 48.6201 212.022 48.7748 211.985 48.9814C211.995 49.1974 212.035 49.3381 212.106 49.4034L212.268 49.6015C212.304 49.6342 212.324 49.7073 212.329 49.821C212.334 49.9347 212.27 50.04 212.137 50.1368C212.017 50.2445 211.888 50.3012 211.752 50.3071Z" fill="#F3F3F3"/>
<path d="M216.612 50.099C216.385 50.1087 216.163 49.9986 215.949 49.7686C215.745 49.5381 215.572 49.2265 215.43 48.8339C215.299 48.4409 215.225 48.0226 215.206 47.5792C215.182 47.0334 215.181 46.4753 215.202 45.9049C215.031 45.8894 214.941 45.7964 214.934 45.6259C214.933 45.5918 214.941 45.5288 214.96 45.4368L215.276 44.8253C215.45 43.0409 215.851 40.6943 216.478 37.7856C216.929 35.8298 217.503 34.4611 218.199 33.6796C218.427 33.4192 218.649 33.2844 218.865 33.2751C219.649 33.2416 220.062 33.7023 220.103 34.6574C220.154 35.8512 219.684 37.2383 218.692 38.8185C218.415 39.2746 218.032 39.889 217.541 40.6618C217.028 41.4583 216.643 42.181 216.386 42.8299C216.335 42.9574 216.259 43.0461 216.158 43.096L216.121 43.4222C217.164 41.9651 218.128 41.2176 219.015 41.1796C219.368 41.1645 219.626 41.3414 219.79 41.7103C219.953 42.0678 220.045 42.491 220.066 42.9799C220.1 43.7758 219.965 44.7385 219.66 45.8678C219.366 46.9853 218.985 47.9186 218.516 48.6677C217.917 49.5932 217.283 50.0703 216.612 50.099ZM217.012 40.2744C217.309 39.7832 217.511 39.4443 217.617 39.2575L217.889 38.8187C218.854 37.1599 219.319 35.8927 219.281 35.0172C219.269 34.733 219.243 34.5233 219.203 34.3884C219.162 34.242 219.074 34.1718 218.938 34.1776C218.687 34.1883 218.406 34.5421 218.094 35.2389C217.481 36.5979 216.929 38.6092 216.439 41.2728L217.012 40.2744ZM216.747 49.256C217.167 49.238 217.573 48.8675 217.964 48.1446C218.365 47.4211 218.692 46.5244 218.942 45.4543C219.171 44.4307 219.276 43.6858 219.256 43.2197C219.235 42.7194 219.194 42.4193 219.132 42.3194C219.07 42.1968 218.925 42.1403 218.698 42.15C218.289 42.1676 217.861 42.4251 217.415 42.9226C216.981 43.4082 216.499 44.1237 215.969 45.069C215.929 45.72 215.921 46.3241 215.945 46.8812C216.013 48.4844 216.281 49.276 216.747 49.256Z" fill="#F3F3F3"/>
<path d="M224.383 49.7492C223.792 49.7745 223.339 49.5604 223.023 49.1069C222.719 48.6529 222.553 48.1019 222.525 47.4538C222.481 46.4191 222.609 45.4113 222.908 44.4302C223.219 43.4373 223.662 42.6096 224.237 41.9471C224.789 41.2742 225.429 40.9221 226.157 40.891C227.203 40.8462 227.76 41.6197 227.828 43.2115C227.862 44.0074 227.766 44.8259 227.54 45.6671C227.314 46.5084 227.005 47.262 226.612 47.9281C226.23 48.5937 225.824 49.0781 225.393 49.3814C225.061 49.612 224.724 49.7346 224.383 49.7492ZM224.487 48.9759C224.839 48.9608 225.219 48.637 225.624 48.0046C226.041 47.3716 226.378 46.594 226.635 45.6717C226.903 44.749 227.023 43.9693 226.996 43.3325C226.968 42.6731 226.911 42.2655 226.824 42.1097C226.749 41.9421 226.658 41.8263 226.553 41.7625C226.448 41.6987 226.287 41.6714 226.071 41.6806C225.832 41.6908 225.586 41.7925 225.332 41.9856C224.824 42.3377 224.393 42.9257 224.041 43.7495C223.49 44.9805 223.239 46.1645 223.288 47.3015C223.321 48.0747 223.565 48.5996 224.021 48.8762C224.184 48.949 224.339 48.9822 224.487 48.9759Z" fill="#F3F3F3"/>
<path d="M229.943 49.5625C229.738 49.5712 229.632 49.479 229.624 49.2857C229.62 49.2061 229.653 49.0395 229.722 48.786C229.869 48.2329 230.042 47.3484 230.24 46.1325L230.616 43.3314C230.661 43.056 230.7 42.6386 230.733 42.079C230.79 41.0059 231.017 40.4608 231.415 40.4438C231.643 40.434 231.763 40.594 231.777 40.9237C231.759 41.0157 231.722 41.1027 231.669 41.1847C231.562 41.8841 231.502 42.3366 231.488 42.5422C231.446 42.8858 231.377 43.2703 231.281 43.6959C231.205 44.0409 231.144 44.3624 231.1 44.6604C231.469 44.5079 231.91 44.4207 232.422 44.3988L233.515 44.3862C233.738 43.4768 234.175 42.507 234.825 41.4767C235.232 40.8556 235.912 40.5246 236.867 40.4837C237.174 40.4706 237.457 40.5496 237.715 40.7208C237.973 40.892 238.131 41.1359 238.19 41.4523C238.262 41.5403 238.311 41.618 238.337 41.6852C238.358 42.9828 238.284 44.0454 238.115 44.8728C237.944 45.6888 237.708 46.4279 237.406 47.0901C236.872 48.1837 236.212 48.8556 235.425 49.1057C235.054 49.224 234.767 49.2876 234.562 49.2964C234.175 49.3129 233.865 49.1155 233.631 48.704C233.408 48.2921 233.283 47.7507 233.254 47.0799C233.229 46.4887 233.264 45.8493 233.36 45.1617L232.506 45.1812C232.222 45.1933 231.928 45.2344 231.623 45.3044C231.342 45.3848 231.191 45.4539 231.171 45.5117C231.128 45.5819 231.057 45.6419 230.956 45.6918C230.922 45.9552 230.901 46.1384 230.894 46.2412C230.809 46.9055 230.725 47.4673 230.642 47.9264C230.57 48.3738 230.465 48.8453 230.327 49.341C230.23 49.4818 230.102 49.5557 229.943 49.5625ZM234.89 48.5818C235.231 48.5672 235.631 48.3166 236.088 47.83C236.545 47.332 236.865 46.8171 237.047 46.2853C237.24 45.719 237.374 45.1436 237.452 44.5594C237.529 43.9638 237.567 43.1249 237.566 42.0428C237.531 42.0102 237.488 41.9493 237.439 41.8603C237.41 41.4515 237.191 41.2558 236.782 41.2734C236.099 41.3026 235.543 41.6168 235.113 42.2162C234.695 42.815 234.398 43.5909 234.222 44.5439C234.067 45.4504 234.005 46.2618 234.036 46.9781C234.082 48.0696 234.367 48.6042 234.89 48.5818Z" fill="#F3F3F3"/>
<path d="M246.818 38.4858C246.636 38.4936 246.486 38.4488 246.368 38.3513C246.25 38.2425 246.187 38.1198 246.182 37.9834C246.172 37.756 246.255 37.5588 246.43 37.3918C246.594 37.2367 246.778 37.1548 246.983 37.146C247.074 37.1421 247.201 37.1766 247.363 37.2494C247.435 37.326 247.475 37.4553 247.482 37.6372C247.506 38.183 247.284 38.4659 246.818 38.4858ZM245.383 48.8673C244.997 48.8839 244.79 48.5795 244.763 47.9541C244.756 47.7949 244.779 47.6516 244.83 47.5241C244.879 47.3284 244.92 47.1045 244.955 46.8524L245.162 45.6987L245.439 44.1833C245.529 43.6213 245.638 42.9901 245.768 42.2897C245.788 42.2205 245.806 42.1059 245.822 41.9457C245.914 41.4519 245.959 41.1653 245.956 41.0857L245.948 40.9151C245.944 40.8242 245.897 40.6383 245.805 40.3574C245.799 40.221 245.839 40.094 245.925 39.9764C246.023 39.8583 246.14 39.7963 246.276 39.7905C246.401 39.7851 246.513 39.8658 246.611 40.0324C246.709 40.1991 246.763 40.3847 246.772 40.5894C246.781 40.8168 246.572 42.056 246.145 44.3069C245.717 46.5578 245.506 47.7514 245.512 47.8879C245.517 48.013 245.577 48.0731 245.691 48.0682C245.748 48.0658 245.847 47.9875 245.988 47.8333C246.119 47.691 246.23 47.618 246.32 47.6141C246.502 47.6063 246.598 47.7161 246.608 47.9435C246.614 48.0799 246.54 48.2198 246.387 48.363C246.233 48.5063 246.056 48.6221 245.855 48.7104C245.654 48.8102 245.497 48.8624 245.383 48.8673Z" fill="#F3F3F3"/>
<path d="M41.9467 78.988C41.6283 79.0016 41.3802 78.9268 41.2024 78.7636C41.0359 78.5998 40.9468 78.3815 40.9351 78.1086C40.9229 77.8244 40.9759 77.3323 41.094 76.6324L41.398 74.552C40.5947 75.2129 39.8406 75.5584 39.1357 75.5886C38.624 75.6105 38.2259 75.4908 37.9414 75.2296C37.9235 75.3443 37.9056 75.459 37.8878 75.5736C37.8813 75.6878 37.8691 75.8023 37.8512 75.9169C37.8218 76.2941 37.7812 76.6774 37.7296 77.0669C37.5828 78.4287 37.3048 79.1184 36.8955 79.1359C36.7249 79.1432 36.6175 79.0282 36.5732 78.7909C36.6375 77.8996 36.8288 76.5131 37.1469 74.6314C37.4759 72.7379 37.7116 71.4577 37.8539 70.791C37.8831 70.6758 37.9415 70.5765 38.0291 70.493C38.128 70.409 38.2286 70.3648 38.3309 70.3605C38.4674 70.3546 38.5682 70.4471 38.6333 70.638C38.6411 70.8199 38.5641 71.4155 38.4022 72.4248C38.2757 73.1934 38.1786 73.8526 38.111 74.4022C38.3733 74.6758 38.7716 74.8011 39.306 74.7782C39.8291 74.7558 40.392 74.4697 40.995 73.9199C41.181 73.7411 41.3551 73.5514 41.5174 73.3508L41.7243 72.1972C41.8821 71.3589 42.0678 70.7757 42.2816 70.4476C42.3875 70.2608 42.5371 70.1633 42.7304 70.155C42.9237 70.1468 43.025 70.2506 43.0342 70.4667L43.0379 70.5519C42.5045 72.7276 42.1789 74.3021 42.0611 75.2754C41.9488 76.1117 41.8802 76.7696 41.8551 77.2491C41.8371 77.6258 41.8231 77.8314 41.8132 77.866L41.8056 78.0885C41.8086 78.1567 41.8384 78.1896 41.8953 78.1871C41.9408 78.1852 41.9798 78.1664 42.0125 78.1309C42.0679 78.0943 42.1581 78.0734 42.2832 78.068C42.4765 78.0597 42.5775 78.1579 42.5863 78.3626C42.6033 78.7605 42.3901 78.969 41.9467 78.988Z" fill="#F3F3F3"/>
<path d="M46.6623 78.769C46.2985 78.7846 46.0118 78.7399 45.8022 78.635C45.5922 78.5187 45.4193 78.3381 45.2836 78.0933C45.0258 77.6601 44.8835 77.1309 44.8568 76.5055C44.8101 75.414 44.9306 74.3723 45.2185 73.3803C45.5059 72.377 45.9195 71.5278 46.4592 70.8326C46.9777 70.1725 47.561 69.8286 48.2091 69.8009C48.5502 69.7863 48.8235 69.917 49.029 70.1929C49.2453 70.4571 49.362 70.7881 49.379 71.186C49.4087 71.8796 49.2526 72.49 48.9107 73.0172C48.5801 73.544 48.1208 73.9908 47.5328 74.3577C47.0229 74.6871 46.3993 75.0213 45.6621 75.3604L45.6805 76.5898C45.7214 77.5449 46.0318 78.0101 46.6117 77.9852C46.8732 77.974 47.1434 77.8998 47.4223 77.7626C47.7007 77.614 47.9895 77.4421 48.2887 77.2471C48.4331 77.1612 48.5508 77.1162 48.6417 77.1124C48.835 77.1041 48.936 77.2023 48.9448 77.4069C48.9511 77.5547 48.8165 77.7371 48.5411 77.9539C48.2769 78.1702 47.9604 78.3603 47.5916 78.5242C47.2222 78.6767 46.9124 78.7583 46.6623 78.769ZM45.7635 74.5359C45.8634 74.4747 46.0856 74.3456 46.4303 74.1486C46.5866 74.0736 46.8091 73.9501 47.0979 73.7783C47.6197 73.4598 48.003 73.1017 48.248 72.7039C48.5043 72.3056 48.6203 71.8222 48.596 71.2537C48.577 70.8103 48.3799 70.5966 48.0047 70.6127C47.6749 70.6268 47.3013 70.9447 46.8836 71.5663C46.4433 72.1888 46.1019 72.9951 45.8595 73.9851C45.7916 74.2614 45.7596 74.445 45.7635 74.5359Z" fill="#F3F3F3"/>
<path d="M51.9722 85.3762C51.2673 85.4064 50.7355 85.2241 50.3769 84.8294C50.0183 84.4347 49.8251 83.9133 49.7973 83.2652C49.7715 82.6626 49.9227 82.0695 50.2508 81.4859C50.579 80.9023 51.0549 80.3124 51.6787 79.7161C52.3024 79.1199 53.1373 78.4007 54.1834 77.5586C54.2016 76.9199 54.2064 76.4982 54.1976 76.2936C54.1796 75.8729 54.1029 75.5458 53.9676 75.3124C53.8319 75.0676 53.5989 74.9466 53.2687 74.9494L53.0372 75.1301C52.2543 75.7332 51.6581 76.0435 51.2488 76.061C51.101 76.0673 50.9915 76.0378 50.9204 75.9725C50.8493 75.9072 50.8115 75.8234 50.8071 75.7211C50.8032 75.6301 50.8663 75.5078 50.9964 75.3542C51.1701 75.1531 51.4344 74.9425 51.7895 74.7222C52.1441 74.4906 52.5528 74.325 53.0155 74.2255C53.672 73.5937 54.1278 73.0673 54.3832 72.6463C54.6494 72.2134 54.7701 71.707 54.7453 71.1272C54.7336 70.8543 54.6569 70.6582 54.5151 70.539C54.3733 70.4198 54.1262 70.3677 53.7737 70.3828C53.3871 70.3994 53.0591 70.4533 52.7896 70.5445C52.5315 70.6353 52.2207 70.8252 51.8572 71.1141C51.4828 71.4149 51.233 71.568 51.108 71.5734C50.9033 71.5821 50.7959 71.4671 50.7856 71.2283C50.7808 71.1146 50.8654 70.9629 51.0395 70.7732C51.225 70.583 51.4565 70.4023 51.7339 70.2309C52.4233 69.8369 53.092 69.626 53.7401 69.5983C54.3655 69.5715 54.8086 69.6778 55.0694 69.9173C55.3303 70.1567 55.4719 70.5379 55.4943 71.0609C55.5429 72.1979 55.059 73.2666 54.0425 74.267C54.6217 74.4928 54.9347 75.1514 54.9814 76.2429L54.9772 76.9436L56.234 75.9672C56.323 75.9178 56.4016 75.8917 56.4698 75.8888C56.6631 75.8805 56.7641 75.9787 56.7729 76.1833C56.7773 76.2857 56.7367 76.4013 56.6511 76.5303C56.4191 76.6997 56.2754 76.8026 56.22 76.8392L54.9299 77.8342C54.8064 79.2063 54.6053 80.4964 54.3267 81.7044C54.06 82.9232 53.8211 83.7308 53.6103 84.1271C53.3994 84.5234 53.1731 84.8236 52.9312 85.0276C52.6898 85.243 52.3702 85.3592 51.9722 85.3762ZM51.7703 84.6501C52.1114 84.6355 52.3846 84.4985 52.5899 84.2391C52.9353 83.7915 53.3031 82.6709 53.6933 80.8772C53.8866 80.0716 54.0233 79.274 54.1034 78.4846C52.7507 79.6133 51.751 80.6072 51.1043 81.4664C50.6951 82.0193 50.5017 82.5573 50.5241 83.0803C50.546 83.5919 50.6711 83.9853 50.8993 84.2603C51.1275 84.5353 51.4178 84.6652 51.7703 84.6501Z" fill="#F3F3F3"/>
<path d="M58.5627 78.2938C58.1533 78.3113 57.8252 78.2285 57.5781 78.0454C57.3306 77.851 57.1229 77.5239 56.9552 77.064C56.931 77.0309 56.9164 76.9575 56.9116 76.8438C56.9072 76.7414 56.9485 76.6428 57.0356 76.548C57.1222 76.4418 57.2223 76.3862 57.336 76.3813C57.4383 76.377 57.5377 76.4354 57.634 76.5565C57.6637 77.2501 58.0082 77.5828 58.6677 77.5545C59.1566 77.5336 59.6351 77.2682 60.103 76.7584C60.5705 76.2372 60.9916 75.5642 61.3664 74.7394C61.7001 74.0189 61.9398 73.365 62.0855 72.7779L62.2029 72.3286C62.31 71.9026 62.4228 71.4763 62.5412 71.0497C62.6705 70.6114 62.8025 70.2355 62.9372 69.9222C63.1134 69.516 63.2982 69.3087 63.4915 69.3004C63.6961 69.2917 63.8031 69.3953 63.8123 69.6113C63.8206 69.8046 63.7299 70.2129 63.5401 70.8361C63.332 71.5626 63.1695 72.4239 63.0527 73.4199C62.9354 74.4045 62.8977 75.3858 62.9395 76.3636C62.9634 76.9207 63.0905 77.2285 63.3208 77.287L63.5262 77.2953C63.6967 77.288 63.8428 77.2419 63.9645 77.1569C63.9981 77.1441 64.0753 77.0838 64.196 76.9762C64.2177 76.9524 64.3055 76.8746 64.4593 76.7428C64.6127 76.5995 64.7462 76.5254 64.8599 76.5206C65.0646 76.5118 65.1715 76.6155 65.1808 76.8315C65.1866 76.9679 65.0911 77.1315 64.8942 77.3222C64.6973 77.5128 64.4595 77.6768 64.1806 77.814C63.9017 77.9513 63.6428 78.025 63.4041 78.0352C62.6764 78.0664 62.2787 77.2917 62.2111 75.7113C62.1979 75.4043 62.2083 74.9824 62.2423 74.4456C61.8783 75.5205 61.3475 76.426 60.65 77.1621C59.9634 77.8864 59.2676 78.2636 58.5627 78.2938Z" fill="#F3F3F3"/>
<path d="M72.6348 77.5205C72.3732 77.5317 72.1229 77.4057 71.8839 77.1425C71.6557 76.8675 71.5348 76.5709 71.5211 76.2525C71.491 75.5476 71.6274 74.3457 71.9306 72.6469C71.6727 73.273 71.3301 73.9199 70.9031 74.5874C70.4869 75.2431 70.0733 75.8247 69.6621 76.3321C69.251 76.8395 68.9463 77.1715 68.7479 77.328C68.4729 77.5562 68.1649 77.6776 67.8238 77.6922C67.1757 77.72 66.8341 77.3245 66.7991 76.5059C66.765 75.71 67.024 74.7079 67.576 73.4996C68.1275 72.28 68.7995 71.2147 69.592 70.3037C70.385 69.404 71.0374 68.9432 71.549 68.9213C72.072 68.8989 72.3774 69.1137 72.4651 69.5656C72.505 69.7005 72.5284 69.8476 72.5352 70.0068C72.5906 69.9703 72.6524 69.9505 72.7206 69.9476C72.9821 69.9364 73.1182 70.0559 73.129 70.306L73.1319 70.3742L72.9593 71.1334C72.8245 71.7087 72.6957 72.5572 72.5728 73.6787C72.45 74.8003 72.4044 75.7306 72.436 76.4696L72.6109 76.5647C72.8911 76.7235 73.0348 76.8882 73.0421 77.0588C73.047 77.1725 73.0116 77.2765 72.9359 77.3709C72.8602 77.4653 72.7598 77.5151 72.6348 77.5205ZM67.9223 76.7995C68.0473 76.7942 68.148 76.75 68.2241 76.667C69.3415 75.6282 70.3119 74.2141 71.1351 72.4246C71.6054 71.4363 71.8594 70.8502 71.8971 70.6663C71.9111 70.4607 71.9171 70.3351 71.9151 70.2896C71.9103 70.1759 71.8775 70.0748 71.8167 69.9863C71.756 69.8978 71.6801 69.8555 71.5892 69.8593C71.4755 69.8642 71.3298 69.9217 71.1523 70.0318C70.7077 70.2901 70.1893 70.8191 69.5971 71.6191C69.0162 72.4185 68.5453 73.2588 68.1843 74.14C67.8011 75.0335 67.6241 75.8213 67.6533 76.5035C67.6621 76.7082 67.7517 76.8069 67.9223 76.7995Z" fill="#F3F3F3"/>
<path d="M81.9037 77.2262C81.7218 77.234 81.6143 77.119 81.5814 76.8812C81.6522 75.8757 81.8579 74.8247 82.1982 73.728C82.5173 72.6664 82.7907 71.47 83.0185 70.1389L82.4047 70.9683L81.7902 71.7805C81.1138 72.7435 80.4793 73.4883 79.8867 74.0149C79.7873 74.0875 79.6751 74.1265 79.55 74.1318C79.425 74.1372 79.3145 74.0849 79.2187 73.9751C79.1229 73.8653 79.0298 73.6871 78.9395 73.4403C78.8601 73.1817 78.778 72.8606 78.6932 72.477L78.3761 71.0553L78.2747 70.6837C77.4547 72.8148 76.8983 74.3194 76.6056 75.1976C76.5758 75.3014 76.5404 75.4054 76.4993 75.5097C76.4691 75.6021 76.4391 75.7002 76.4094 75.804L76.2288 76.3756C76.209 76.4448 76.2001 76.5021 76.202 76.5476C76.1832 76.6395 76.1634 76.7087 76.1426 76.7552C76.1895 76.7874 76.2152 76.8546 76.2196 76.9569C76.2234 77.0479 76.1705 77.1413 76.0607 77.2371C75.9623 77.3325 75.8505 77.3828 75.7254 77.3882C75.5321 77.3964 75.4309 77.2926 75.4216 77.0765C75.3822 76.1556 76.2916 73.4512 78.1498 68.9634C78.2775 68.7529 78.4096 68.6447 78.546 68.6389C78.8075 68.6277 78.9441 68.7585 78.9558 69.0314C78.9607 69.1451 78.9334 69.3057 78.8739 69.5133C78.8827 69.718 78.9334 69.9721 79.0261 70.2757C79.0818 70.5125 79.175 70.9585 79.3055 71.6135C79.3833 72.1 79.5137 72.6184 79.6967 73.1687L80.4611 72.2646C81.6094 70.8827 82.2998 69.9818 82.5324 69.5617C82.9754 68.734 83.339 68.3141 83.6233 68.3019C83.8166 68.2936 83.9458 68.3849 84.0109 68.5758C83.9384 69.8091 83.6749 71.2385 83.2206 72.8641C82.7563 74.5242 82.4697 75.8123 82.3608 76.7282C82.3325 76.8661 82.2692 76.9827 82.1707 77.0781C82.0837 77.1729 81.9947 77.2223 81.9037 77.2262Z" fill="#F3F3F3"/>
<path d="M91.0942 76.884C90.7759 76.8976 90.5278 76.8228 90.3499 76.6596C90.1835 76.4958 90.0944 76.2775 90.0827 76.0047C90.0705 75.7204 90.1235 75.2283 90.2416 74.5284L90.5455 72.448C89.7423 73.1089 88.9882 73.4544 88.2833 73.4846C87.7716 73.5065 87.3735 73.3868 87.089 73.1256C87.0711 73.2403 87.0532 73.355 87.0353 73.4697C87.0288 73.5838 87.0167 73.6983 86.9988 73.8129C86.9694 74.1901 86.9288 74.5734 86.8771 74.9629C86.7304 76.3247 86.4524 77.0144 86.0431 77.0319C85.8725 77.0392 85.7651 76.9242 85.7207 76.6869C85.7851 75.7956 85.9764 74.4092 86.2945 72.5275C86.6235 70.6339 86.8591 69.3537 87.0015 68.687C87.0307 68.5718 87.0891 68.4725 87.1767 68.389C87.2756 68.305 87.3762 68.2609 87.4785 68.2565C87.615 68.2506 87.7158 68.3431 87.7809 68.534C87.7887 68.7159 87.7116 69.3115 87.5498 70.3209C87.4233 71.0895 87.3262 71.7486 87.2586 72.2982C87.5209 72.5718 87.9192 72.6971 88.4536 72.6742C88.9766 72.6518 89.5396 72.3658 90.1426 71.816C90.3286 71.6371 90.5027 71.4474 90.665 71.2468L90.8719 70.0932C91.0296 69.2549 91.2154 68.6717 91.4292 68.3436C91.5351 68.1569 91.6847 68.0593 91.878 68.0511C92.0713 68.0428 92.1725 68.1467 92.1818 68.3627L92.1854 68.448C91.6521 70.6237 91.3265 72.1981 91.2087 73.1714C91.0964 74.0077 91.0278 74.6656 91.0027 75.1451C90.9847 75.5218 90.9707 75.7274 90.9608 75.762L90.9532 75.9845C90.9561 76.0527 90.986 76.0856 91.0429 76.0831C91.0884 76.0812 91.1274 76.0624 91.1601 76.0269C91.2155 75.9903 91.3057 75.9694 91.4308 75.964C91.6241 75.9557 91.7251 76.0539 91.7338 76.2586C91.7509 76.6566 91.5377 76.865 91.0942 76.884Z" fill="#F3F3F3"/>
<path d="M95.8092 76.648C95.2179 76.6733 94.7645 76.4592 94.4489 76.0057C94.1447 75.5517 93.9788 75.0006 93.951 74.3526C93.9067 73.3179 94.0344 72.31 94.3342 71.329C94.6448 70.3361 95.0877 69.5084 95.6631 68.8458C96.2152 68.1729 96.8551 67.8209 97.5828 67.7897C98.6288 67.745 99.1859 68.5185 99.2541 70.1103C99.2881 70.9062 99.1922 71.7247 98.9662 72.5659C98.7402 73.4071 98.4308 74.1608 98.0378 74.8269C97.6563 75.4925 97.2498 75.9769 96.8186 76.2801C96.4867 76.5108 96.1503 76.6334 95.8092 76.648ZM95.9127 75.8747C96.2652 75.8596 96.6443 75.5358 97.0501 74.9033C97.4673 74.2704 97.8042 73.4928 98.0608 72.5705C98.3289 71.6478 98.4493 70.868 98.422 70.2313C98.3938 69.5719 98.3365 69.1642 98.2501 69.0085C98.1746 68.8408 98.0842 68.7251 97.9789 68.6613C97.8737 68.5974 97.713 68.5701 97.497 68.5794C97.2582 68.5896 97.012 68.6913 96.7583 68.8844C96.2494 69.2365 95.8189 69.8245 95.4669 70.6483C94.9159 71.8793 94.6647 73.0633 94.7134 74.2003C94.7465 74.9735 94.9911 75.4984 95.4471 75.775C95.6097 75.8478 95.7649 75.881 95.9127 75.8747Z" fill="#F3F3F3"/>
<path d="M101.369 76.4612C101.164 76.47 101.058 76.3777 101.049 76.1844C101.046 76.1049 101.079 75.9383 101.148 75.6847C101.295 75.1317 101.468 74.2472 101.666 73.0313L102.042 70.2301C102.087 69.9548 102.126 69.5374 102.159 68.9778C102.216 67.9047 102.443 67.3596 102.841 67.3425C103.068 67.3328 103.189 67.4928 103.203 67.8225C103.184 67.9145 103.148 68.0014 103.095 68.0835C102.988 68.7829 102.928 69.2354 102.914 69.441C102.871 69.7845 102.802 70.1691 102.707 70.5947C102.63 70.9396 102.57 71.2612 102.526 71.5592C102.895 71.4067 103.336 71.3195 103.847 71.2976L104.94 71.285C105.163 70.3756 105.6 69.4057 106.251 68.3755C106.657 67.7544 107.338 67.4234 108.293 67.3825C108.6 67.3694 108.883 67.4484 109.14 67.6196C109.398 67.7908 109.557 68.0346 109.616 68.351C109.688 68.4391 109.737 68.5167 109.763 68.584C109.784 69.8816 109.71 70.9441 109.54 71.7715C109.37 72.5876 109.134 73.3267 108.832 73.9889C108.298 75.0825 107.638 75.7543 106.851 76.0044C106.48 76.1228 106.192 76.1864 105.988 76.1952C105.601 76.2117 105.291 76.0143 105.057 75.6028C104.834 75.1909 104.709 74.6495 104.68 73.9787C104.655 73.3874 104.69 72.7481 104.786 72.0605L103.932 72.08C103.648 72.0921 103.354 72.1332 103.049 72.2032C102.768 72.2836 102.617 72.3527 102.597 72.4105C102.554 72.4807 102.482 72.5407 102.382 72.5905C102.348 72.854 102.327 73.0371 102.32 73.14C102.235 73.8043 102.151 74.366 102.068 74.8252C101.996 75.2725 101.891 75.7441 101.752 76.2398C101.656 76.3806 101.528 76.4544 101.369 76.4612ZM106.316 75.4806C106.657 75.466 107.056 75.2154 107.514 74.7288C107.971 74.2308 108.291 73.7159 108.473 73.1841C108.665 72.6177 108.8 72.0424 108.878 71.4582C108.955 70.8625 108.993 70.0237 108.992 68.9416C108.956 68.9089 108.914 68.8481 108.865 68.7591C108.836 68.3503 108.617 68.1546 108.207 68.1721C107.525 68.2013 106.969 68.5156 106.539 69.115C106.12 69.7138 105.823 70.4897 105.648 71.4427C105.493 72.3492 105.431 73.1606 105.461 73.8769C105.508 74.9684 105.793 75.503 106.316 75.4806Z" fill="#F3F3F3"/>
<path d="M110.716 79.0341C110.512 79.0428 110.405 78.9449 110.396 78.7402C110.392 78.6493 110.422 78.5512 110.486 78.4459C110.691 78.1865 110.914 77.8011 111.154 77.2896C111.406 76.7777 111.582 76.3828 111.684 76.1051C111.683 76.071 111.665 76.0433 111.63 76.022C111.584 76.0126 111.559 75.9737 111.556 75.9055C111.422 75.9568 111.326 75.9837 111.269 75.9861C111.042 75.9959 110.923 75.8814 110.913 75.6426C110.904 75.4266 110.975 75.2242 111.126 75.0354C111.277 74.8353 111.478 74.7299 111.728 74.7192C112.217 74.6983 112.474 74.9948 112.5 75.6088C112.518 76.0181 112.364 76.5487 112.039 77.2005C111.726 77.8632 111.38 78.4361 111.002 78.9193C110.903 78.9919 110.807 79.0302 110.716 79.0341Z" fill="#F3F3F3"/>
<path d="M119.045 75.6703C118.602 75.6893 118.238 75.5796 117.955 75.3411C117.872 75.2763 117.828 75.1814 117.823 75.0563C117.818 74.9426 117.865 74.8381 117.963 74.7427C118.05 74.6479 118.157 74.5978 118.282 74.5924C118.407 74.5871 118.494 74.6232 118.543 74.7009C118.626 74.7771 118.696 74.831 118.755 74.8627C118.824 74.8825 118.944 74.8887 119.114 74.8814C119.455 74.8668 119.815 74.6236 120.194 74.1518C120.335 73.9976 120.54 73.7212 120.807 73.3225C121.236 72.689 121.574 72.2132 121.823 71.895C121.898 71.7893 122.011 71.642 122.163 71.4533C122.237 71.3362 122.35 71.1833 122.502 70.9945L122.744 70.6766C122.176 71.2363 121.693 71.5247 121.295 71.5417C121.022 71.5534 120.797 71.4776 120.619 71.3143C120.452 71.1392 120.361 70.8698 120.345 70.5059C120.328 70.108 120.476 69.5777 120.789 68.915C121.103 68.2523 121.489 67.6833 121.947 67.2081C122.45 66.7195 122.923 66.4657 123.366 66.4468C123.81 66.4278 124.163 66.5664 124.426 66.8627C124.439 66.885 124.505 66.9789 124.626 67.1446C124.66 67.1204 124.722 67.1064 124.813 67.1025C124.972 67.0957 125.073 67.1882 125.115 67.38C125.138 67.9144 124.981 68.5077 124.644 69.16C124.56 69.3117 124.495 69.3942 124.45 69.4075L124.398 69.7857C124.32 70.3586 124.253 70.8056 124.199 71.1269C123.91 72.8821 123.758 73.9992 123.744 74.4782C123.727 74.8662 123.692 75.1183 123.64 75.2344C123.588 75.3392 123.47 75.3955 123.288 75.4033C123.129 75.4101 123.031 75.3858 122.995 75.3304C122.958 75.2636 122.936 75.162 122.931 75.0256C122.994 73.8496 123.197 72.3374 123.539 70.4888C122.933 71.2323 122.379 71.9965 121.878 72.7811L120.882 74.2761C120.604 74.698 120.328 75.0345 120.054 75.2854C119.791 75.5245 119.455 75.6528 119.045 75.6703ZM121.543 70.9501C122.032 70.9292 122.623 70.4939 123.315 69.6441C123.521 69.396 123.667 69.2132 123.753 69.0956C123.866 68.5441 123.979 68.1178 124.091 67.8168C123.932 67.5502 123.8 67.3907 123.695 67.3383C123.613 67.2962 123.499 67.2783 123.351 67.2846C123.055 67.2973 122.722 67.4824 122.35 67.8401C121.978 68.1977 121.676 68.615 121.446 69.0919C121.216 69.5688 121.108 69.9664 121.121 70.2847C121.141 70.7395 121.281 70.9613 121.543 70.9501Z" fill="#F3F3F3"/>
<path d="M126.802 75.3383C126.62 75.3461 126.512 75.2311 126.479 74.9933L126.621 73.9108C126.704 73.1782 126.806 72.3822 126.929 71.5226L127.005 70.9043C127.193 69.4496 127.311 68.6016 127.357 68.3604C127.458 67.7752 127.522 67.2826 127.55 66.8827C127.58 66.7676 127.638 66.6683 127.726 66.5848C127.825 66.5008 127.925 66.4566 128.027 66.4523C128.164 66.4464 128.265 66.5389 128.33 66.7298C128.338 66.9117 128.324 67.1173 128.288 67.3467C128.249 67.4964 128.205 67.8115 128.158 68.292L127.933 69.8223C129.13 67.9941 130.163 66.8506 131.032 66.392C131.232 66.2809 131.435 66.221 131.64 66.2122C131.833 66.2039 132.049 66.337 132.289 66.6116C132.54 66.8856 132.67 67.1306 132.679 67.3466C132.687 67.5286 132.647 67.6726 132.561 67.7789C132.474 67.8851 132.368 67.9409 132.243 67.9462C132.073 67.9535 131.913 67.8009 131.762 67.4884C131.75 67.4661 131.719 67.4105 131.67 67.3215C131.631 67.2206 131.588 67.1484 131.541 67.1049C131.504 67.0495 131.463 67.0228 131.418 67.0247C131.338 67.0281 131.182 67.1032 130.949 67.2498C130.727 67.3846 130.372 67.7359 129.884 68.3035C129.406 68.8593 129.039 69.3307 128.782 69.7176C128.93 70.782 129.187 71.7164 129.552 72.521C129.916 73.3255 130.298 73.8673 130.698 74.1463C130.909 74.2854 131.105 74.351 131.287 74.3432C131.48 74.335 131.632 74.2772 131.741 74.17C131.862 74.0623 131.951 73.8933 132.01 73.663C132.091 73.4317 132.16 73.3092 132.216 73.2954C132.249 73.2712 132.311 73.2571 132.402 73.2532C132.47 73.2503 132.552 73.2867 132.646 73.3624C132.729 73.4386 132.775 73.5847 132.785 73.8007C132.794 74.0281 132.707 74.2483 132.522 74.4612C132.165 74.898 131.799 75.1244 131.424 75.1404C130.332 75.1872 129.447 74.3252 128.767 72.5545C128.474 71.8153 128.281 71.18 128.19 70.6485C128.158 70.6954 128.042 70.9168 127.843 71.3127L127.654 71.6966C127.514 72.6936 127.383 73.7415 127.259 74.8403C127.253 74.9659 127.201 75.0763 127.102 75.1717C127.004 75.2784 126.904 75.3339 126.802 75.3383Z" fill="#F3F3F3"/>
<path d="M140.21 81.7184C139.835 81.7344 139.501 81.6519 139.209 81.4708C138.928 81.2892 138.707 81.0537 138.546 80.7644C138.386 80.4865 138.3 80.2054 138.288 79.9212C138.259 79.2503 138.409 78.6118 138.736 78.0054C139.063 77.4105 139.545 76.8203 140.181 76.235C140.421 75.9969 140.976 75.5232 141.846 74.8139L142.654 74.1471L142.723 73.7512L142.819 73.2174C142.865 72.942 142.897 72.7584 142.915 72.6665L142.998 72.2016C142.82 72.8357 142.503 73.4075 142.046 73.9168C141.601 74.4257 141.162 74.6894 140.73 74.7079C140.276 74.7273 139.904 74.5723 139.617 74.2429C139.329 73.9021 139.172 73.4304 139.146 72.8278C139.105 71.8728 139.314 70.3546 139.771 68.2732C140.001 67.2382 140.113 66.681 140.11 66.6014L140.067 66.3982C140.052 66.3191 140.122 66.2193 140.276 66.0987C140.431 65.9782 140.559 65.9158 140.661 65.9114C140.889 65.9017 141.007 66.0105 141.017 66.2379C141.027 66.4653 140.857 67.4294 140.509 69.1301C140.16 70.8309 139.999 71.9826 140.024 72.5852C140.05 73.1764 140.139 73.5428 140.294 73.6843C140.436 73.8263 140.61 73.8929 140.815 73.8841C141.247 73.8656 141.692 73.4821 142.149 72.7334C142.512 72.1484 142.82 71.372 143.075 70.4043C143.341 69.4247 143.581 68.3949 143.797 67.3149L143.868 66.9702C143.971 66.4532 144.065 66.1302 144.151 66.0012C144.236 65.8609 144.358 65.7873 144.517 65.7805C144.642 65.7752 144.729 65.8056 144.777 65.8719C144.837 65.9263 144.856 65.9881 144.837 66.0573C144.702 66.906 144.476 68.1515 144.159 69.794C143.87 71.2872 143.671 72.4861 143.562 73.3906C143.528 73.4148 143.72 73.2244 144.135 72.8193C144.353 72.5822 144.517 72.4157 144.626 72.3199C144.736 72.224 144.842 72.1739 144.945 72.1695C145.138 72.1613 145.239 72.2538 145.247 72.4471C145.253 72.5835 145.212 72.6992 145.125 72.794C144.688 73.2228 144.117 73.737 143.414 74.3367C142.973 77.3399 142.544 79.3004 142.128 80.2181C141.899 80.7291 141.547 81.1429 141.071 81.4594C140.827 81.6179 140.54 81.7043 140.21 81.7184ZM140.175 80.8997C140.573 80.8827 140.92 80.6115 141.217 80.0863C141.418 79.7359 141.628 79.1802 141.846 78.4191L142.032 77.5739L142.174 76.9014L142.492 75.145L142.213 75.4133C141.83 75.7714 141.451 76.1122 141.078 76.4358C139.75 77.6089 139.107 78.7015 139.151 79.7134C139.171 80.1796 139.339 80.5311 139.657 80.7681C139.775 80.8656 139.948 80.9095 140.175 80.8997Z" fill="#F3F3F3"/>
<path d="M147.228 74.4638C147.047 74.4716 146.939 74.3566 146.906 74.1188L147.048 73.0363C147.13 72.3038 147.233 71.5077 147.356 70.6482L147.432 70.0298C147.62 68.5751 147.737 67.7272 147.784 67.486C147.884 66.9007 147.949 66.4082 147.977 66.0083C148.006 65.8931 148.065 65.7938 148.152 65.7103C148.251 65.6264 148.352 65.5822 148.454 65.5778C148.591 65.572 148.691 65.6645 148.756 65.8553C148.764 66.0372 148.75 66.2429 148.715 66.4722C148.675 66.622 148.632 66.9371 148.584 67.4175L148.359 68.9478C149.557 67.1196 150.59 65.9762 151.459 65.5175C151.659 65.4064 151.861 65.3465 152.066 65.3377C152.259 65.3295 152.476 65.4626 152.715 65.7371C152.966 66.0111 153.096 66.2562 153.106 66.4722C153.113 66.6541 153.074 66.7982 152.988 66.9044C152.901 67.0106 152.795 67.0664 152.67 67.0718C152.499 67.0791 152.339 66.9265 152.189 66.6139C152.177 66.5917 152.146 66.5361 152.097 66.447C152.058 66.3462 152.015 66.274 151.968 66.2304C151.931 66.175 151.89 66.1483 151.845 66.1503C151.765 66.1537 151.609 66.2287 151.376 66.3754C151.154 66.5102 150.799 66.8614 150.31 67.4291C149.833 67.9849 149.466 68.4562 149.209 68.8431C149.357 69.9075 149.614 70.842 149.978 71.6465C150.343 72.451 150.725 72.9928 151.124 73.2719C151.335 73.4109 151.532 73.4766 151.714 73.4688C151.907 73.4605 152.058 73.4028 152.168 73.2956C152.288 73.1879 152.378 73.0189 152.436 72.7886C152.518 72.5573 152.586 72.4347 152.643 72.4209C152.676 72.3967 152.738 72.3827 152.829 72.3788C152.897 72.3759 152.978 72.4122 153.073 72.4879C153.156 72.5641 153.202 72.7102 153.211 72.9263C153.221 73.1537 153.133 73.3738 152.949 73.5868C152.592 74.0235 152.226 74.2499 151.85 74.266C150.759 74.3127 149.873 73.4507 149.194 71.6801C148.9 70.9409 148.708 70.3055 148.617 69.774C148.585 69.821 148.469 70.0424 148.269 70.4382L148.081 70.8222C147.941 71.8191 147.809 72.867 147.686 73.9659C147.68 74.0914 147.627 74.2019 147.529 74.2972C147.431 74.4039 147.331 74.4595 147.228 74.4638Z" fill="#F3F3F3"/>
<path d="M154.104 81.004C153.933 81.0113 153.832 80.9017 153.799 80.6753C154.085 79.3645 154.325 78.0557 154.52 76.7488L155.42 70.6276C155.773 68.2432 156.012 66.6496 156.138 65.8469L156.121 65.4717C156.117 65.358 156.163 65.2478 156.261 65.1411C156.359 65.0344 156.476 64.9781 156.613 64.9722C156.738 64.9669 156.837 65.0139 156.909 65.1133C156.981 65.2014 157.02 65.3022 157.025 65.4159C157.031 65.5751 157.01 65.7412 156.961 65.9142L156.902 66.1388C156.883 66.2307 156.874 66.2938 156.876 66.3279L156.69 67.5661C157.441 65.9733 158.284 65.157 159.216 65.1171C159.705 65.0962 160.064 65.2289 160.292 65.5153C160.532 65.7898 160.664 66.217 160.689 66.7968C160.736 67.8883 160.629 68.9807 160.368 70.074C160.107 71.1673 159.703 72.0959 159.154 72.8598C158.596 73.6469 157.907 74.058 157.089 74.093C156.77 74.1066 156.511 74.0494 156.312 73.9212C156.125 73.8039 155.968 73.5885 155.84 73.275L155.679 74.29C155.459 75.5524 155.301 76.5046 155.203 77.1467C154.99 78.5455 154.777 79.7108 154.567 80.6425C154.474 80.8742 154.32 80.9947 154.104 81.004ZM157.174 73.2863C157.765 73.261 158.3 72.8622 158.78 72.0899C159.375 71.0961 159.742 69.8104 159.879 68.2326C159.915 67.7412 159.925 67.3193 159.91 66.9669C159.879 66.2278 159.681 65.8661 159.317 65.8816C158.953 65.8972 158.549 66.1765 158.106 66.7195C157.5 67.463 157.014 68.3495 156.648 69.379C156.281 70.3971 156.114 71.2756 156.145 72.0147C156.183 72.8902 156.526 73.314 157.174 73.2863Z" fill="#F3F3F3"/>
<path d="M167.773 73.4476C167.512 73.4588 167.262 73.3329 167.023 73.0697C166.794 72.7947 166.673 72.498 166.66 72.1797C166.63 71.4747 166.766 70.2729 167.069 68.574C166.811 69.2002 166.469 69.847 166.042 70.5146C165.626 71.1703 165.212 71.7518 164.801 72.2593C164.39 72.7667 164.085 73.0986 163.887 73.2552C163.612 73.4834 163.304 73.6048 162.962 73.6194C162.314 73.6472 161.973 73.2517 161.938 72.4331C161.904 71.6372 162.163 70.6351 162.715 69.4268C163.266 68.2072 163.938 67.1418 164.731 66.2308C165.524 65.3312 166.176 64.8704 166.688 64.8485C167.211 64.8261 167.516 65.0408 167.604 65.4927C167.644 65.6277 167.667 65.7748 167.674 65.934C167.729 65.8974 167.791 65.8777 167.859 65.8748C168.121 65.8636 168.257 65.983 168.268 66.2332L168.271 66.3014L168.098 67.0606C167.963 67.6359 167.834 68.4843 167.711 69.6059C167.589 70.7274 167.543 71.6577 167.575 72.3968L167.75 72.4918C168.03 72.6507 168.174 72.8154 168.181 72.986C168.186 73.0997 168.15 73.2037 168.075 73.298C167.999 73.3924 167.898 73.4423 167.773 73.4476ZM163.061 72.7267C163.186 72.7214 163.287 72.6772 163.363 72.5942C164.48 71.5554 165.451 70.1412 166.274 68.3518C166.744 67.3634 166.998 66.7773 167.036 66.5935C167.05 66.3878 167.056 66.2623 167.054 66.2168C167.049 66.1031 167.016 66.002 166.955 65.9135C166.895 65.8249 166.819 65.7826 166.728 65.7865C166.614 65.7914 166.469 65.8489 166.291 65.959C165.846 66.2172 165.328 66.7463 164.736 67.5462C164.155 68.3457 163.684 69.186 163.323 70.0671C162.94 70.9606 162.763 71.7485 162.792 72.4307C162.801 72.6353 162.89 72.734 163.061 72.7267Z" fill="#F3F3F3"/>
<path d="M171.06 63.1236C170.878 63.1313 170.728 63.0865 170.61 62.989C170.491 62.8802 170.429 62.7576 170.423 62.6211C170.413 62.3824 170.49 62.1854 170.654 62.0303C170.83 61.8747 171.02 61.7925 171.225 61.7838C171.293 61.7809 171.42 61.8153 171.605 61.8871C171.677 61.9638 171.718 62.1272 171.729 62.3773C171.739 62.6161 171.678 62.8009 171.547 62.9318C171.416 63.0514 171.253 63.1153 171.06 63.1236ZM172.97 63.0418C172.8 63.0491 172.65 63.0042 172.52 62.9073C172.402 62.7984 172.339 62.6758 172.334 62.5394C172.324 62.312 172.406 62.1148 172.582 61.9478C172.757 61.7922 172.942 61.7103 173.135 61.702C173.226 61.6981 173.353 61.7325 173.515 61.8053C173.587 61.882 173.628 62.0511 173.639 62.3126C173.649 62.54 173.589 62.7191 173.457 62.8501C173.326 62.9696 173.163 63.0335 172.97 63.0418ZM170.87 73.4518C170.483 73.4683 170.277 73.1639 170.25 72.5386C170.245 72.4249 170.267 72.2815 170.317 72.1085C170.366 71.9128 170.407 71.6889 170.442 71.4368L170.649 70.2832L170.926 68.7678C171.016 68.2058 171.125 67.5746 171.255 66.8742C171.275 66.805 171.292 66.6903 171.308 66.5302C171.401 66.0364 171.446 65.7497 171.442 65.6701L171.435 65.4996C171.431 65.4086 171.383 65.2227 171.292 64.9419C171.286 64.8054 171.326 64.6784 171.412 64.5608C171.509 64.4427 171.626 64.3808 171.763 64.3749C171.888 64.3696 172 64.4502 172.098 64.6169C172.196 64.7835 172.25 64.9692 172.258 65.1739C172.268 65.4013 172.059 66.6404 171.632 68.8913C171.204 71.1422 170.993 72.3359 170.999 72.4723C171.004 72.5974 171.064 72.6575 171.177 72.6526C171.234 72.6502 171.333 72.5719 171.475 72.4178C171.606 72.2755 171.716 72.2024 171.807 72.1985C171.989 72.1907 172.085 72.3005 172.095 72.5279C172.101 72.6644 172.027 72.8042 171.874 72.9475C171.72 73.0907 171.543 73.2065 171.342 73.2949C171.141 73.3946 170.984 73.4469 170.87 73.4518Z" fill="#F3F3F3"/>
<path d="M180.17 73.0707C179.852 73.0843 179.604 73.0095 179.426 72.8463C179.26 72.6825 179.171 72.4642 179.159 72.1913C179.147 71.9071 179.2 71.415 179.318 70.7151L179.622 68.6347C178.818 69.2956 178.064 69.6411 177.359 69.6713C176.848 69.6932 176.45 69.5735 176.165 69.3123C176.147 69.427 176.129 69.5417 176.112 69.6564C176.105 69.7705 176.093 69.885 176.075 69.9996C176.046 70.3768 176.005 70.7601 175.953 71.1496C175.807 72.5114 175.529 73.2011 175.119 73.2186C174.949 73.2259 174.841 73.1109 174.797 72.8736C174.861 71.9823 175.053 70.5959 175.371 68.7142C175.7 66.8206 175.935 65.5404 176.078 64.8737C176.107 64.7585 176.165 64.6592 176.253 64.5757C176.352 64.4917 176.452 64.4476 176.555 64.4432C176.691 64.4373 176.792 64.5298 176.857 64.7207C176.865 64.9026 176.788 65.4982 176.626 66.5076C176.499 67.2762 176.402 67.9353 176.335 68.4849C176.597 68.7585 176.995 68.8838 177.53 68.8609C178.053 68.8385 178.616 68.5525 179.219 68.0027C179.405 67.8238 179.579 67.6341 179.741 67.4335L179.948 66.2799C180.106 65.4416 180.292 64.8584 180.505 64.5303C180.611 64.3436 180.761 64.246 180.954 64.2377C181.147 64.2295 181.249 64.3334 181.258 64.5494L181.262 64.6347C180.728 66.8104 180.403 68.3848 180.285 69.3581C180.173 70.1944 180.104 70.8523 180.079 71.3318C180.061 71.7085 180.047 71.9141 180.037 71.9487L180.029 72.1712C180.032 72.2394 180.062 72.2723 180.119 72.2698C180.165 72.2679 180.204 72.2491 180.236 72.2136C180.292 72.177 180.382 72.1561 180.507 72.1507C180.7 72.1425 180.801 72.2406 180.81 72.4453C180.827 72.8433 180.614 73.0517 180.17 73.0707Z" fill="#F3F3F3"/>
<path d="M184.888 72.8858C184.342 72.9092 183.901 72.7287 183.566 72.3444C183.241 71.9482 183.067 71.4659 183.042 70.8974C183 69.8968 183.137 68.8544 183.455 67.77C183.785 66.6852 184.236 65.7717 184.807 65.0296C185.379 64.2875 186.001 63.9021 186.672 63.8734C187.161 63.8525 187.486 64.0151 187.649 64.3612C187.686 64.4166 187.717 64.4779 187.743 64.5452C187.768 64.601 187.793 64.6569 187.818 64.7128C187.882 64.8695 187.943 64.9581 188 64.9784C188.051 65.0901 188.077 65.1744 188.08 65.2313C188.084 65.3336 188.037 65.4324 187.939 65.5278C187.851 65.6226 187.751 65.6725 187.637 65.6774C187.399 65.6876 187.238 65.5179 187.154 65.1684C187.071 64.8188 186.876 64.6506 186.569 64.6638C186.159 64.6813 185.741 65.0181 185.313 65.6743C184.885 66.3191 184.527 67.1318 184.239 68.1124C183.959 69.0356 183.835 69.8554 183.866 70.5717C183.909 71.5836 184.3 72.0738 185.039 72.0421C185.415 72.0261 185.754 71.835 186.057 71.4689C186.089 71.4219 186.149 71.3454 186.235 71.2391C186.321 71.1215 186.403 71.0383 186.481 70.9894C186.558 70.9292 186.631 70.8976 186.699 70.8947C186.915 70.8854 187.027 70.9774 187.035 71.1707C187.045 71.3981 186.947 71.6472 186.743 71.9179C186.537 72.1773 186.268 72.3996 185.934 72.5848C185.6 72.7699 185.251 72.8703 184.888 72.8858Z" fill="#F3F3F3"/>
<path d="M190.806 72.6838C189.828 72.7256 189.31 72.0814 189.253 70.7511C189.232 70.2622 189.281 69.6621 189.398 68.9509L189.643 67.471L190.169 64.2021C190.211 64.1092 190.281 64.0321 190.381 63.9709C190.481 63.8983 190.576 63.86 190.667 63.8561C190.746 63.8527 190.828 63.9005 190.912 63.9994C190.996 64.0983 191.041 64.2046 191.045 64.3183L190.591 66.4736L190.158 68.7304C190.011 69.5568 189.947 70.1861 189.965 70.6181C189.986 71.0957 190.069 71.4338 190.214 71.6327C190.358 71.8201 190.584 71.9073 190.891 71.8941C191.369 71.8737 191.754 71.6977 192.048 71.3662C192.341 71.0347 192.545 70.6045 192.659 70.0757C192.762 69.57 192.806 69.1296 192.79 68.7544C192.748 67.7766 192.489 67.2979 192.011 67.3183C191.704 67.3315 191.436 67.5879 191.207 68.0875C191.082 68.3662 190.971 68.5703 190.874 68.6997C190.787 68.7946 190.709 68.8435 190.641 68.8464C190.437 68.8552 190.33 68.7629 190.322 68.5696C190.317 68.4559 190.421 68.218 190.633 67.8558C190.856 67.4817 191.038 67.2062 191.179 67.0293C191.483 66.6974 191.772 66.5255 192.045 66.5138C192.5 66.4944 192.856 66.6956 193.113 67.1174C193.37 67.5392 193.512 68.0628 193.539 68.6882C193.57 69.4045 193.467 70.0638 193.231 70.6663C193.006 71.2682 192.679 71.7492 192.25 72.1093C191.822 72.4694 191.34 72.6609 190.806 72.6838Z" fill="#F3F3F3"/>
<path d="M195.684 72.3895C195.503 72.3973 195.395 72.2822 195.362 72.0445L195.504 70.962C195.586 70.2294 195.689 69.4334 195.812 68.5738L195.888 67.9554C196.076 66.5007 196.193 65.6528 196.24 65.4116C196.34 64.8264 196.405 64.3338 196.433 63.9339C196.462 63.8188 196.521 63.7194 196.608 63.6359C196.707 63.552 196.808 63.5078 196.91 63.5034C197.047 63.4976 197.147 63.5901 197.213 63.7809C197.22 63.9629 197.206 64.1685 197.171 64.3978C197.131 64.5476 197.088 64.8627 197.04 65.3432L196.815 66.8735C198.013 65.0452 199.046 63.9018 199.915 63.4431C200.115 63.3321 200.318 63.2721 200.522 63.2634C200.715 63.2551 200.932 63.3882 201.171 63.6627C201.422 63.9368 201.553 64.1818 201.562 64.3978C201.57 64.5797 201.53 64.7238 201.444 64.83C201.357 64.9362 201.251 64.992 201.126 64.9974C200.956 65.0047 200.795 64.8521 200.645 64.5396C200.633 64.5173 200.602 64.4617 200.553 64.3727C200.514 64.2718 200.471 64.1996 200.424 64.1561C200.387 64.1007 200.346 64.0739 200.301 64.0759C200.221 64.0793 200.065 64.1543 199.832 64.301C199.61 64.4358 199.255 64.787 198.766 65.3547C198.289 65.9105 197.922 66.3819 197.665 66.7687C197.813 67.8331 198.07 68.7676 198.434 69.5721C198.799 70.3766 199.181 70.9184 199.58 71.1975C199.791 71.3366 199.988 71.4022 200.17 71.3944C200.363 71.3861 200.514 71.3284 200.624 71.2212C200.744 71.1135 200.834 70.9445 200.892 70.7142C200.974 70.4829 201.042 70.3603 201.099 70.3465C201.132 70.3223 201.194 70.3083 201.285 70.3044C201.353 70.3015 201.434 70.3379 201.529 70.4136C201.612 70.4897 201.658 70.6359 201.667 70.8519C201.677 71.0793 201.59 71.2994 201.405 71.5124C201.048 71.9491 200.682 72.1755 200.306 72.1916C199.215 72.2383 198.329 71.3764 197.65 69.6057C197.356 68.8665 197.164 68.2311 197.073 67.6997C197.041 67.7466 196.925 67.968 196.725 68.3638L196.537 68.7478C196.397 69.7448 196.265 70.7927 196.142 71.8915C196.136 72.017 196.083 72.1275 195.985 72.2228C195.887 72.3295 195.787 72.3851 195.684 72.3895Z" fill="#F3F3F3"/>
<path d="M208.169 71.855C208.044 71.8604 207.903 71.7639 207.746 71.5656C207.601 71.3554 207.524 71.1707 207.518 71.0115L207.505 70.7216C207.49 70.3691 207.689 69.2955 208.102 67.5009L208.284 66.5534L207.865 67.5452C207.733 67.9268 207.517 68.4657 207.216 69.162C206.452 70.9945 205.592 71.9312 204.637 71.972C204.069 71.9964 203.669 71.7003 203.437 71.0837C203.372 70.8814 203.332 70.6268 203.319 70.3198C203.292 69.6831 203.376 68.8651 203.573 67.8657C203.685 67.2913 203.781 66.8658 203.86 66.589L203.977 66.1397C204.084 65.7023 204.189 65.2421 204.294 64.7593C204.41 64.2645 204.468 63.8918 204.468 63.6412C204.498 63.526 204.556 63.4267 204.644 63.3432C204.742 63.2593 204.849 63.2148 204.962 63.21C205.076 63.2051 205.173 63.349 205.254 63.6417C205.267 63.9373 205.226 64.3036 205.131 64.7405C205.035 65.1661 204.937 65.5462 204.838 65.8808C204.749 66.2149 204.696 66.4279 204.677 66.5198C204.274 68.0065 204.095 69.2899 204.141 70.3701C204.156 70.7112 204.297 70.9443 204.564 71.0696C204.657 71.1112 204.783 71.1286 204.942 71.1217C205.261 71.1081 205.628 70.7734 206.044 70.1177C206.428 69.509 206.812 68.7522 207.194 67.8473C207.577 66.9424 207.883 66.1206 208.114 65.3817C208.353 64.5855 208.556 64.0016 208.722 63.6299C208.889 63.2583 209.08 63.0679 209.296 63.0586C209.489 63.0504 209.59 63.1429 209.598 63.3361C209.605 63.484 209.531 63.8915 209.377 64.5587C209.23 65.1232 209.134 65.526 209.087 65.7672C209.04 65.997 208.986 66.324 208.924 66.7481L208.614 69.0851L208.468 70.0652C208.461 70.1681 208.439 70.3228 208.403 70.5294C208.412 70.7454 208.452 70.8861 208.523 70.9514L208.685 71.1495C208.721 71.1821 208.741 71.2553 208.746 71.369C208.751 71.4827 208.687 71.5879 208.555 71.6847C208.434 71.7924 208.305 71.8492 208.169 71.855Z" fill="#F3F3F3"/>
<path d="M215.344 61.467C214.685 61.4952 214.158 61.2956 213.764 60.8683C213.381 60.4404 213.174 59.8626 213.143 59.135C213.137 58.9872 213.177 58.8601 213.263 58.7539C213.361 58.6472 213.473 58.5912 213.598 58.5858C213.723 58.5805 213.811 58.6337 213.861 58.7454C213.926 58.9363 213.996 59.2408 214.071 59.6591C214.216 60.3819 214.584 60.7307 215.175 60.7053C215.846 60.6766 216.418 60.4699 216.891 60.0851C217.376 59.6885 217.864 59.1151 218.355 58.3651C218.477 58.2688 218.588 58.2184 218.691 58.214C218.895 58.2053 219.002 58.2975 219.01 58.4908C219.013 58.559 218.994 58.6396 218.952 58.7325C217.752 60.5039 216.55 61.4154 215.344 61.467ZM216.338 71.5053C216.213 71.5107 216.072 71.4142 215.915 71.2158C215.77 71.0056 215.694 70.821 215.687 70.6618L215.674 70.3719C215.659 70.0194 215.858 68.9458 216.271 67.1512L216.453 66.2037L216.034 67.1955C215.902 67.577 215.686 68.116 215.385 68.8123C214.621 70.6448 213.761 71.5814 212.806 71.6223C212.238 71.6467 211.838 71.3505 211.606 70.734C211.541 70.5317 211.501 70.2771 211.488 69.9701C211.461 69.3334 211.545 68.5153 211.742 67.5159C211.854 66.9416 211.95 66.516 212.029 66.2393L212.146 65.79C212.253 65.3526 212.359 64.8924 212.463 64.4095C212.579 63.9148 212.637 63.5421 212.637 63.2915C212.667 63.1763 212.725 63.077 212.813 62.9935C212.912 62.9095 213.018 62.8651 213.132 62.8603C213.245 62.8554 213.343 62.9993 213.423 63.292C213.436 63.5876 213.395 63.9539 213.3 64.3908C213.204 64.8164 213.106 65.1965 213.007 65.531C212.918 65.8652 212.865 66.0782 212.846 66.1701C212.443 67.6568 212.264 68.9402 212.31 70.0204C212.325 70.3615 212.466 70.5946 212.733 70.7199C212.826 70.7615 212.952 70.7788 213.111 70.772C213.43 70.7584 213.797 70.4237 214.213 69.768C214.597 69.1593 214.981 68.4025 215.363 67.4976C215.746 66.5927 216.053 65.7709 216.283 65.032C216.522 64.2358 216.725 63.6519 216.891 63.2802C217.058 62.9086 217.249 62.7182 217.465 62.7089C217.658 62.7006 217.759 62.7931 217.767 62.9864C217.774 63.1342 217.7 63.5418 217.546 64.209C217.4 64.7735 217.303 65.1763 217.256 65.4175C217.209 65.6473 217.155 65.9743 217.093 66.3984L216.783 68.7354L216.637 69.7155C216.63 69.8183 216.608 69.9731 216.572 70.1797C216.581 70.3957 216.621 70.5364 216.692 70.6017L216.854 70.7997C216.89 70.8324 216.91 70.9056 216.915 71.0193C216.92 71.133 216.856 71.2382 216.724 71.335C216.603 71.4427 216.474 71.4995 216.338 71.5053Z" fill="#F3F3F3"/>
<path d="M226.149 77.9198C225.603 77.9432 225.134 77.7753 224.743 77.4161C224.364 77.0679 224.162 76.6095 224.137 76.041C224.115 75.518 224.213 75.0126 224.431 74.5248C224.662 74.0479 224.999 73.5494 225.444 73.0291C225.823 72.58 226.282 72.1105 226.819 71.6205L228.365 70.2216C228.432 69.9339 228.488 69.6297 228.531 69.3089C228.635 68.8032 228.714 68.3898 228.768 68.0685C228.394 69.44 227.875 70.3507 227.211 70.8006C227.001 70.9463 226.793 71.0235 226.588 71.0323C226.191 71.0493 225.854 70.9043 225.579 70.5971C225.315 70.2895 225.172 69.8741 225.15 69.3511C225.107 68.3619 225.251 67.3192 225.58 66.223C225.908 65.1154 226.368 64.1617 226.961 63.3618C227.575 62.5495 228.263 62.127 229.025 62.0944C229.389 62.0789 229.74 62.155 230.077 62.3228C230.144 62.2857 230.217 62.2655 230.297 62.2621C230.49 62.2538 230.59 62.3407 230.598 62.5226C230.607 62.7159 230.58 62.8993 230.519 63.0727C230.236 63.9164 229.795 66.0995 229.194 69.6222C229.371 69.5007 229.574 69.3269 229.803 69.1006C229.858 69.0527 229.957 68.9631 230.099 68.8317C230.241 68.6889 230.357 68.5871 230.445 68.5264C230.534 68.4657 230.612 68.4338 230.68 68.4309C230.874 68.4226 230.974 68.5151 230.983 68.7084C230.989 68.8562 230.954 68.9716 230.878 69.0546C230.196 69.6192 229.612 70.0884 229.127 70.4623L228.923 72.0772L228.856 72.5072C228.75 73.2293 228.656 73.8314 228.574 74.3133C228.493 74.8066 228.388 75.2781 228.259 75.7279C228.07 76.3624 227.796 76.8811 227.437 77.2837C227.09 77.6859 226.66 77.8979 226.149 77.9198ZM226.605 70.2115C226.832 70.2017 227.087 70.0371 227.369 69.7174C227.651 69.3864 227.918 68.9649 228.17 68.4529C228.432 67.9291 228.636 67.385 228.783 66.8206C229.01 66.0021 229.2 65.2479 229.353 64.5579C229.449 64.1551 229.569 63.626 229.712 62.9706C229.546 62.8296 229.327 62.7649 229.054 62.7766C228.565 62.7976 228.068 63.1435 227.561 63.8145C227.066 64.4849 226.657 65.3226 226.336 66.3273C226.025 67.3202 225.887 68.2203 225.922 69.0276C225.956 69.8349 226.184 70.2295 226.605 70.2115ZM225.959 77.0736C226.197 77.0634 226.411 76.9973 226.599 76.8753C226.788 76.7647 226.962 76.575 227.122 76.3062C227.281 76.026 227.435 75.6378 227.585 75.1416C227.734 74.6454 227.849 74.1393 227.93 73.6233C228.004 73.2328 228.063 72.8772 228.106 72.5564L228.158 72.1782C228.166 72.0868 228.179 71.9894 228.197 71.8861C228.215 71.7828 228.228 71.6741 228.234 71.5599L228.268 71.1484C227.193 72.117 226.365 72.9897 225.783 73.7664C225.212 74.5426 224.94 75.2264 224.965 75.8176C224.992 76.443 225.145 76.8351 225.426 76.9939C225.542 77.0573 225.72 77.0838 225.959 77.0736Z" fill="#F3F3F3"/>
<path d="M234.05 77.7012C233.675 77.7172 233.341 77.6347 233.048 77.4536C232.767 77.272 232.546 77.0365 232.386 76.7472C232.226 76.4693 232.14 76.1882 232.128 75.904C232.099 75.2331 232.248 74.5946 232.575 73.9882C232.903 73.3933 233.385 72.8031 234.02 72.2177C234.261 71.9796 234.816 71.5059 235.685 70.7967L236.494 70.1299L236.562 69.7339L236.659 69.2001C236.704 68.9248 236.736 68.7412 236.755 68.6493L236.838 68.1844C236.66 68.8185 236.342 69.3902 235.886 69.8996C235.441 70.4085 235.002 70.6721 234.57 70.6906C234.115 70.7101 233.744 70.5551 233.457 70.2257C233.169 69.8849 233.012 69.4132 232.986 68.8106C232.945 67.8555 233.153 66.3373 233.611 64.256C233.84 63.221 233.953 62.6637 233.95 62.5842L233.907 62.381C233.892 62.3018 233.962 62.202 234.116 62.0815C234.27 61.961 234.399 61.8986 234.501 61.8942C234.728 61.8844 234.847 61.9933 234.857 62.2207C234.866 62.4481 234.697 63.4122 234.348 65.1129C234 66.8137 233.838 67.9654 233.864 68.568C233.889 69.1592 233.979 69.5256 234.133 69.6671C234.276 69.809 234.45 69.8756 234.654 69.8669C235.086 69.8484 235.531 69.4648 235.989 68.7162C236.351 68.1312 236.66 67.3548 236.914 66.3871C237.18 65.4075 237.421 64.3777 237.637 63.2977L237.707 62.953C237.81 62.436 237.905 62.113 237.99 61.984C238.075 61.8437 238.198 61.7701 238.357 61.7633C238.482 61.7579 238.569 61.7884 238.617 61.8547C238.676 61.9091 238.696 61.9709 238.676 62.0401C238.542 62.8888 238.316 64.1343 237.999 65.7768C237.71 67.27 237.51 68.4688 237.401 69.3734C237.368 69.3976 237.559 69.2072 237.975 68.8021C238.192 68.5649 238.356 68.3985 238.466 68.3026C238.576 68.2068 238.682 68.1567 238.784 68.1523C238.977 68.1441 239.078 68.2366 239.086 68.4298C239.092 68.5663 239.052 68.6819 238.965 68.7768C238.527 69.2056 237.957 69.7198 237.254 70.3194C236.813 73.3227 236.384 75.2832 235.968 76.2009C235.739 76.7119 235.386 77.1257 234.91 77.4422C234.666 77.6007 234.38 77.687 234.05 77.7012ZM234.015 76.8825C234.413 76.8655 234.76 76.5943 235.056 76.069C235.258 75.7187 235.468 75.163 235.686 74.4018L235.872 73.5567L236.014 72.8842L236.331 71.1278L236.052 71.396C235.669 71.7542 235.291 72.095 234.917 72.4186C233.589 73.5917 232.947 74.6842 232.99 75.6962C233.01 76.1623 233.179 76.5139 233.497 76.7509C233.615 76.8484 233.787 76.8922 234.015 76.8825Z" fill="#F3F3F3"/>
<path d="M244.29 70.2745C244.165 70.2799 244.07 70.1928 244.005 70.0133C243.988 69.866 243.923 69.6865 243.811 69.4749C243.715 69.3423 243.603 69.1193 243.475 68.8058C243.422 68.6372 243.271 68.2906 243.021 67.7659C242.695 67.0736 242.5 66.6491 242.436 66.4924L240.253 70.1739C240.158 70.3489 240.003 70.441 239.787 70.4502C239.571 70.4595 239.459 70.3731 239.451 70.1912C239.447 70.0889 239.492 69.9502 239.587 69.7753L240.032 69.0045L240.541 68.1113C241.166 67.0252 241.655 66.1955 242.006 65.6223L241.893 65.3709C241.765 65.046 241.688 64.85 241.663 64.7827C241.496 64.3456 241.356 63.9928 241.242 63.7243L241.088 63.3208C240.998 63.0968 240.947 62.9623 240.934 62.9174L240.761 62.4805C240.747 62.4241 240.728 62.368 240.703 62.3121C240.677 62.2449 240.657 62.1831 240.643 62.1267C240.594 62.0377 240.567 61.9477 240.564 61.8568C240.561 61.7885 240.603 61.7127 240.691 61.6292C240.778 61.5344 240.884 61.4843 241.009 61.4789C241.225 61.4697 241.403 61.6443 241.544 62.0028C241.621 62.2045 241.673 62.356 241.7 62.4574C241.757 62.7283 241.855 63.0203 241.994 63.3333C242.148 63.7368 242.274 64.0389 242.374 64.2397C242.413 64.3519 242.483 64.5198 242.584 64.7433C242.842 64.4019 243.169 63.9152 243.563 63.2832L243.964 62.651C244.231 62.2408 244.375 62.0239 244.397 62.0002C244.559 61.7996 244.713 61.6564 244.857 61.5704C244.947 61.5324 245.025 61.512 245.094 61.5091C245.277 61.5354 245.372 61.6224 245.378 61.7703C245.384 61.9067 245.361 62.033 245.309 62.1491C245.247 62.2885 245.108 62.5051 244.893 62.7991C244.806 62.9054 244.57 63.2458 244.185 63.8204C244.185 63.8204 244.121 63.9257 243.993 64.1362C243.652 64.6975 243.321 65.1958 242.998 65.6311C243.726 67.2061 244.129 68.1115 244.207 68.3473C244.324 68.6727 244.449 68.9464 244.584 69.1684C244.719 69.3791 244.791 69.5981 244.8 69.8255C244.783 69.9516 244.725 70.0566 244.626 70.1405C244.538 70.224 244.426 70.2687 244.29 70.2745Z" fill="#F3F3F3"/>
<path d="M247.797 67.2539C247.626 67.2612 247.524 67.1517 247.492 66.9252C248.345 62.3666 248.897 58.3675 249.148 54.9282C249.194 54.3908 249.255 53.8244 249.332 53.2288C249.433 52.6549 249.477 52.0892 249.464 51.5316C249.493 51.4164 249.552 51.3171 249.639 51.2336C249.738 51.1496 249.839 51.1054 249.941 51.1011C250.078 51.0952 250.179 51.1877 250.244 51.3786C250.242 51.8685 250.194 52.4742 250.099 53.1959C249.991 54.1232 249.901 55.0839 249.83 56.0779C249.754 57.243 249.566 58.8401 249.266 60.8691C248.976 62.8863 248.641 64.894 248.259 66.8924C248.144 67.1251 247.99 67.2456 247.797 67.2539ZM247.676 70.8301C247.585 70.834 247.51 70.8087 247.451 70.7543C247.392 70.6999 247.36 70.6329 247.357 70.5533C247.353 70.4737 247.357 70.4223 247.367 70.3991C247.136 70.3178 247.015 70.1579 247.005 69.9191C246.995 69.6803 247.083 69.4715 247.269 69.2927C247.466 69.1134 247.667 69.0193 247.872 69.0106C248.054 69.0028 248.198 69.0592 248.306 69.1799C248.413 69.2893 248.471 69.4462 248.48 69.6509C248.49 69.8897 248.416 70.1435 248.256 70.4123C248.108 70.6806 247.915 70.8199 247.676 70.8301Z" fill="#F3F3F3"/>
</svg>
